<svg id="Layer_1" data-name="Layer 1" xmlns="http://www.w3.org/2000/svg" viewBox="0 0 650.96 405.29"><defs><style>.cls-1,.cls-25{fill:#75cee2;}.cls-2{fill:#fbf8f5;}.cls-2,.cls-3,.cls-4,.cls-5,.cls-6,.cls-7{stroke:#75cee2;}.cls-2,.cls-24,.cls-27,.cls-29,.cls-3,.cls-4,.cls-5,.cls-6,.cls-7{stroke-miterlimit:10;}.cls-2,.cls-29,.cls-4{stroke-width:1.24px;}.cls-24,.cls-27,.cls-29,.cls-3,.cls-4,.cls-5,.cls-7{fill:none;}.cls-3{stroke-width:2.48px;}.cls-5,.cls-6{stroke-width:2.48px;}.cls-6{fill:#fff;}.cls-7{stroke-width:4.35px;}.cls-10,.cls-15,.cls-8{font-size:14.33px;font-family:Cutive-Regular, Cutive;}.cls-15,.cls-8{fill:#231f20;}.cls-9{letter-spacing:-0.02em;}.cls-10,.cls-28{fill:#d61a69;}.cls-11{letter-spacing:-0.02em;}.cls-12{letter-spacing:0em;}.cls-13{letter-spacing:-0.05em;}.cls-14{letter-spacing:-0.02em;}.cls-15{letter-spacing:-0.04em;}.cls-16{letter-spacing:0em;}.cls-17{letter-spacing:-0.06em;}.cls-18{letter-spacing:-0.01em;}.cls-19{letter-spacing:-0.01em;}.cls-20{letter-spacing:0em;}.cls-21{letter-spacing:-0.01em;}.cls-22{letter-spacing:-0.01em;}.cls-23{fill:#76cde1;}.cls-24{stroke:#76cde1;stroke-width:0.44px;stroke-dasharray:1.76;}.cls-25{font-size:27.03px;font-family:AvenirNextLTPro-Regular, Avenir Next LT Pro;}.cls-26{letter-spacing:-0.1em;}.cls-27,.cls-29{stroke:#d61a69;}.cls-27{stroke-width:0.62px;}</style></defs><title>NumeracyArtboard 42</title><rect class="cls-1" x="39.63" y="34.89" width="370.54" height="4.52"/><rect class="cls-1" x="-142.74" y="217.25" width="370.54" height="4.52" transform="translate(262.05 176.98) rotate(90)"/><rect class="cls-1" x="222.63" y="217.25" width="370.54" height="4.52" transform="translate(627.42 -188.39) rotate(90)"/><rect class="cls-1" x="40.36" y="400.14" width="30.44" height="4.52" transform="translate(111.15 804.81) rotate(180)"/><rect class="cls-1" x="216.98" y="400.14" width="65.75" height="4.52" transform="translate(499.7 804.81) rotate(180)"/><rect class="cls-1" x="341.45" y="400.14" width="65.75" height="4.52" transform="translate(748.65 804.81) rotate(180)"/><rect class="cls-1" x="306.1" y="373.01" width="59.2" height="4.52" transform="translate(48.13 788.59) rotate(-103.36)"/><rect class="cls-2" x="70.96" y="400.14" width="145.6" height="4.52" transform="translate(287.52 804.81) rotate(180)"/><rect class="cls-3" x="42.05" y="136.2" width="41.35" height="119.1"/><line class="cls-4" x1="71.21" y1="402.16" x2="216.67" y2="402.16"/><rect class="cls-2" x="334.84" y="236.75" width="145.6" height="4.52" transform="translate(168.63 646.65) rotate(-90)"/><line class="cls-4" x1="407.89" y1="166.46" x2="407.89" y2="311.92"/><rect class="cls-4" x="209.95" y="173" width="82.29" height="140.19"/><rect class="cls-4" x="292.24" y="248.68" width="76.92" height="34.32"/><rect class="cls-1" x="43.71" y="81.34" width="84.36" height="3.54"/><rect class="cls-1" x="218.63" y="81.34" width="186.91" height="3.54"/><rect class="cls-5" x="42.47" y="82.44" width="41.25" height="53.35"/><rect class="cls-5" x="272.8" y="84.09" width="134.4" height="47.14"/><rect class="cls-5" x="355.51" y="131.65" width="48.38" height="83.12"/><line class="cls-5" x1="42.88" y1="306.98" x2="126.41" y2="306.98"/><line class="cls-5" x1="57.77" y1="254.46" x2="57.77" y2="306.16"/><line class="cls-5" x1="126.31" y1="306.88" x2="126.31" y2="358.57"/><line class="cls-5" x1="129.1" y1="332.31" x2="129.1" y2="384"/><rect class="cls-5" x="49.91" y="168.24" width="29.36" height="30.19" rx="1.24" ry="1.24"/><rect class="cls-6" x="45.31" y="181.53" width="15.2" height="4.34" rx="1.24" ry="1.24"/><rect class="cls-6" x="45.47" y="173.93" width="5.58" height="3.72" rx="1.24" ry="1.24"/><rect class="cls-6" x="45.47" y="189.75" width="5.58" height="3.72" rx="1.24" ry="1.24"/><line class="cls-5" x1="114.63" y1="78.1" x2="186.58" y2="78.1"/><line class="cls-5" x1="176.35" y1="81.2" x2="248.3" y2="81.2"/><path class="cls-5" d="M300.92,148.81s-2.27-14.68,11.58-14.68c6.82,0,8.68,8.06,8.68,15.51"/><path class="cls-5" d="M294.1,147.77s6.82,3.51,18.82,3.51,15.51-6,15.51-6"/><path class="cls-5" d="M331.52,172.38S346.2,170.11,346.2,184c0,6.82-8.06,8.68-15.51,8.68"/><path class="cls-5" d="M332.56,165.56S329,172.38,329,184.37s6,15.51,6,15.51"/><path class="cls-5" d="M316,304.5s-2.27-14.68,11.58-14.68c6.82,0,8.68,8.06,8.68,15.51"/><path class="cls-5" d="M309.14,303.47S316,307,328,307s15.51-6,15.51-6"/><rect class="cls-5" x="319.64" y="261.18" width="26.57" height="10.75" rx="1.24" ry="1.24"/><path class="cls-5" d="M79.58,342s3.1-14,15.51-14c0,0,13.34.31,13.34,13.65C94.78,341.72,79.58,342,79.58,342Z"/><circle class="cls-5" cx="94.37" cy="363.43" r="10.96"/><ellipse class="cls-7" cx="93.64" cy="367.56" rx="17.89" ry="20.68"/><text class="cls-8" transform="translate(155.19 64.03)">Stora<tspan class="cls-9" x="43.48" y="0">g</tspan><tspan x="52.77" y="0">e space</tspan></text><text class="cls-10" transform="translate(192.82 13.17)">6 met<tspan class="cls-11" x="45.81" y="0">r</tspan><tspan x="53.39" y="0">es</tspan></text><text class="cls-10" transform="translate(13.17 94.64) rotate(-90)">1 met<tspan class="cls-11" x="43.96" y="0">r</tspan><tspan class="cls-12" x="51.54" y="0">e</tspan></text><text class="cls-10" transform="translate(13.17 389.27) rotate(-90)">2 met<tspan class="cls-11" x="45.42" y="0">r</tspan><tspan class="cls-12" x="53" y="0">es</tspan></text><text class="cls-8" transform="translate(45.97 118.45)"><tspan class="cls-13">F</tspan><tspan x="11.7" y="0">rid</tspan><tspan class="cls-14" x="35.49" y="0">g</tspan><tspan x="44.79" y="0">e</tspan></text><text class="cls-8" transform="translate(296.16 114.31)">Desk</text><text class="cls-8" transform="translate(357.77 178)">Desk</text><text class="cls-8" transform="translate(45.97 221.62)">Sink</text><text class="cls-15" transform="translate(45.97 326.68)">T<tspan class="cls-16" x="11.11" y="0">oilet</tspan></text><text class="cls-8" transform="translate(221.7 232.2)">Cutting<tspan x="0" y="17.2">l</tspan><tspan class="cls-17" x="6.4" y="17.2">a</tspan><tspan class="cls-18" x="14.83" y="17.2">y</tspan><tspan class="cls-19" x="24.38" y="17.2">o</tspan><tspan x="33.8" y="17.2">ut</tspan><tspan x="0" y="34.4">a</tspan><tspan class="cls-11" x="9.29" y="34.4">r</tspan><tspan class="cls-20" x="16.88" y="34.4">ea</tspan></text><text class="cls-8" transform="translate(303.71 237.49)">S<tspan class="cls-21" x="10.58" y="0">e</tspan><tspan x="19.52" y="0">wing</tspan><tspan x="0" y="17.2">ma</tspan><tspan class="cls-22" x="27.02" y="17.2">c</tspan><tspan x="35.64" y="17.2">hine</tspan></text><path class="cls-23" d="M491.39,213.85c3.92-1.08,13.45-2.66,13.88-8.05.27-3.36-5.43-14.06-8.68-15.27-1.54-.57-4,.7-5.44,1.14-2.17.68-5.26,2.36-7.51,2.41q-1,1.66-1.27.79-.95-1.5-1.9-3c-1.24-1.94-4.94-10.67-8.74-8.53-2.58,1.45.83,6.2,1.64,8,.54,1.17,5.47,12.51,6.42,12.24,0,0-2.68-1.4-2.93-1.49a11.54,11.54,0,0,0-3-.64c-3-.15-3.49,1.41-1.65,3.74,1.68,2.13,4.51,2.94,6.9,4q5.8,2.64,11.79,4.79c.67.24,1-.82.29-1.06a117,117,0,0,1-15.38-6.48c-2.21-1.17-4.92-3.8-.49-3.63,1.63.06,3.28,1.17,4.86,1.61a.56.56,0,0,0,.68-.38c.18-1-.43-1.44-.9-2.29-1.86-3.35-3.61-6.71-5.23-10.18-.66-1.43-1.33-2.86-2-4.31-1.27-2.9.37-3.14,2.47-1.49,1.56,1.23,5.8,7.74,6.2,9.63a.55.55,0,0,0,.68.38c3.66-1.21,7.48-2.92,11.27-3.61,3.24-.59,3.84.24,5.71,2.94a39.05,39.05,0,0,1,2.49,4.14c1.8,3.47,4,6.31.56,9.44-2.56,2.36-7.64,3.2-11,4.12a.55.55,0,0,0,.29,1.06Z"/><path class="cls-24" d="M468.12,183.9a3.08,3.08,0,0,0-1.05,2.48,6,6,0,0,0,1.29,4,7.29,7.29,0,0,0,2.29,1.75"/><path class="cls-24" d="M466,181.85a5.16,5.16,0,0,0-1.56,3,9.45,9.45,0,0,0-.17,3.41A8,8,0,0,0,467,193a9.81,9.81,0,0,0,5,2.24"/><path class="cls-24" d="M474.25,180.39a3.08,3.08,0,0,1,2.66.43A6,6,0,0,1,479.6,184a7.29,7.29,0,0,1,.27,2.87"/><path class="cls-24" d="M473.64,177.49a5.16,5.16,0,0,1,3.36.27,9.45,9.45,0,0,1,3,1.67,8,8,0,0,1,2.6,4.8,9.81,9.81,0,0,1-.77,5.44"/><text class="cls-25" transform="translate(518.03 207.41)"><tspan class="cls-26">T</tspan><tspan x="12.81" y="0">ap me to </tspan><tspan x="0" y="32.44">zoom in</tspan></text><line class="cls-27" x1="48.42" y1="19.02" x2="402.06" y2="19.02"/><path class="cls-28" d="M49.54,19l1.36-2.23-.08-.05-3.64,1.45L43.37,19l3.81.84,3.64,1.45.08,0Z"/><polygon class="cls-28" points="406.44 19.02 400.27 21.54 401.74 19.02 400.27 16.5 406.44 19.02"/><text class="cls-10" transform="translate(446.28 250.63) rotate(-90)">6 met<tspan class="cls-11" x="45.81" y="0">r</tspan><tspan x="53.39" y="0">es</tspan></text><line class="cls-27" x1="452.13" y1="395.03" x2="452.13" y2="41.39"/><path class="cls-28" d="M452.13,393.91l-2.23-1.36-.05.08,1.45,3.64.84,3.81.84-3.81,1.45-3.64,0-.08Z"/><polygon class="cls-28" points="452.13 37.01 454.66 43.18 452.13 41.72 449.61 43.18 452.13 37.01"/><line class="cls-29" x1="25.38" y1="43.28" x2="25.38" y2="74.56"/><polygon class="cls-28" points="25.38 34.52 20.33 46.87 25.38 43.94 30.42 46.87 25.38 34.52"/><polygon class="cls-28" points="25.38 83.32 20.33 70.98 25.38 73.91 30.42 70.98 25.38 83.32"/><line class="cls-29" x1="25.38" y1="314.97" x2="25.38" y2="394.42"/><polygon class="cls-28" points="25.38 306.21 20.33 318.55 25.38 315.63 30.42 318.55 25.38 306.21"/><polygon class="cls-28" points="25.38 403.18 20.33 390.84 25.38 393.77 30.42 390.84 25.38 403.18"/></svg>