<svg id="Layer_1" data-name="Layer 1" xmlns="http://www.w3.org/2000/svg" xmlns:xlink="http://www.w3.org/1999/xlink" viewBox="0 0 473.68 440.48">
   <defs>
      <style>.cls-1{fill:#74cee2;}.cls-2{fill:#fff;}.cls-3{fill:#65b4c6;}.cls-4,.cls-5{fill:#d61a69;}.cls-4{stroke:#fff;stroke-width:0.47px;}.cls-22,.cls-23,.cls-4{stroke-miterlimit:10;}.cls-6{fill:#58c7da;}.cls-7{fill:#61acbd;}.cls-8{fill:url(#New_Gradient_Swatch_1);}.cls-9{fill:url(#linear-gradient);}.cls-10{fill:#141413;}.cls-11{fill:url(#New_Gradient_Swatch_1-2);}.cls-12{fill:url(#radial-gradient);}.cls-13{fill:url(#New_Gradient_Swatch_1-3);}.cls-14{fill:url(#linear-gradient-2);}.cls-15{fill:url(#New_Gradient_Swatch_1-4);}.cls-16{fill:url(#radial-gradient-2);}.cls-17{fill:url(#New_Gradient_Swatch_1-5);}.cls-18{fill:#76cde1;}.cls-19{fill:url(#New_Gradient_Swatch_1-6);}.cls-20{font-size:8.08px;font-family:Cutive-Regular, Cutive;}.cls-20,.cls-21{fill:#204b54;}.cls-22,.cls-23{fill:none;stroke:#75cee2;}.cls-22{stroke-linecap:round;stroke-width:2.89px;}.cls-23{stroke-width:0.35px;}</style>
      <linearGradient id="New_Gradient_Swatch_1" x1="7390.33" y1="899.57" x2="7394.73" y2="896.25" gradientTransform="matrix(-1, 0.02, 0.02, 1, 7395.18, -745.2)" gradientUnits="userSpaceOnUse">
         <stop offset="0.05" stop-color="#e6e7e7"/>
         <stop offset="0.35" stop-color="#6e6f71"/>
         <stop offset="0.67" stop-color="#d0d2d3"/>
         <stop offset="1" stop-color="#414142"/>
      </linearGradient>
      <linearGradient id="linear-gradient" x1="189.7" y1="19667.95" x2="189.7" y2="19663.69" gradientTransform="matrix(1, 0, 0, -1, -172.5, 19958.2)" gradientUnits="userSpaceOnUse">
         <stop offset="0.05" stop-color="#e6e7e7"/>
         <stop offset="0.55" stop-color="#6e6f71"/>
         <stop offset="1" stop-color="#414142"/>
      </linearGradient>
      <linearGradient id="New_Gradient_Swatch_1-2" x1="7230.43" y1="823.41" x2="7233.82" y2="825.53" gradientTransform="matrix(-1, 0.02, 0.02, 1, 7237.23, -742.34)" xlink:href="#New_Gradient_Swatch_1"/>
      <radialGradient id="radial-gradient" cx="7370.42" cy="501.74" r="17.92" gradientTransform="matrix(-0.97, 0.02, 0.02, 0.97, 7142.78, -408.95)" gradientUnits="userSpaceOnUse">
         <stop offset="0" stop-color="#fff"/>
         <stop offset="1" stop-color="#76cde1"/>
      </radialGradient>
      <linearGradient id="New_Gradient_Swatch_1-3" x1="-253.1" y1="900.22" x2="-248.69" y2="896.91" gradientTransform="translate(312.08 -616.91) rotate(-1.04)" xlink:href="#New_Gradient_Swatch_1"/>
      <linearGradient id="linear-gradient-2" x1="7835.26" y1="19665.17" x2="7831" y2="19665.17" gradientTransform="translate(7913.77 19957.05) rotate(180)" xlink:href="#linear-gradient"/>
      <linearGradient id="New_Gradient_Swatch_1-4" x1="-253.54" y1="823.25" x2="-250.15" y2="825.36" gradientTransform="translate(312.08 -616.91) rotate(-1.04)" xlink:href="#New_Gradient_Swatch_1"/>
      <radialGradient id="radial-gradient-2" cx="-384.52" cy="501.57" r="17.92" gradientTransform="translate(440.23 -287.55) rotate(-1.04) scale(0.97)" xlink:href="#radial-gradient"/>
      <linearGradient id="New_Gradient_Swatch_1-5" x1="-281.3" y1="813.9" x2="-276.71" y2="813.9" gradientTransform="translate(326.87 -612)" xlink:href="#New_Gradient_Swatch_1"/>
      <linearGradient id="New_Gradient_Swatch_1-6" x1="7673.44" y1="19176.08" x2="7673.44" y2="19170.18" gradientTransform="translate(-7625.85 -18977.12)" xlink:href="#New_Gradient_Swatch_1"/>
   </defs>
   <title>NumeracyArtboard 28</title>
   <path class="cls-1" d="M105.22,36.53c-.5-4.33-2.31-10-.07-13.89,1.87-3.24,5.66-6.29,8.34-8.92,2.89-2.84,6.11-6.42,9.6-8.56,4.16-2.55,7.77.76,10.44,3.9s4.66,6.82,2.09,10.75c-2.24,3.42-6,6.25-9,9s-6.46,7-10.14,8.47-8.91-1-12.79-1.35c-1.52-.14-7.81,2.54-4.41,2.84,6,.54,11.11,3,17.21,1.13,5.12-1.54,9.07-5.14,13-8.6,4.26-3.74,9.83-7.75,12.86-12.63s.12-9.33-3.38-13c-7.27-7.62-16.8-4.44-24,1.51A130.91,130.91,0,0,0,100.1,21.8c-1.53,1.76-2.73,3-3,5.38-.32,3.49.84,7.74,1.24,11.19.16,1.36,7,0,6.83-1.83Z"/>
   <path class="cls-1" d="M101.71,37.12c-6.36,7.59-16.77,10.4-24.33,16.79A52.5,52.5,0,0,0,69,63.39a146.73,146.73,0,0,0-25.37,59.2c6-14.59,17.43-26.12,27.78-38A337.71,337.71,0,0,0,104.79,39a3.23,3.23,0,0,0-2.93-1.05"/>
   <path class="cls-1" d="M79.42,44.15c2.27,1.82,4.82,3.66,7.73,3.66,1.44,0,2.93-.47,4.3,0a6.34,6.34,0,0,1,2.26,1.64C113.52,69.12,122.55,97,129.63,124c-17.16-23.55-35.05-46.61-52.91-69.63C72.59,49,68.44,43.66,64.2,38.4A59.21,59.21,0,0,0,60,33.25c-3.93-3.88-7.06-2.2-12.25-1.77A14.88,14.88,0,0,1,36.93,27.6a24.73,24.73,0,0,1-6.45-9.72,16.25,16.25,0,0,1-1.24-5,11.74,11.74,0,0,1,7.09-11,14.66,14.66,0,0,1,13.3,1.24c.86.53,1.84,1.17,2.81.87S54,2.53,55,2.36a2.88,2.88,0,0,1,2.17.93c2.05,1.7,4.32,4,3.61,6.62-.2.72-.62,1.36-.82,2.07a7.94,7.94,0,0,0,.32,3.84A30.21,30.21,0,0,1,61,23.44c-.15,5,3.31,7.21,7,10.77S75.49,41,79.42,44.15Z"/>
   <path class="cls-2" d="M78.55,44.83a16.56,16.56,0,0,0,8.22,3.85c3.15.48,4.54-.08,7,2.43,1.5,1.51,2.92,3.12,4.29,4.75a109,109,0,0,1,13.15,19.91c8,15.27,12.88,31.9,17.25,48.48l2.18-.82Q99.76,81.08,67,40c-3.27-4.1-6.4-9.92-12.27-10.16-2.76-.11-5.44.79-8.21.67-5.27-.22-9.55-3.63-12.32-7.93-2.27-3.52-4.38-8.17-3.49-12.41C32,3.8,38.76.71,44.85,2.27c2.57.66,4.76,2.83,7.51,2.66.59,0,1-.6,1.48-.7,2.06-.37,4.26.28,5.14,2.56s-.24,4.31-.3,6.53a19.31,19.31,0,0,0,.66,3.74c.62,3.5-.11,7.45,1.42,10.76,1.33,2.87,4.21,5,6.45,7.08,3.68,3.43,7.43,6.76,11.34,9.94.84.68,2.79-.52,1.74-1.37-3.91-3.17-7.66-6.5-11.34-9.94-1.34-1.25-2.76-2.45-4-3.81-2.38-2.62-2.57-4.84-2.76-8.27a38.61,38.61,0,0,0-.58-5c-.46-2.47.07-4.12.3-6.5.26-2.7-.75-4.45-2.76-6.36C57.8,2.3,56.7,1.41,54.79,1.52c-1.45.09-2.53,1.32-4.28,1C49,2.19,47.43.92,45.9.52A14.6,14.6,0,0,0,31,4.88C22.56,14.92,34.4,32,46,32.4c4,.15,8.23-1.94,11.92.54C62,35.66,65.33,41.59,68.32,45.4,74.4,53.12,80.39,60.89,86.4,68.66c14.27,18.44,28.45,37,42.2,55.81.56.77,2.45.23,2.18-.82-4.35-16.49-9.26-33-17.08-48.19a109,109,0,0,0-14-21.23c-2-2.3-4.5-6-7.45-7.16a8.69,8.69,0,0,0-2.79-.3,14.18,14.18,0,0,1-9.12-3.3C79.43,42.8,77.48,44,78.55,44.83Z"/>
   <path class="cls-2" d="M51.17,10a24.13,24.13,0,0,0-6.53-2.54A8.15,8.15,0,0,0,38,8.87a7.52,7.52,0,0,0-2.22,7,13.41,13.41,0,0,0,3.7,6.65A10,10,0,0,0,42.75,25a12.89,12.89,0,0,0,5.1.66A7.64,7.64,0,0,0,51.63,25a6.52,6.52,0,0,0,2.1-2.21A11.82,11.82,0,0,0,56,15.14c-.32-2.7-2.38-5.3-5.08-5.55"/>
   <path class="cls-2" d="M87.36,51.58c-.88.15-1.86-.25-2.63.2a2.13,2.13,0,0,0-.8,2.08,3.52,3.52,0,0,0,1.8,2.84,2.4,2.4,0,0,0,3.08-.83,3.26,3.26,0,0,0,.34-1.22A3.44,3.44,0,0,0,89,53a1.57,1.57,0,0,0-1.28-1"/>
   <path class="cls-1" d="M202.14,55.63,184,83.25c-.21.32.05.56.39.55l39.8-.34c.26,0,.73-.31.5-.62a197.51,197.51,0,0,1-19.95-32c-.18-.35-.81-.11-.94.16l-2.7,5.74c-.25.53.76.57,1,.14.64-1.36,1.34-4.11,2.56-4,.61.07,3,5.62,3.36,6.35q3,5.5,6.46,10.8c2.15,3.34,5.47,6.76,7.16,10.34q1.75,1,.68,2.27l-4,0-7,.06-14.92.13-6,.05-4,0q-1.3-1.43.53-2.68c1.53-3.89,5.15-7.85,7.47-11.37L203,56c.35-.54-.58-.74-.85-.33Z"/>
   <path class="cls-1" d="M242,55.29c-6,9.25-11.72,18.72-17.75,28-.21.32,0,.55.38.54l39.8-.34c.26,0,.73-.31.5-.61a197.51,197.51,0,0,1-19.95-32c-.17-.35-.81-.11-.94.16l-2.7,5.74c-.25.53.76.56,1,.13.64-1.36,1.34-4.11,2.56-4,.62.07,3,5.62,3.36,6.35q3,5.5,6.46,10.8c2.15,3.34,5.47,6.76,7.16,10.34q1.74,1,.68,2.27l-4,0-7,.06-14.92.13-6,.05-4,0q-1.31-1.43.51-2.7c1.32-3.45,4.31-6.8,6.3-10,3.08-4.93,6.16-9.85,9.33-14.72.35-.54-.58-.73-.85-.32Z"/>
   <path class="cls-1" d="M282.41,55.63,264.27,83.25c-.21.32.05.55.38.55l39.8-.34c.26,0,.73-.31.5-.61a197.51,197.51,0,0,1-19.95-32c-.18-.35-.81-.11-.94.16l-2.7,5.74c-.25.53.76.56,1,.14.64-1.36,1.34-4.11,2.56-4,.62.07,3,5.62,3.36,6.35q3,5.5,6.46,10.8c2.15,3.34,5.47,6.76,7.16,10.34q1.75,1,.68,2.27l-4,0-7,.06-14.92.13-6,.05-4,0q-1.31-1.43.53-2.68c1.53-3.89,5.15-7.85,7.47-11.37l8.54-13c.35-.54-.58-.73-.85-.32Z"/>
   <path class="cls-1" d="M202.14,23.35,184,51c-.21.32,0,.53.38.53l39.8-.34c.25,0,.73-.3.5-.6a197.51,197.51,0,0,1-19.95-32c-.17-.34-.82-.1-.94.16l-2.7,5.74c-.25.52.77.54,1,.12.64-1.36,1.34-4.11,2.56-4,.62.07,3,5.62,3.36,6.35q3,5.5,6.46,10.8c2.15,3.34,5.47,6.76,7.16,10.34q1.74,1,.68,2.28l-4,0-7,.06-14.92.13-6,.05-4,0q-1.31-1.44.52-2.7c1.52-3.89,5.15-7.85,7.47-11.37l8.54-13c.35-.53-.58-.7-.84-.31Z"/>
   <path class="cls-1" d="M242.36,23.48,224.22,51.1c-.13.2.11.34.28.34l39.8-.34c.2,0,.9-.19.65-.52A197.06,197.06,0,0,1,245,18.69c-.16-.32-.83-.19-1,.11l-2.7,5.74c-.22.47.78.39.94.06.61-1.29,1.37-4.1,2.53-4,.36,0,2.3,4.41,2.54,4.85q3,5.53,6.35,10.86c2.48,3.93,6.07,7.73,8.13,11.86,1.13,2.26,1.76,1.72-1.16,2.38-2.38.53-5.51,0-8,.07l-13.93.12-8,.07-4,0q-1.46-1.54.43-2.89c1.45-3.86,5.22-7.94,7.47-11.37l8.54-13c.27-.42-.74-.37-.94-.06Z"/>
   <path class="cls-1" d="M282.37,23.5,264.23,51.12c-.13.19.11.3.27.29l39.8-.34c.18,0,.89-.18.66-.48A197.14,197.14,0,0,1,285,18.69c-.15-.3-.85-.13-1,.12l-2.7,5.74c-.2.43.79.32.93,0,.61-1.31,1.36-4.1,2.54-4,.57,0,3,5.65,3.36,6.35q2.63,4.75,5.52,9.34c2.48,3.93,6.07,7.73,8.13,11.86,1.14,2.28,1.77,1.74-1.15,2.42-2.37.55-5.52,0-8,.07l-13.93.12-8,.07-4,0q-1.48-1.57.42-2.94c1.44-3.86,5.22-7.95,7.47-11.37l8.54-13c.25-.38-.75-.3-.93,0Z"/>
   <path class="cls-1" d="M202.08,87.8l-18.14,27.62c-.19.29.25.38.42.38l39.8-.34c.22,0,.73-.27.51-.55A197,197,0,0,1,204.77,83c-.17-.34-.83-.23-1,.09l-2.7,5.74c-.23.49.78.45,1,.08.58-1.22,1.38-4.17,2.53-4,.39,0,2.43,4.65,2.54,4.86q3,5.53,6.35,10.86c2.45,3.88,6.2,7.74,8.13,11.86,1.06,2.27,1.68,1.73-1.29,2.35-2.41.51-5.49,0-8,.07L198.4,115l-8,.07-4,0q-1.23-1.57.57-2.85c1.55-3.89,5.18-7.89,7.47-11.37l8.54-13c.29-.44-.73-.42-1-.08Z"/>
   <path class="cls-1" d="M242.36,87.8l-18.14,27.62c-.19.29.25.39.42.38l39.8-.34c.22,0,.73-.27.51-.55A197.05,197.05,0,0,1,245,83c-.17-.35-.82-.23-1,.09l-2.7,5.74c-.23.49.78.46,1,.09.61-1.29,1.37-4.07,2.53-4,.33,0,2.3,4.41,2.54,4.86q3,5.53,6.35,10.86c2.45,3.88,6.2,7.74,8.13,11.86,1.06,2.27,1.68,1.72-1.3,2.35-2.42.5-5.49,0-8,.07l-13.93.12-8,.07-4,0q-1.23-1.57.57-2.85c1.55-3.9,5.18-7.89,7.47-11.37l8.54-13c.29-.44-.73-.42-1-.09Z"/>
   <path class="cls-1" d="M282.36,87.81l-18.14,27.62c-.13.2.11.36.29.36l39.8-.34c.21,0,.9-.2.65-.54A197.05,197.05,0,0,1,285,83c-.17-.33-.83-.21-1,.1l-2.7,5.74c-.23.48.78.42.95.07.6-1.28,1.37-4.1,2.53-4,.34,0,2.19,4.22,2.54,4.85q3,5.53,6.35,10.86c2.48,3.93,6.07,7.73,8.13,11.86,1.12,2.26,1.76,1.72-1.16,2.36-2.39.53-5.51,0-8,.07l-13.93.12-8,.07-4,0q-1.46-1.53.43-2.87c1.45-3.87,5.22-7.94,7.47-11.37l8.54-13c.28-.43-.74-.39-.95-.07Z"/>
   <path class="cls-1" d="M223.65,23.61c-1.87,1.6-3.33,4.1-3,6.64A3.13,3.13,0,0,0,224.81,33c1.9-.72,2.95-3.43,3.15-5.28.32-2.9-1.72-4-4.28-4.1-.41,0-1.05.6-.38.61,2.32,0,3.9,1.15,3.65,3.59a8.61,8.61,0,0,1-.85,2.74c-.59,1.23-.77,1.55-2.25,1.47s-1.82-.31-2.13-1.76a5.27,5.27,0,0,1,.12-2.36,7.81,7.81,0,0,1,2.62-4.08c.45-.38-.54-.44-.81-.2Z"/>
   <path class="cls-1" d="M210.64,19a114.13,114.13,0,0,1,8.12,14c1.64,3.39,2.67,7.27,5.82,9.58a.74.74,0,0,0,.93-.18,176.76,176.76,0,0,1,14.23-24.12c.26-.38-.74-.3-.94,0-2.69,3.83-5.25,7.73-7.62,11.76-1.13,1.92-4.66,11.12-6.78,11.36-1.47.17-5.79-11-6.57-12.46a117.69,117.69,0,0,0-6.25-10.32c-.19-.28-1.16,0-.93.4Z"/>
   <path class="cls-1" d="M263.41,23.76c-1.86,1.59-3.43,4.22-2.89,6.77a3,3,0,0,0,3.74,2.42c2-.54,3-2.84,3.4-4.72.62-3.08-1.24-4.45-4-4.51-.2,0-1.13.38-.66.39,2.21,0,4,1.07,3.81,3.48-.09,1.41-1.16,5.31-3.19,5.05-1.8-.22-2.28-2.58-2.1-4a7.87,7.87,0,0,1,2.83-4.95c.19-.17-.72-.07-.9.09Z"/>
   <path class="cls-1" d="M250.45,19a114.18,114.18,0,0,1,8.12,14c1.64,3.39,2.67,7.26,5.82,9.57a.79.79,0,0,0,1-.26A176.22,176.22,0,0,1,279.54,18.3c.24-.34-.75-.23-.93,0-2.69,3.83-5.25,7.73-7.62,11.76-1.22,2.06-4.39,10.39-6.33,11.1-1.76.65-5.7-9.68-6.63-11.46a116.9,116.9,0,0,0-6.65-11.07c-.17-.25-1.14.07-.94.38Z"/>
   <path class="cls-1" d="M207.55,38.16a8.72,8.72,0,0,0-6.87.2c-1.8.89-3.6,3.53-1.53,5.18,1.55,1.23,4.5.66,6.16,0a4.56,4.56,0,0,0,2.28-1.74c.84-1.34.29-2.68-.39-4-.16-.31-1.13,0-1,.27.7,1.33,1.28,2.8.19,4.09s-4.78,2.14-6.3,1-.66-3.46.78-4.34a6.82,6.82,0,0,1,5.87-.21c.27.1,1.18-.31.81-.45Z"/>
   <path class="cls-1" d="M204.63,24.65a113.18,113.18,0,0,1-8.76,14.59c-2.07,2.9-4.64,5.51-5.09,9.16,0,.25.27.33.46.32a176.71,176.71,0,0,1,27.87.69c.48,0,1-.64.35-.71-5-.51-9.93-.86-14.92-1q-2.87-.06-5.74,0c-2,0-5.18,1-6-.9-1.15-2.68,4.27-7.75,5.92-10.21a116.15,116.15,0,0,0,6.87-11.85c.25-.5-.76-.49-1-.1Z"/>
   <path class="cls-1" d="M206.88,70.65a8.37,8.37,0,0,0-7.2.43c-1.7,1-2.94,3.68-1,5.17,1.67,1.28,4.86.68,6.58-.18,2.49-1.25,2.53-3.46,1.34-5.7-.21-.39-1.17,0-.92.44,1,1.86,1.06,3.82-1.1,4.78-1.28.57-3.94,1-5.13.08-2.09-1.67.29-4,1.95-4.58a7.46,7.46,0,0,1,4.9.24c.43.16,1.17-.46.58-.68Z"/>
   <path class="cls-1" d="M204.07,57.24a113.56,113.56,0,0,1-8.76,14.58c-2.09,2.92-4.63,5.49-5.09,9.17,0,.25.27.35.47.34a176.72,176.72,0,0,1,27.87.68c.5.05,1-.67.34-.74-4.38-.45-8.77-.78-13.18-.91q-3.74-.11-7.48-.06c-2.14,0-5,.95-6-.89C191,77.18,197.65,70,199,67.88a117.48,117.48,0,0,0,6-10.51c.26-.51-.76-.53-1-.12Z"/>
   <path class="cls-1" d="M207.37,102.64a8.77,8.77,0,0,0-6.87.21c-1.78.87-3.63,3.5-1.54,5.14,1.54,1.21,4.5.63,6.16,0,2.7-1,3.2-3.2,1.89-5.67-.15-.28-1.11.07-1,.27.71,1.33,1.28,2.8.19,4.11s-4.75,2.14-6.3.95-.8-3.23.47-4.17c1.78-1.31,4.22-1.13,6.17-.4.25.09,1.15-.3.82-.42Z"/>
   <path class="cls-1" d="M204.43,89.25a115,115,0,0,1-7.83,13.27c-2.27,3.28-5.49,6.34-6,10.43,0,.09.26.07.28.06a176.77,176.77,0,0,1,27.89.69c.21,0,1.14-.35.65-.4-5-.51-9.93-.86-14.92-1q-3.74-.07-7.48,0c-1.9,0-3.49.8-4.32-1.08-1.24-2.81,4.27-8,5.84-10.36a115.84,115.84,0,0,0,6.87-11.85c.07-.13-.86-.08-1,.18Z"/>
   <path class="cls-1" d="M246.15,38.7a8.66,8.66,0,0,0-6.87.19c-1.81.91-3.58,3.57-1.52,5.22,1.55,1.24,4.49.7,6.17,0,2.71-1.07,3.18-3.27,1.87-5.74-.18-.35-1.16,0-1,.27.76,1.43,1.31,3-.06,4.32-1.16,1.09-4.24,1.69-5.73.91-2-1.05-1.07-3.57.47-4.49a6.91,6.91,0,0,1,5.87-.23c.31.11,1.22-.34.8-.49Z"/>
   <path class="cls-1" d="M243.23,25.2a113.56,113.56,0,0,1-8.76,14.58c-2.09,2.92-4.63,5.49-5.09,9.17,0,.25.27.35.47.34a176.72,176.72,0,0,1,27.87.68c.5.05,1-.67.34-.74-5-.51-9.93-.86-14.92-1q-2.87-.06-5.74,0c-2.14,0-5,.95-6-.89-1.26-2.25,5.41-9.39,6.8-11.54a117.41,117.41,0,0,0,6-10.51c.26-.51-.76-.52-1-.12Z"/>
   <path class="cls-1" d="M245.49,71.25a8.41,8.41,0,0,0-7.2.44c-1.68,1-3,3.63-1,5.1,1.67,1.26,4.85.65,6.58-.2,2.47-1.23,2.54-3.41,1.36-5.64-.18-.34-1.15,0-.92.42,1,1.86,1.12,3.85-1.08,4.84-1.36.61-4.31,1.11-5.41-.21-1.5-1.79.54-3.85,2.2-4.38a7.45,7.45,0,0,1,4.9.25c.37.14,1.17-.4.6-.61Z"/>
   <path class="cls-1" d="M242.68,57.83a114.23,114.23,0,0,1-7.83,13.27c-2.26,3.27-5.51,6.37-6,10.47,0,.25.28.3.45.29a176.69,176.69,0,0,1,27.87.69c.45,0,1-.6.36-.67-5-.51-9.93-.86-14.92-1q-2.87-.05-5.74,0c-2,0-5.18,1-6-.92-1.08-2.52,4.39-7.95,5.91-10.23a115.84,115.84,0,0,0,6.87-11.85c.24-.48-.77-.44-.95-.08Z"/>
   <path class="cls-1" d="M246,103.21a8.8,8.8,0,0,0-6.86.22c-1.78.87-3.63,3.49-1.54,5.12,1.55,1.2,4.5.61,6.15,0A4.58,4.58,0,0,0,245.9,107c1-1.37.45-2.72-.28-4.09-.14-.26-1.09.1-1,.27.64,1.2,1.22,2.54.42,3.82-1,1.57-4.88,2.52-6.52,1.24-1.3-1-.92-3,.18-4,1.74-1.59,4.41-1.4,6.46-.64.23.09,1.13-.29.82-.4Z"/>
   <path class="cls-1" d="M243.06,89.7A115,115,0,0,1,235.22,103c-2.28,3.3-5.51,6.34-6,10.46,0,.24.28.26.44.25a176.64,176.64,0,0,1,27.87.69c.42,0,1.05-.55.38-.62-5-.51-9.93-.86-14.92-1-2.26,0-10.31,1.24-12-.34s4.91-9,6.12-10.86A115.84,115.84,0,0,0,244,89.75c.23-.45-.78-.37-.94,0Z"/>
   <path class="cls-1" d="M286.53,38.84a8.45,8.45,0,0,0-7.14.41c-1.69,1-3,3.59-1.11,5.09,1.61,1.25,4.67.7,6.38-.07,2.57-1.14,2.87-3.33,1.63-5.67-.2-.37-1.18-.06-1,.27.75,1.42,1.33,3-.06,4.3s-4.65,1.81-6.06.66c-1.87-1.53-.23-3.8,1.49-4.51a7.21,7.21,0,0,1,5.28.11c.36.13,1.17-.38.6-.59Z"/>
   <path class="cls-1" d="M283.72,25.44a115,115,0,0,1-7.83,13.27c-2.28,3.3-5.51,6.34-6,10.46,0,.23.29.23.43.22a176.69,176.69,0,0,1,27.87.69c.39,0,1.06-.51.39-.58-5-.51-9.93-.86-14.92-1q-3.74-.07-7.48,0c-1.42,0-3.38.73-4.49-.38-1.72-1.72,4.88-9,6.12-10.88a115.84,115.84,0,0,0,6.87-11.85c.22-.43-.78-.33-.94,0Z"/>
   <path class="cls-1" d="M286.08,71.55a8.82,8.82,0,0,0-6.86.23c-1.78.86-3.64,3.48-1.55,5.11,1.55,1.2,4.49.6,6.15,0A4.59,4.59,0,0,0,286,75.3c1-1.37.45-2.72-.27-4.09-.13-.25-1.09.11-1,.27.64,1.2,1.22,2.55.42,3.82-1,1.56-4.86,2.54-6.52,1.24-1.3-1-.92-3,.18-4,1.74-1.6,4.41-1.4,6.46-.64.22.08,1.12-.28.82-.39Z"/>
   <path class="cls-1" d="M283.13,58.13A114.13,114.13,0,0,1,274.84,72c-2.17,3.09-5.05,5.87-5.53,9.75,0,.16.18.18.29.18a176.78,176.78,0,0,1,27.89.68c.27,0,1.17-.44.63-.49-4.38-.45-8.76-.78-13.16-.92-2.46-.07-13.42,1.41-14.48-1-.81-1.8,6.57-10.07,7.69-11.8a117.67,117.67,0,0,0,6-10.49c.12-.23-.85-.15-1,.15Z"/>
   <path class="cls-1" d="M286.34,103.29a8.41,8.41,0,0,0-7.2.44c-1.68,1-3,3.63-1,5.11,1.67,1.26,4.85.65,6.58-.2,2.47-1.23,2.54-3.41,1.35-5.64-.18-.34-1.15,0-.92.42,1,1.86,1.12,3.85-1.08,4.84-1.36.61-4.31,1.11-5.41-.21-1.5-1.79.54-3.85,2.2-4.38a7.45,7.45,0,0,1,4.9.25c.37.14,1.17-.4.6-.61Z"/>
   <path class="cls-1" d="M283.53,89.87a115.1,115.1,0,0,1-7.83,13.27c-2.26,3.27-5.51,6.38-6,10.47,0,.25.27.31.45.3a176.69,176.69,0,0,1,27.87.69c.46,0,1-.61.36-.68-5-.51-9.93-.86-14.92-1q-2.87-.05-5.74,0c-2,0-5.18,1-6-.91-1.13-2.62,4.29-7.79,5.91-10.23A115.84,115.84,0,0,0,284.48,90c.25-.48-.77-.45-1-.09Z"/>
   <path class="cls-1" d="M223.6,58.35c-1.87,1.6-3.42,4.23-2.88,6.79a3,3,0,0,0,4.07,2.36c1.93-.71,3-3.33,3.17-5.21.3-2.85-1.63-3.93-4.14-4-.24,0-1.15.43-.64.44,2.11,0,3.77.85,3.82,3.14,0,1.67-1.35,6.33-4,5-1.61-.81-1.49-3.26-1.09-4.67a8.05,8.05,0,0,1,2.61-3.92c.23-.2-.72-.12-.91.05Z"/>
   <path class="cls-1" d="M210.65,53.66a113.25,113.25,0,0,1,8.49,14.77c1.53,3.24,2.53,6.7,5.52,8.89a.66.66,0,0,0,.87-.23,176.05,176.05,0,0,1,14.17-24c.36-.52-.58-.63-.83-.27-2.37,3.38-4.65,6.81-6.79,10.34q-1.81,3-3.5,6.07c-.56,1-2.27,5.83-3.24,6.22-2.63,1-5.72-8.39-6.76-10.41a116.12,116.12,0,0,0-7-11.77c-.24-.36-1.2,0-.92.43Z"/>
   <path class="cls-1" d="M263.45,58.21c-1.87,1.6-3.33,4.11-3,6.65a3.14,3.14,0,0,0,4.13,2.74c1.9-.72,2.95-3.43,3.15-5.29.32-2.91-1.72-4.06-4.29-4.11-.43,0-1,.63-.37.64,2.32,0,3.89,1.17,3.65,3.58a8.42,8.42,0,0,1-.85,2.73c-.54,1.12-.77,1.52-2.1,1.59s-2-.46-2.28-1.87a5.26,5.26,0,0,1,.12-2.36,7.81,7.81,0,0,1,2.62-4.07c.45-.39-.53-.47-.82-.22Z"/>
   <path class="cls-1" d="M250.41,53.58a115,115,0,0,1,7.78,13.3c1.77,3.58,2.85,7.88,6.19,10.33a.91.91,0,0,0,1-.26,176.76,176.76,0,0,1,14.23-24.12c.08-.12-.82-.08-1,.17-2.69,3.83-5.25,7.73-7.62,11.76q-1.78,3-3.43,6.11c-.62,1.16-1.63,4.44-2.86,4.93-1.71.68-5.44-9.14-6.24-10.71a115.84,115.84,0,0,0-7-11.77c-.17-.26-1.1.13-1,.27Z"/>
   <path class="cls-1" d="M223.6,90.55c-1.87,1.6-3.42,4.22-2.89,6.77a3,3,0,0,0,3.75,2.44c2.15-.57,3.27-3.28,3.49-5.29.3-2.84-1.63-3.91-4.14-4-.22,0-1.14.4-.65.41,2.4,0,4,1.2,3.76,3.74-.15,1.42-1.17,5-3.14,4.77s-2.33-3-2-4.51a8,8,0,0,1,2.74-4.44c.21-.18-.72-.09-.91.07Z"/>
   <path class="cls-1" d="M210.64,85.83a114.18,114.18,0,0,1,8.12,14c1.64,3.39,2.67,7.27,5.82,9.57a.76.76,0,0,0,1-.26,176.19,176.19,0,0,1,14.19-24.05c.25-.35-.75-.26-.93,0-2.69,3.83-5.25,7.73-7.62,11.76q-1.78,3-3.43,6.11c-.52,1-1.83,4.6-2.9,5-1.76.65-5.7-9.68-6.63-11.45a116.93,116.93,0,0,0-6.65-11.07c-.17-.26-1.15.06-.93.38Z"/>
   <path class="cls-1" d="M263.53,90.28a8,8,0,0,0-3.08,6.51c.2,2.06,2,3.9,4.18,3.07,2-.77,3.06-3.7,3.15-5.65.14-2.86-2-3.83-4.45-3.88-.58,0-.76.74-.08.75,2.48.05,3.82,1.35,3.45,3.81-.22,1.43-1.56,5.48-4,4.06-3.09-1.8-.33-6.66,1.48-8.2.52-.44-.28-.81-.67-.47Z"/>
   <path class="cls-1" d="M250.41,85.77a115,115,0,0,1,7.78,13.3c1.77,3.58,2.85,7.87,6.18,10.32a1,1,0,0,0,1-.26A176.76,176.76,0,0,1,279.57,85c.06-.08-.82-.06-1,.18C275.9,89,273.34,92.93,271,97q-1.78,3-3.43,6.11c-.62,1.16-1.63,4.44-2.86,4.93-1.71.68-5.44-9.15-6.24-10.72a115.84,115.84,0,0,0-7-11.77c-.16-.24-1.07.16-1,.27Z"/>
   <path class="cls-3" d="M373,19.61c-.71-3.55-1.3-7.64,1-10.43,2.51-3,7.1-2.93,11-2.58,2,.18,4.27.47,5.6,2S392,12,392,13.85c.57,29.53-.74,59.06-2.06,88.57a18.26,18.26,0,0,1-.66,4.85,9.11,9.11,0,0,1-17,.92c-1.09-2.43-1.07-5.19-1-7.85q.64-40.12,1.74-80.23"/>
   <path class="cls-4" d="M362.56,24.51l36.66-.6c2.09,0,2.82-2.72.33-2.68l-36.66.6c-2.09,0-2.82,2.72-.33,2.68Z"/>
   <path class="cls-4" d="M362.56,27.26l36.66-.6c2.09,0,2.82-2.72.33-2.68l-36.66.6c-2.09,0-2.82,2.72-.33,2.68Z"/>
   <path class="cls-4" d="M362.56,30.24l36.66-.6c2.09,0,2.82-2.72.33-2.68l-36.66.6c-2.09,0-2.82,2.72-.33,2.68Z"/>
   <path class="cls-4" d="M362.56,33l36.66-.6c2.09,0,2.82-2.72.33-2.68l-36.66.6c-2.09,0-2.82,2.72-.33,2.68Z"/>
   <path class="cls-4" d="M362.56,35.62l36.66-.6c2.09,0,2.82-2.72.33-2.68l-36.66.6c-2.09,0-2.82,2.72-.33,2.68Z"/>
   <path class="cls-4" d="M362.56,38.37l36.66-.6c2.09,0,2.82-2.72.33-2.68l-36.66.6c-2.09,0-2.82,2.72-.33,2.68Z"/>
   <path class="cls-4" d="M362.56,41.35l36.66-.6c2.09,0,2.82-2.72.33-2.68l-36.66.6c-2.09,0-2.82,2.72-.33,2.68Z"/>
   <path class="cls-4" d="M362.56,44.1l36.66-.6c2.09,0,2.82-2.72.33-2.68l-36.66.6c-2.09,0-2.82,2.72-.33,2.68Z"/>
   <path class="cls-4" d="M362.56,46.73l36.66-.6c2.09,0,2.82-2.72.33-2.68l-36.66.6c-2.09,0-2.82,2.72-.33,2.68Z"/>
   <path class="cls-4" d="M362.56,49.48l36.66-.6c2.09,0,2.82-2.72.33-2.68l-36.66.6c-2.09,0-2.82,2.72-.33,2.68Z"/>
   <path class="cls-4" d="M362.56,52.46l36.66-.6c2.09,0,2.82-2.72.33-2.68l-36.66.6c-2.09,0-2.82,2.72-.33,2.68Z"/>
   <path class="cls-4" d="M362.56,55.21l36.66-.6c2.09,0,2.82-2.72.33-2.68l-36.66.6c-2.09,0-2.82,2.72-.33,2.68Z"/>
   <path class="cls-4" d="M362.56,57.84l36.66-.6c2.09,0,2.82-2.72.33-2.68l-36.66.6c-2.09,0-2.82,2.72-.33,2.68Z"/>
   <path class="cls-4" d="M362.56,60.59l36.66-.6c2.09,0,2.82-2.72.33-2.68l-36.66.6c-2.09,0-2.82,2.72-.33,2.68Z"/>
   <path class="cls-4" d="M362.56,63.57l36.66-.6c2.09,0,2.82-2.72.33-2.68l-36.66.6c-2.09,0-2.82,2.72-.33,2.68Z"/>
   <path class="cls-4" d="M362.56,66.32l36.66-.6c2.09,0,2.82-2.72.33-2.68l-36.66.6c-2.09,0-2.82,2.72-.33,2.68Z"/>
   <path class="cls-4" d="M362.56,69.07l36.66-.6c2.09,0,2.82-2.72.33-2.68l-36.66.6c-2.09,0-2.82,2.72-.33,2.68Z"/>
   <path class="cls-4" d="M362.56,71.82l36.66-.6c2.09,0,2.82-2.72.33-2.68l-36.66.6c-2.09,0-2.82,2.72-.33,2.68Z"/>
   <path class="cls-4" d="M362.56,74.81l36.66-.6c2.09,0,2.82-2.72.33-2.68l-36.66.6c-2.09,0-2.82,2.72-.33,2.68Z"/>
   <path class="cls-4" d="M362.56,77.55l36.66-.6c2.09,0,2.82-2.72.33-2.68l-36.66.6c-2.09,0-2.82,2.72-.33,2.68Z"/>
   <path class="cls-4" d="M362.56,80.18l36.66-.6c2.09,0,2.82-2.72.33-2.68l-36.66.6c-2.09,0-2.82,2.72-.33,2.68Z"/>
   <path class="cls-4" d="M362.56,82.93l36.66-.6c2.09,0,2.82-2.72.33-2.68l-36.66.6c-2.09,0-2.82,2.72-.33,2.68Z"/>
   <path class="cls-4" d="M362.56,85.92l36.66-.6c2.09,0,2.82-2.72.33-2.68l-36.66.6c-2.09,0-2.82,2.72-.33,2.68Z"/>
   <path class="cls-4" d="M362.56,88.66l36.66-.6c2.09,0,2.82-2.72.33-2.68l-36.66.6c-2.09,0-2.82,2.72-.33,2.68Z"/>
   <path class="cls-4" d="M362.56,91.53l36.66-.6c2.09,0,2.82-2.72.33-2.68l-36.66.6c-2.09,0-2.82,2.72-.33,2.68Z"/>
   <path class="cls-4" d="M362.56,94.16l36.66-.6c2.09,0,2.82-2.72.33-2.68l-36.66.6c-2.09,0-2.82,2.72-.33,2.68Z"/>
   <path class="cls-4" d="M362.56,96.91l36.66-.6c2.09,0,2.82-2.72.33-2.68l-36.66.6c-2.09,0-2.82,2.72-.33,2.68Z"/>
   <path class="cls-4" d="M362.56,99.89l36.66-.6c2.09,0,2.82-2.72.33-2.68l-36.66.6c-2.09,0-2.82,2.72-.33,2.68Z"/>
   <path class="cls-4" d="M362.56,102.64l36.66-.6c2.09,0,2.82-2.72.33-2.68l-36.66.6c-2.09,0-2.82,2.72-.33,2.68Z"/>
   <path class="cls-1" d="M435.9,7.4c-3.48,1.84-3.2,5.9-3.16,9.84l.4,38.1c0,3.09.07,6.19.3,9.27.21,2.71.08,5.12.13,7.84.34,18.72.5,41,2.2,56.91,1.44-7.92,1.11-23.35,1.11-32.74,0-6.79.38-10.46.5-13.74.83-24.33,1.32-39.06,1.12-64.64,0-4-.4-7.58-2.59-10.88"/>
   <path class="cls-2" d="M435.24,11.52c-1.08,3.17-.87,6.62-.64,10L435,28a.91.91,0,0,0,.13.49.62.62,0,0,0,.93-.06,1.77,1.77,0,0,0,.33-1,56.41,56.41,0,0,0-.67-16.93"/>
   <path class="cls-1" d="M447.45,28.54C444.76,30,445,33.11,445,36.16l.31,29.52c0,2.4.05,4.8.23,7.19.16,2.1.06,4,.1,6.07.26,14.51.38,31.8,1.71,44.09,1.11-6.14.86-18.09.86-25.37,0-5.26.3-8.1.38-10.64.64-18.85,1-30.26.87-50.09,0-3.07-.31-5.87-2-8.43"/>
   <path class="cls-2" d="M446.95,31.73c-.83,2.46-.67,5.13-.5,7.72l.34,5a.7.7,0,0,0,.1.38.48.48,0,0,0,.72,0,1.37,1.37,0,0,0,.25-.77,43.71,43.71,0,0,0-.52-13.12"/>
   <path class="cls-5" d="M434.5,15.12c-5.2-.25-8.92,1.11-11.14,6a25.35,25.35,0,0,0-2.15,12c.34,5.24,3.06,9.89,3.18,15.14,0,.1.46,0,.46-.12-.13-5.25-2.86-9.91-3.18-15.14-.48-7.8,2-18.21,12.54-17.71.11,0,.53-.19.29-.21Z"/>
   <path class="cls-5" d="M434.94,12.38c-8.28-.72-13.34,5.8-15.52,13.14-3.76,12.65-.88,26.22,1.26,38.88,2.48,14.7,6.28,29.93,5.72,44.91-.32,8.45-3.55,17.82-14.21,15.65-7.23-1.47-12.45-7.47-14.34-14.37-.06-.22-.52-.09-.46.12,2.33,8.52,10.81,16.74,20.31,14.71,10.25-2.19,9.52-16.08,9-24-.94-15-4.48-29.95-6.86-44.79-1.22-7.61-2.25-15.35-1.5-23.07.88-9.12,4.83-21.9,16.42-20.89.23,0,.47-.31.16-.34Z"/>
   <path class="cls-6" d="M214.47,243.72c-5.69-1.67-13.92,5-7.41,9.87,5.95,4.49,14.06-1.15,16.4-6.86,1.43-3.49,2.45-8.12-.55-11.07-2.66-2.62-7-2.87-10.54-2.43-7.56.95-15.62,5.88-17.38,13.74-4.07,18.25,22.75,23.28,32.87,12.16,13.55-14.89-4.16-34.49-20.8-34-19.33.59-27.9,25.1-18.82,40.38,4.43,7.45,15.24,9,23.21,8.75,9.08-.29,17.63-6,24.36-11.74,8.36-7.08,9.7-15.6,7-25.91s-7.13-17.68-17.67-21.19c-8.78-2.92-20.42-5.19-29.32-1.64-8.69,3.46-15.65,11.22-19.67,19.5-4.73,9.73-5.31,21.35-.59,31.22s14,16,24.41,18.88c12.73,3.51,26.3,2.3,39.33,1.87l45.79-1.53c2-.07,5.85-3.14,2.17-3l-47.78,1.6c-14.4.48-29.88,1.93-43.26-4.52a32.41,32.41,0,0,1-18-34.37c2.13-13.77,13.29-29.8,28.65-28.06,6.65.76,13.8,1.75,19.65,5.2,7.13,4.2,9.46,11.62,11.27,19.25,1.73,7.26,1.37,14.25-4.08,19.88-5,5.12-13.64,11.39-20.87,11.6-6,.17-14.64-1.27-18.44-6.37-4.29-5.77-4.79-15.11-3.29-21.84,1.45-6.5,6-13.75,13.14-14.84,7-1.06,15,3.89,19.1,9.25,4.19,5.54,5.1,13.06,1.37,19.1-4.48,7.26-17,7.1-22,.27-4.62-6.25-2.38-15.4,4.29-19.15,5.11-2.88,13.21-2.05,12.28,5.42a16.61,16.61,0,0,1-1.23,4.33q-1.27,4.47-6.71,3.2a2.8,2.8,0,0,1-.17-4c1.68.49,6.43-2,3.39-2.9Z"/>
   <path class="cls-6" d="M278.53,265q3.22,9.67,6.52,19.31a.55.55,0,0,0,.68.47l11.87-.34a2.07,2.07,0,0,0,1-.2c.93-.55.48-2-.07-2.9A110.32,110.32,0,0,1,290.37,264a2.75,2.75,0,0,0-.81-1.34,2.71,2.71,0,0,0-1.77-.32q-5.91.3-11.8.87a3.94,3.94,0,0,0,2.1,2.76"/>
   <path class="cls-6" d="M279.14,263.81a389.09,389.09,0,0,0-48.71-.21c-2,.12-2.84,2.76-.34,2.62a381.51,381.51,0,0,1,47.77.2c1.75.12,3.75-2.44,1.28-2.6Z"/>
   <path class="cls-6" d="M280.72,282a59.36,59.36,0,0,1-3.78-9.17c-.17-.55-2.49.11-2.33.62a59.36,59.36,0,0,0,3.78,9.17c.3.58,2.52-.24,2.33-.62Z"/>
   <path class="cls-6" d="M272.15,282.42a15.6,15.6,0,0,1-.25-5c.13-1.21-2.24-.91-2.36.17a17.13,17.13,0,0,0,.28,5.47c.24,1.1,2.57.5,2.33-.62Z"/>
   <path class="cls-6" d="M263.74,282.79l.46-5.61c0-.35-2.27-.09-2.33.62l-.46,5.61c0,.35,2.27.09,2.33-.62Z"/>
   <path class="cls-6" d="M255,283.2V272.76c0-.37-2.33,0-2.33.62v10.44c0,.37,2.33,0,2.33-.62Z"/>
   <path class="cls-6" d="M246.57,283v-5.22c0-1-2.34-.59-2.34.26v5.22c0,1,2.34.59,2.34-.26Z"/>
   <path class="cls-6" d="M238.15,283.6a10.51,10.51,0,0,1,.82-5.47c.21-.49-2-.27-2.3.37a11,11,0,0,0-.84,5.72c.06.54,2.41.07,2.33-.62Z"/>
   <path class="cls-6" d="M227.55,283.36a23.83,23.83,0,0,1,4.5-10.22c.68-.9-1.67-.82-2.19-.14a24.81,24.81,0,0,0-4.65,10.6c-.18,1,2.18.65,2.34-.24Z"/>
   <path class="cls-1" d="M357.29,181.52c2.5-.18,3.77-.36,6.27-.54a2.52,2.52,0,0,1,1.66.26c1.44,1-.42,3.13-.59,4.9-.23,2.48,3,3.66,5.49,3.64s5.58-.07,6.72,2.13a5.3,5.3,0,0,1,.28,3.2c-1.26,8.56-7.71,16.57-5.69,25a62.87,62.87,0,0,0,2.24,6.07c2.38,6.75,1.4,14.16.39,21.24-.24,1.69-.61,3.59-2,4.53a6.1,6.1,0,0,1-2.94.74L351.42,254a1.83,1.83,0,0,1-2.33-1.73c-2.45-8.45-4.6-17.57-1.8-25.91,1.66-4.93,5-9.69,4.14-14.81-.5-2.85-2.27-5.29-3.78-7.76a15.89,15.89,0,0,1-2.73-7.46c-.11-2.68,1.17-5.56,3.62-6.64,1.33-.59,2.84-.6,4.22-1.06a6.86,6.86,0,0,0,4.51-6.82"/>
   <path class="cls-1" d="M360.54,252.3q-.07,20.44,1.79,40.8c0,.45,2.73,0,2.67-.72q-1.86-20.36-1.79-40.8c0-.38-2.67,0-2.67.72Z"/>
   <path class="cls-1" d="M363.42,289.35c-3.19,1.05-4.58.86-7.77,1.91a6.22,6.22,0,0,0-3,1.63,2.14,2.14,0,0,0,.12,3,3.11,3.11,0,0,0,1.76.37l14.82.11c1.83,0,4-.17,4.9-1.76,1.22-2.17-1.26-4.75-3.71-5.15s-5,.36-7.44-.15"/>
   <path class="cls-1" d="M44.06,340.72q36.41-.61,72.82-.7c5.61,0,12,.3,15.66,4.52,2.13,2.43,2.94,5.75,3.27,9a38.45,38.45,0,0,1-3.52,20.3,6.28,6.28,0,0,1-2.22,2.87c-1.31.78-3,.59-4.42,1.05s-2.73,2.32-1.68,3.43c-3.92.86-8.5,1.57-11.52-1.07-.74-.65-1.34-1.47-2.14-2a18.07,18.07,0,0,0-2.88-1.35c-4-1.9-6-6.39-8.46-10.13a7.6,7.6,0,0,0-2.8-2.85,8.54,8.54,0,0,0-3.8-.58H74.85c-1.32,0-2.78.06-3.72,1s-1,2.6-.94,4l1.29,26.18,48.75-.38c2.84,0,5.76,0,8.42,1,4.15,1.55,7.13,5.4,8.62,9.57s1.68,8.69,1.7,13.13L21.18,418.76a5.45,5.45,0,0,1-3.14-.6,4.54,4.54,0,0,1-1.57-2.38,13.67,13.67,0,0,1,3.26-13.88c2-2,4.63-3.35,6-5.81a13.7,13.7,0,0,0,1.22-5.15L30,360.6c-1.21,1.28-3.54.59-4.51-.88s-1-3.35-.94-5.11l.14-8.23a2.65,2.65,0,0,1,.45-1.74,2.65,2.65,0,0,1,1.57-.68l18.37-3.48"/>
   <path class="cls-2" d="M15.84,412.06q60.67-2.11,121.38-.55c.72,0,1.94-1,.7-1.07q-60.68-1.56-121.38.55c-.7,0-1.93,1.11-.7,1.07Z"/>
   <path class="cls-1" d="M117.69,381.35v8.54c0,.78,1.83.4,1.83-.22v-8.54c0-.78-1.83-.4-1.83.22Z"/>
   <path class="cls-2" d="M36.55,363.52l20.69-.88a2.55,2.55,0,0,1,2.06.52,2.44,2.44,0,0,1,.46,1.52,34.29,34.29,0,0,1,0,3.92,2.46,2.46,0,0,1-.77,2,2.53,2.53,0,0,1-1.52.27l-16.64-.53A5.11,5.11,0,0,1,38.7,370c-1.91-1-1.86-3.67-1.53-5.78"/>
   <path class="cls-2" d="M116.78,340.91c-.19,7.35-.47,14.69-.66,22,0,.31,1.82.07,1.83-.49.19-7.35.47-14.69.66-22,0-.31-1.82-.07-1.83.49Z"/>
   <path class="cls-2" d="M48.32,387.14a2.61,2.61,0,1,0-.65,5,3.45,3.45,0,0,0,1.64-.74,3,3,0,0,0,1.26-3c-.34-1.12-2-1.67-2.74-.73"/>
   <path class="cls-2" d="M56.09,387.49a2.29,2.29,0,1,0,1.33-.4"/>
   <path class="cls-2" d="M39.87,387.36a8.89,8.89,0,0,0-2.11,2.89c-.28.61-.4,1.49.18,1.81s1.36-.41,1.5-1.13a5.27,5.27,0,0,1,.46-2.12"/>
   <path class="cls-2" d="M37.54,375.14v3.32c0,.82,1.84.46,1.84-.2v-3.32c0-.82-1.84-.46-1.84.2Z"/>
   <path class="cls-2" d="M44.66,375.76V380c0,.52,1.83.19,1.83-.49v-4.27c0-.52-1.83-.19-1.83.49Z"/>
   <path class="cls-2" d="M50.35,374.34v3.79c0,.36,1.83.08,1.83-.49v-3.79c0-.36-1.83-.08-1.83.49Z"/>
   <path class="cls-2" d="M54.62,375.28V380c0,.39,1.83.1,1.83-.49v-4.74c0-.39-1.83-.1-1.83.49Z"/>
   <path class="cls-1" d="M196.48,338.81l6.93.1,3,0a2.46,2.46,0,0,1,1.36,3.22c.59,2.85.22,6.1.59,9,1,7.77,3,15.34,4.6,23,3.29,15.72,3.63,32.46,3.59,48.49a12.62,12.62,0,0,1-.08,2.91q-5.62,3.61-6.73-.62c-1-1.76-1-3.93-1.11-5.9-.27-3.92-.44-7.86-.73-11.78-.64-8.5-1.51-17-2.49-25.45s-2.09-16.93-3.21-25.38c-.85-6.45-1.38-13-5-18.56-.31-.48-1.83.05-1.45.63,4.83,7.41,4.82,17.65,5.93,26.15,1.19,9.11,2.32,18.22,3.26,27.35s1.53,18.29,2.15,27.45c.28,4.09,1.34,10.4,7,9.73,5.2-.62,4.12-6.72,4-10.46-.31-8.93-.47-17.88-1-26.8-1.06-18.06-8.52-35.36-7.55-53.55,0-.27-.25-.39-.49-.39l-11.88-.17c-.64,0-1.65.94-.59,1Z"/>
   <path class="cls-1" d="M219.21,387a165.21,165.21,0,0,1,4.28-25.46Q225,355.7,226.87,350c1.4-4.19,2.08-10.85,7.67-10.47,2.06.14,5.18,1.28,6.07,3,1.06,2.12-.33,4.51-.94,6.72q-1.62,5.91-3,11.89a249.78,249.78,0,0,0-4.25,25.07q-1.33,11.28-1.62,22.65-.17,6.59,0,13.19c0,1.45.71,4.46,0,5.85-1.22,2.37-5.21,1.36-7.24,1.29s-3.72.55-4.68-2c-.59-1.54-.12-4.18-.16-5.89q-.15-6.87-.16-13.75,0-14.68.58-29.35c0-.58-1.54-.24-1.56.22q-1,25.57-.21,51.15c0,.18.36.19.47.19,3.45.12,8,1.1,11.39.34a3.77,3.77,0,0,0,2.65-1.37c1.31-1.79.56-5.21.51-7.16q-.18-6.59,0-13.19a249.47,249.47,0,0,1,7.38-53.94q.8-3.2,1.69-6.38c.41-1.48,1.79-4,1.53-5.53-.36-2-1.65-2-3.58-2.65-2.87-1-6.76-3-9.5-.56-2.11,1.84-2.83,5.65-3.73,8.18Q224,353.7,222.39,360a164.81,164.81,0,0,0-4.75,27.25c-.05.56,1.52.25,1.56-.22Z"/>
   <path class="cls-1" d="M208,342.4c4.44.23.57,3.3.29,4.3a.44.44,0,0,0,.19.4c1.65,1.31,2.05,2.6,1.52,5-.25,1.15-1.46,1.43-.37,2.91.77,1,1.94.9,2.82,1.86,2.41,2.63-1.23,4.44-1.09,6.7a.49.49,0,0,0,.35.48c2.64,1,3.79,3.7,1.42,6.8a.5.5,0,0,0,.39.83c2.17.27.44,5.33,1.42,6.91.12.2.32.1.45.23,1.33,1.36,3,1.12,1.75,3.77-.8,1.76-2.31,2.22-1.34,4.2,0,.09.33.29.33.33a1.4,1.4,0,0,1,1.3,1.1,4.33,4.33,0,0,1-1.47,5.55c-.41,0-.92.32-.85.8a3,3,0,0,0,1.22,2.33c.53.47,1.79.3,2.32,1q.2,3.13-1.85,4.36a.69.69,0,0,0-.22.18c-.07.6-.49,1.15-.39,1.78.54,3.46,3.14.29,1.83,6-.18.79-.86,1.43-1,2.25-.29,1.36,0,1.23.15,2.35l.8.42q1.54,2.41-.09,3.71c-.24.61-1,1-1.1,1.76s.45,1.28.52,1.73l.93.47-1.06,2.71c-.08,0-.16-5.68-.17-5.94-.36-12.8-.89-25.32-3.07-38-1.17-6.75-2.49-13.49-3.33-20.29s-.32-13.53-1.45-20.16c-.13-.74-1.7-.34-1.57.42,1.12,6.61.63,13.48,1.45,20.16.87,7.12,2.28,14.15,3.48,21.22,2.53,14.81,2.69,29.67,3.12,44.65,0,.49.54.61.94.5,3.52-1,5.48-2.52,3.76-5.87-.2-.39-1.06-.19-1.21-.5-1.53-3.19,1.29-2.24,1.41-4.15.13-2.22-1.21-2.79-1.44-4.78-.26-2.18,1.7-3.75,1-6-.78-2.4-2.72-1.12-1.32-4.36.19-.44.87-.35,1.11-1,.47-1.33,1.12-3.56.1-4.84s-2.86.15-3.26-2.56l-.85.8c4.32-.34,3.47-5,2.85-8.08,0-.16-.32-.25-.33-.33q-1.8-.41-.29-2.68a7.55,7.55,0,0,0,.76-1c.26-1.15.67-3-.14-4.09-1.4-1.91-2.53.47-1.72-3.37.28-1.35,1.26-1.84.33-3.31-.6-.95-1.62-1.11-1.94-1.94-.64-1.69,1.53-3.94,0-6-.81-1-1.45-.83-1.4-1.95,0-.86,1.34-1.84,1.31-3.14,0-1.87-1.18-2.84-2.06-4.17l-1-.23,0-2.39c.08-.38,1-.8,1.07-1.34a5.28,5.28,0,0,0-.77-3.77c-.26-.39-1.38-.33-1.43-.56-.55-2.45.14.44.76-1.28.37-1,1.16-1.06.66-2.45-.57-1.57-2.64-1.64-4-1.71-.78,0-1.6,1.11-.54,1.17Z"/>
   <path class="cls-1" d="M228.72,341.74c-1.46.07-3.61.18-4.29,1.82-.91,2.2,1.39,1.87,1.47,3.19,0,.43-1.5,1.08-2,2.06-1.45,2.82,2.14,4.25,1.1,6.43-.13.26-1.14,0-1.36.4a11.82,11.82,0,0,0-1.55,2.5c-.92,2.51.34,2.74.78,4.74.53,2.4.38-.6-.43,1,0,.06-.68.69-.77.79-1.59,2-.69,5.6.65,7.38l.78-1c-3.57.43-4.19,2-3.31,5,1.13,3.78.21,1.38-1.42,3.08a4.41,4.41,0,0,0-.71,3.32c.31,1.74.33.37,1,2.07l.68,2.27q-.43.15-.84.35a10.91,10.91,0,0,0-1,3.43,6.67,6.67,0,0,0,.23,3.17c-.25-.49,1.12,1.52,1.1,1.3.16,1.55,3-2.06-.54,1.47-.29.28-.76,0-1.13.47a4.1,4.1,0,0,0-.88,2.57c-.09,2.09.88,2,1.46,3.61,1,2.87-1.37,3.45-1.36,5.8s2.06,3.38,1.15,6c-.43,1.24-1.44,1.27-1.51,3-.1,2.27,2,1.07.81,4.75,0,.1-.44.15-.51.31-1.31,3.23-.55,4.67,3.39,5.78.42.12,1.23,0,1.25-.6.47-14.71.64-29.33,3.13-43.87,1.16-6.76,2.54-13.48,3.48-20.28,1-7.29.51-14.79,1.77-22,.14-.82-1.47-.63-1.59.1-1.2,6.92-.71,14.09-1.64,21.08s-2.39,14.14-3.6,21.2c-2.5,14.54-2.66,29.17-3.13,43.87l1.25-.6a4,4,0,0,1-2.33-4.25c0,.11,1.12-.41,1.16-.67a4.63,4.63,0,0,0-.14-2.76,2.24,2.24,0,0,0-1-1.06l.87-3.53c0-.11.37-.21.4-.39a5,5,0,0,0-.47-3.36c-.76-2-1.24-2.75-.32-4.77.6-1.33,1.54-.65,1.66-2.33.05-.7-.42-1.29-.55-1.8-.76-3-3.21-2.86-.87-5.06.27-.25,1,0,1.27-.3a3.46,3.46,0,0,0,1.25-2.51c0-.3-.27-.52-.53-.54-5-.41-.61-6-.39-6.8.17-.58.78,0,.68-1.25-.16-2.12-3.2-3.65-1.61-5.85.65-.91,1.65-.67,2.12-1.52s.51-.7.56-1.28c.13-1.42-4.25-4.79.52-5.36.39,0,1.16-.46.78-1-2.13-2.82-1.47-5.67,1.3-6.73a.72.72,0,0,0,.44-.54c.1-1.51-.27,0-.59-1.48-1.13-5-2.57-3.18.81-6.18.57-.5,1.35-.52,1.72-1.38.53-1.22-.07-1.57-.6-2.55-1.63-3.06-2.15-2.07.27-4.15.26-.22,1-.53,1.25-.74a.59.59,0,0,0,.26-.59c0,.1-.75-1.33-.73-1.21a3.4,3.4,0,0,0-.5-.31q-2.55-.3,1.22-2.5c.91,0,1.19-1.26.12-1.2Z"/>
   <path class="cls-1" d="M214.93,418.24l8.51.36a.82.82,0,0,1,.43.1c.3.2.21.66.09,1a23.71,23.71,0,0,0-1.08,10.68,1.79,1.79,0,0,1-.09,1.13c-.34.58-1.18.56-1.85.46l-4.14-.61a1.5,1.5,0,0,1-1.57-1.54q-.65-3.51-1-7.06a10.15,10.15,0,0,1,.31-4.81"/>
   <path class="cls-7" d="M217.94,419.59v6.23c0,.28,1.57,0,1.57-.42v-6.23c0-.28-1.57,0-1.57.42Z"/>
   <path class="cls-7" d="M219.28,423.73c.67.07,1,.82,1.21,1.46,1.25,4.28,1.07,8.83.88,13.29a2.16,2.16,0,0,1-.35,1.33,2,2,0,0,1-1.2.56c-1.79.34-4,0-4.78-1.63a4.87,4.87,0,0,1-.13-2.71q.77-5.25,2-10.41a3.15,3.15,0,0,1,.73-1.59,1.11,1.11,0,0,1,1.58,0"/>
   <path class="cls-2" d="M216.69,435.34a1.61,1.61,0,0,0-.48,2.17,2.67,2.67,0,0,0,2.08,1.18,2,2,0,0,0,1.48-.36,1.65,1.65,0,0,0-.11-2.34,3.1,3.1,0,0,0-2.48-.65"/>
   <path class="cls-1" d="M364.47,344.95c10-1,20.54-2,29.7,2.15,1.19.53,2.46,1.3,2.74,2.57a5.68,5.68,0,0,1-.69,3.13,12,12,0,0,0,3.33,13c.68.58,1.5,1.2,1.56,2.09a3,3,0,0,1-.59,1.67,49.67,49.67,0,0,0-4.85,9c-3,8.35-.41,17.49,1,26.23a101,101,0,0,1,1.12,22.8,1.23,1.23,0,0,1-1.65,1.39c-11.29-1.08-21.37-2.56-32.5-.4-4.78.93-11,1.93-15.76,1.09a1.19,1.19,0,0,1-.6-.23c-.36-.32-.24-.9-.08-1.36,3.23-9.71,5.48-19.7,7.73-29.68a42.93,42.93,0,0,0,1.51-11.26,21.61,21.61,0,0,0-5.11-13c-1.21-1.42-2.65-2.74-3.23-4.51-1.85-5.6,5.76-11.34,3.51-16.79-.4-1-1.09-2-.61-2.94a2.63,2.63,0,0,1,1.21-1,57.18,57.18,0,0,1,12.17-4.67"/>
   <path class="cls-1" d="M381.12,327.78c.73-6.25-4.65-9.11-9.86-6.18-2.13,1.2-3.77,3.61-2.8,6.1.67,1.73,2.4,2.84,3.11,4.59a18.76,18.76,0,0,1,.92,6.61c0,.77,3.24.21,3.22-.86-.08-3.39-.4-6.33-2.46-9.11-1-1.4-3.29-4.28-.94-5.91l4.3.1.9,1.51a6.94,6.94,0,0,1,.41,3.64c-.12,1,3.09.43,3.19-.49Z"/>
   <path class="cls-1" d="M372.74,339c2.08-.93,5,2.8,6.34,3.91a19.53,19.53,0,0,0,6.25,3.19c4.31,1.55,9.65,2.6,13.55,5,1.46.9,4.23,3.55,2.77,5.62-1.24,1.77-5.68.83-7.7.86l-16.81.17-15.82.16c-2.94,0-6,.26-8.9.09-2.19-.12-3.76.16-4.48-2-.82-2.5,2.18-4.09,4.27-5.06,3.69-1.72,7.84-2.16,11.47-4.09,2.88-1.53,6-6.69,9.18-7.08.79-.1,3.49-1.46,1.42-1.2-4.9.61-6.88,3.63-10.52,6.61-5,4.12-14.49,3.26-18.59,8.66-4.36,5.75,5.07,5.45,8.11,5.41L381,359l13.84-.14c2.32,0,5,.27,7.23-.53,3.49-1.24,4.05-4.94,1.16-7.39s-7.36-3.18-10.72-4.38c-3.57-1.27-7.38-2.22-10.36-4.65-4-3.22-6.24-5.39-11.21-3.17-1.92.86,1.11.65,1.83.33Z"/>
   <path class="cls-2" d="M361.29,345.18c3.27,6.82,7.95,9.56,15.43,9.61a14.31,14.31,0,0,0,13.49-8c.36-.71-1.25-.56-1.5-.06-3.07,6-9.14,7.94-15.66,6.71-5.16-1-8-4.17-10.15-8.72-.28-.58-1.85-.08-1.61.43Z"/>
   <path class="cls-2" d="M373.57,355l-.76,72.14c0,.81,1.62.55,1.62-.14l.76-72.14c0-.81-1.62-.55-1.62.14Z"/>
   <path class="cls-2" d="M367.15,362.41c-.94.92-.13,2.2.92,2.55s3.13.44,4.09-.43a1.59,1.59,0,0,0-.32-2.44c-1.21-.73-2.94-.16-4.08.43-.2.1-.48.26-.2.42s.9-.09,1.12-.21a1.5,1.5,0,0,1,2,.23,1.62,1.62,0,0,1,.29.8,1.33,1.33,0,0,1,0,.38c0,.09-.18.35-.17.4s0,.1.15,0h-.22c-.21,0-.44,0-.65,0a2.26,2.26,0,0,1-1.22-.44,1.25,1.25,0,0,1-.26-1.75c.26-.25-.23-.27-.38-.26a1.84,1.84,0,0,0-1.08.38Z"/>
   <path class="cls-2" d="M368.23,374.62a3.8,3.8,0,0,0-1.4,2.47,1.53,1.53,0,0,0,1.3,1.55,2.58,2.58,0,0,0,2.78-3.64c-.06-.31-1.68.05-1.61.43a3.67,3.67,0,0,1,0,2.1,1.43,1.43,0,0,1-.41.57q.45-.11.1-.23a1.09,1.09,0,0,1-.31-.33c-.72-1.11.24-2.27,1-3.06.24-.25-.22-.25-.37-.24a1.85,1.85,0,0,0-1.08.38Z"/>
   <path class="cls-2" d="M368.28,387.88a4.14,4.14,0,0,0-1.46,2.64,2,2,0,0,0,1.28,1.94,2.29,2.29,0,0,0,2.49-.86,3.69,3.69,0,0,0,.33-3c-.15-.79-1.76-.38-1.61.43a3.6,3.6,0,0,1,.06,1.7c-.15.48-.43.77-.75.25-.58-1,.41-1.94,1-2.57a.52.52,0,0,0-.22-.84,1.06,1.06,0,0,0-1.14.3Z"/>
   <path class="cls-2" d="M368.23,401.7a3.8,3.8,0,0,0-1.4,2.48,1.56,1.56,0,0,0,1.31,1.57,2.93,2.93,0,0,0,2.36-.82,3.11,3.11,0,0,0,.41-2.84c-.06-.35-1.68,0-1.61.43a4.09,4.09,0,0,1,.07,1.9c-.07.22-.49.63-.16.64-.23,0-.47-.35-.56-.52-.63-1.12.3-2.19,1-3,.25-.26-.22-.29-.38-.28a1.75,1.75,0,0,0-1.07.39Z"/>
   <path class="cls-2" d="M368.22,415.86a3.79,3.79,0,0,0-1.39,2.5,1.58,1.58,0,0,0,1.31,1.59,2.84,2.84,0,0,0,2.36-.82,3.16,3.16,0,0,0,.41-2.85c-.07-.39-1.69,0-1.61.43a4,4,0,0,1,.07,1.89c-.07.22-.49.63-.17.64-.23,0-.47-.34-.56-.5-.64-1.11.31-2.18,1-2.95.26-.27-.22-.32-.39-.32a1.66,1.66,0,0,0-1.07.4Z"/>
   <path class="cls-8" d="M25.72,282.71a46.27,46.27,0,0,1-3,4.81c-.49.34-4,4.5-5,4.93-.75-.81-.76-1.22-.76-1.22a41.38,41.38,0,0,1,1.69-6.51c.79-1.65,2.94-5,2.94-5Z"/>
   <circle class="cls-9" cx="17.2" cy="292.37" r="2.13" transform="translate(-5.29 0.36) rotate(-1.04)"/>
   <path class="cls-10" d="M38.49,199.94S18.82,217,3,221.13c-.06-3.33,1.85-3.69,1.85-3.69l18.3-12.22,14.65-5.51Z"/>
   <polygon class="cls-11" points="24.07 214.05 21.36 209.51 18.13 211.87 21.08 216.4 24.07 214.05"/>
   <path class="cls-12" d="M38.49,199.94S4.11,220.67,3,221.13c-1.13-1.84-7.54-11.89,2.65-22.45,3.54-3.67,13.2-7.45,13.2-7.45S31.92,187.16,38.49,199.94Z"/>
   <path class="cls-13" d="M71.78,282.53a46.27,46.27,0,0,0,3.2,4.7c.5.32,4.18,4.35,5.17,4.74.72-.83.72-1.24.72-1.24a41.38,41.38,0,0,0-1.92-6.44c-.85-1.62-3.12-4.86-3.12-4.86Z"/>
   <circle class="cls-14" cx="80.64" cy="291.88" r="2.13" transform="translate(-5.27 1.51) rotate(-1.04)"/>
   <path class="cls-10" d="M57.49,199.43s20.27,16.3,36.21,19.89c-.06-3.33-2-3.63-2-3.63L73,204.15l-14.84-5Z"/>
   <polygon class="cls-15" points="72.4 213.01 74.94 208.38 78.26 210.61 75.48 215.25 72.4 213.01"/>
   <path class="cls-16" d="M57.49,199.43s35.11,19.47,36.21,19.89c1.06-1.88,7.1-12.15-3.46-22.34-3.67-3.54-13.46-7-13.46-7S63.59,186.43,57.49,199.43Z"/>
   <rect class="cls-17" x="45.56" y="198.13" width="4.59" height="7.54" transform="translate(-3.65 0.9) rotate(-1.04)"/>
   <circle class="cls-18" cx="48.85" cy="247.46" r="42.29" transform="translate(-4.47 0.93) rotate(-1.04)"/>
   <path class="cls-2" d="M49.48,282.2a34.75,34.75,0,1,1,34.11-35.37A34.79,34.79,0,0,1,49.48,282.2Z"/>
   <rect class="cls-19" x="41.77" y="193.05" width="11.64" height="5.9" rx="2.95" ry="2.95" transform="matrix(-1, 0.02, -0.02, -1, 98.72, 391.12)"/>
   <text class="cls-20" transform="matrix(1, -0.02, 0.02, 1, 44.13, 223.83)">12</text>
   <text class="cls-20" transform="matrix(1, -0.02, 0.02, 1, 47.17, 279.07)">6</text>
   <text class="cls-20" transform="matrix(1, -0.02, 0.02, 1, 17.52, 250.15)">9</text>
   <text class="cls-20" transform="matrix(1, -0.02, 0.02, 1, 75.09, 249.11)">3</text>
   <circle class="cls-21" cx="48.85" cy="247.46" r="3.42" transform="translate(-4.47 0.93) rotate(-1.04)"/>
   <line class="cls-22" x1="49.17" y1="246.96" x2="49.47" y2="263.39"/>
   <line class="cls-22" x1="49.34" y1="246.96" x2="25.04" y2="247.4"/>
   <circle class="cls-23" cx="48.85" cy="247.46" r="20.64" transform="translate(-4.47 0.93) rotate(-1.04)"/>
</svg>
