<svg id="Layer_1" data-name="Layer 1" xmlns="http://www.w3.org/2000/svg" viewBox="0 0 418.27 167.25"><defs><style>.cls-1{fill:#76cde1;}.cls-2{fill:none;stroke:#76cde1;stroke-miterlimit:10;stroke-width:0.35px;stroke-dasharray:1.42;}.cls-3{font-size:21.79px;fill:#75cee2;font-family:AvenirNextLTPro-Regular, Avenir Next LT Pro;}.cls-4{letter-spacing:-0.1em;}.cls-5{fill:#74cee2;}.cls-6{fill:#fff;}</style></defs><title>NumeracyArtboard 61</title><path class="cls-1" d="M230.65,78.5c3.28-.91,10.53-2.09,11.14-6.38.42-2.92-3.87-10.31-6.26-11.86-1.36-.89-.31-.46-2-.57s-4.52,1.4-6.2,1.94c-.75.24-3.62,1.67-3.92,1.57-.86-.29-2.31-3.63-2.76-4.32a24,24,0,0,0-2.5-3.84c-.78-.79-1.6-1.51-2.84-1.2-2.2.54-1,2.33-.35,3.9s1.46,3.24,2.23,4.84,2.55,3.82,2.84,5.52c.36,2.09.19,1.2-1.86.68a7.48,7.48,0,0,0-2.18-.35c-2.24.31-2.13,1.73-.52,3.43,3.28,3.45,10.35,5.15,14.76,6.74.54.19.77-.66.24-.86-4.11-1.48-8.63-3-12.4-5.23-2-1.2-3.59-2.46-1.11-3,1.29-.3,3.49,1,4.63,1.4a.45.45,0,0,0,.55-.31c.16-.83-.2-.37-.45-1.39-.58-2.42-3-5.55-4.12-7.85a15.22,15.22,0,0,1-1.49-3.23l-.69-1.52,2.63-.14c1.17.61,4.3,5.91,4.57,7.17a.45.45,0,0,0,.55.31c2.61-.86,5.26-1.93,7.95-2.56,3.3-.78,3.95-.6,5.74,2a29.8,29.8,0,0,1,2.07,3.49c1.34,2.66,3.06,5.1.38,7.46-2.19,1.93-6.08,2.56-8.84,3.32a.44.44,0,0,0,.24.86Z"/><path class="cls-2" d="M211.89,54.36a2.49,2.49,0,0,0-.85,2,4.84,4.84,0,0,0,1,3.21A5.87,5.87,0,0,0,213.92,61"/><path class="cls-2" d="M210.17,52.7a4.16,4.16,0,0,0-1.25,2.41,7.62,7.62,0,0,0-.14,2.74,6.44,6.44,0,0,0,2.16,3.83,7.9,7.9,0,0,0,4,1.8"/><path class="cls-2" d="M216.83,51.52a2.49,2.49,0,0,1,2.14.34,4.84,4.84,0,0,1,2.16,2.59,5.87,5.87,0,0,1,.22,2.31"/><path class="cls-2" d="M216.34,49.19a4.16,4.16,0,0,1,2.71.22,7.62,7.62,0,0,1,2.4,1.35,6.44,6.44,0,0,1,2.09,3.87,7.9,7.9,0,0,1-.62,4.38"/><text class="cls-3" transform="translate(252.12 73.3)"><tspan class="cls-4">T</tspan><tspan x="10.33" y="0">ap on scissors </tspan><tspan x="0" y="26.15">for the solution</tspan></text><path class="cls-5" d="M127.09,110.36l10.63-1.24c4.07-.47,6.54-.23,9.68,2.48a199.87,199.87,0,0,1,14.72,14.16c4.37,4.64,9.68,9.63,12.37,15.51,2.86,6.26.69,12.12-4,16.79-2.27,2.28-4.9,5.48-8.34,4.11-2.57-1-4.83-3.7-6.7-5.61-4.81-4.9-9.45-10-13.95-15.16-4.12-4.75-9.12-9.81-9.84-16.36-.68-6.24,2.36-12.37,2.81-18.57.11-1.48-9.85-.36-10.07,2.7-.58,8.15-5,15.88-1.25,23.88,3.48,7.33,10.3,13.59,15.74,19.5,4.86,5.28,10.47,13.34,18.1,14.5,6.75,1,13.55-2.23,18.73-6.28s10.41-9.5,10.26-16.42c-.16-7.63-7.12-14.1-11.87-19.33-5.92-6.5-12.49-14.42-19.95-19.14-2.67-1.69-5.53-1.6-8.59-1.33-4.73.41-9.46,1.1-14.17,1.65-1.59.18-6,.68-6.73,2.42s.58,1.94,2.4,1.72Z"/><path class="cls-5" d="M129.73,108.15C118.55,98.78,114.41,83.43,105,72.29A77.41,77.41,0,0,0,91,60,216.33,216.33,0,0,0,3.71,22.57c21.51,8.86,38.51,25.69,56.07,41A497.89,497.89,0,0,0,127,112.69a4.76,4.76,0,0,0,1.55-4.32"/><path class="cls-5" d="M119.37,75.28c-2.68,3.35-5.4,7.11-5.39,11.4,0,2.13.69,4.32,0,6.33a9.35,9.35,0,0,1-2.42,3.34c-29,29.2-70,42.53-109.84,53,34.71-25.3,68.72-51.68,102.65-78,7.87-6.1,15.73-12.21,23.48-18.46a87.3,87.3,0,0,0,7.59-6.24c5.71-5.8,3.24-10.41,2.61-18.06-.48-5.77,1.91-11.55,5.72-15.91a36.46,36.46,0,0,1,14.34-9.5,24,24,0,0,1,7.35-1.83c6.82-.37,13.43,4.19,16.16,10.45s1.76,13.81-1.83,19.61c-.79,1.27-1.73,2.71-1.29,4.14s2.23,2.28,2.49,3.78c.2,1.18-.61,2.27-1.38,3.2-2.51,3-6,6.38-9.76,5.33-1.06-.29-2-.91-3.05-1.21-1.84-.51-3.79,0-5.66.47a44.55,44.55,0,0,1-11.24,1.11C142.52,48,139.27,53.08,134,58.57S124,69.5,119.37,75.28Z"/><path class="cls-6" d="M118,74.73c-3.32,4.22-5.72,8.15-5.58,13.66.13,4.79-1.51,6.78-4.85,10q-3.22,3.05-6.64,5.88A162.12,162.12,0,0,1,70.2,124c-21.78,11-45.3,17.93-68.81,24.11l1.46,2.06Q64.7,105,124.61,57.19c6.18-4.92,16-10.06,16.21-19,.09-4.32-1.44-8.53-1.05-12.86.59-6.56,4.6-12.23,9.77-16.08,4.83-3.6,12.06-7.38,18.26-6.5,6.39.91,11.68,6.28,13.14,12.45,1.36,5.75-.17,10.84-2.76,16-.78,1.53-1.84,3-1.35,4.82.13.47.57.84.69,1.31q2,1.72.68,4.67A16.46,16.46,0,0,1,176.25,44c-3.83,3.19-6.81,1.21-10.72,1.09-3-.09-6,1.11-8.9,1.47-4.94.61-9.78-.3-14.28,2.24-4.12,2.33-7.19,6.48-10.38,9.86q-7.31,7.76-14,16c-1.35,1.67,1.81,2.37,2.84,1.1q6.41-7.94,13.37-15.37c4.56-4.86,8.45-10.53,15.61-11,6.6-.4,13.12-1.84,19.52-.38,3.77.86,7.1-1.3,9.69-3.81,1.2-1.17,3.09-2.87,3.53-4.62.51-2-.44-2.42-1.16-4.05-1.46-3.31.16-4.73,1.52-7.81a23.88,23.88,0,0,0,2-8c.61-9.3-5.19-18.28-14.5-20.42S150,4.3,143.71,10.66A25.52,25.52,0,0,0,137,22.09c-1.42,5.47.32,10.27.44,15.73.13,6.28-4.93,9.7-9.42,13.2-5.82,4.54-11.56,9.2-17.38,13.74Q94.22,77.53,77.77,90.22C52.26,109.93,26.63,129.49.59,148.49c-1.48,1.08.14,2.41,1.46,2.06,24.32-6.4,48.67-13.66,71.12-25.17a164.39,164.39,0,0,0,30-19.48c3.81-3.16,9.39-7,11.83-11.42,1.49-2.69.62-5,.71-7.9.13-4.23,2.59-7.54,5.1-10.74C122.12,74.14,119,73.44,118,74.73Z"/><path class="cls-6" d="M169.77,33.64A35.57,35.57,0,0,0,173.51,24c.6-3.4.1-7.17-2.13-9.81-2.45-2.9-6.63-3.94-10.36-3.27a19.77,19.77,0,0,0-9.8,5.45,14.76,14.76,0,0,0-3.63,4.84c-1,2.35-1,5-1,7.52a11.26,11.26,0,0,0,1,5.56,9.61,9.61,0,0,0,3.26,3.09c3.35,2.19,7.31,3.8,11.28,3.33s7.82-3.51,8.18-7.49"/><path class="cls-6" d="M108.41,87c-.23-1.29.36-2.74-.3-3.88A3.13,3.13,0,0,0,105,81.93a5.18,5.18,0,0,0-4.19,2.65,3.54,3.54,0,0,0,1.22,4.54,4.81,4.81,0,0,0,1.79.5,5.08,5.08,0,0,0,2.51-.21,2.32,2.32,0,0,0,1.5-1.89"/></svg>