<svg id="Layer_1" data-name="Layer 1" xmlns="http://www.w3.org/2000/svg" viewBox="0 0 306 536">
   <defs>
      <style>.cls-1{fill:#8f4a1e;}.cls-2{fill:#3d3234;}.cls-3{fill:#a35525;}.cls-4{fill:#36372e;}.cls-5{fill:#2d2c28;}.cls-52,.cls-6{fill:#fff;}.cls-7{fill:#e3e4de;}.cls-8{fill:#2b140f;}.cls-9{fill:#733617;}.cls-10{fill:#f49796;}.cls-11{fill:#ed5a49;}.cls-12{fill:#f69897;}.cls-13{fill:#f69798;}.cls-14{fill:#552010;}.cls-15{fill:#3a1710;}.cls-16,.cls-18,.cls-29,.cls-32,.cls-36,.cls-38{fill:none;}.cls-16{stroke:#733617;stroke-linecap:round;}.cls-16,.cls-18,.cls-26,.cls-29,.cls-31,.cls-32,.cls-36,.cls-38{stroke-miterlimit:10;}.cls-16,.cls-18{stroke-width:0.23px;}.cls-17{fill:#6d1411;}.cls-18{stroke:#590f0c;}.cls-19{fill:#cd4d3e;}.cls-20{fill:#2a0c3b;}.cls-21,.cls-31{fill:#fdc797;}.cls-22{fill:#010101;}.cls-23{fill:#351649;}.cls-24,.cls-26{fill:#323343;}.cls-25{fill:#e59659;}.cls-26{stroke:#231f20;stroke-width:0.7px;}.cls-27{fill:#1a1a1a;}.cls-28{fill:#402414;}.cls-29,.cls-31,.cls-32{stroke:#e59659;}.cls-29{stroke-width:0.11px;}.cls-30{fill:#754e25;}.cls-31,.cls-32{stroke-width:0.41px;}.cls-33{fill:#599ead;}.cls-34{fill:#75cee2;}.cls-35{fill:#c8e9f1;}.cls-36{stroke:#61abbb;stroke-width:0.57px;}.cls-37{fill:#61abbb;}.cls-38{stroke:#8a481c;stroke-width:0.55px;}.cls-39{fill:#66963f;}.cls-40{fill:#76cde1;}.cls-41{fill:#f06724;}.cls-42{fill:#db5e26;}.cls-43{fill:#51909e;}.cls-44{fill:#414042;}.cls-45{fill:#e6e7e7;}.cls-46{fill:#d0d2d3;}.cls-47{fill:#c6e8fa;}.cls-48{fill:#231f20;}.cls-49{opacity:0.4;}.cls-50{fill:#4a4b4c;}.cls-51{fill:#d61a69;}.cls-52{font-size:14.79px;font-family:Cutive-Regular, Cutive;}</style>
   </defs>
   <title>NumeracyArtboard 24</title>
   <path class="cls-1" d="M206.43,120.6a22.7,22.7,0,0,0,4.9,1.15,85.27,85.27,0,0,0,11.09-.73c1.19-.23,3.35-.64,3.48-1.24s-5.82-.5-5.82-.5l-11.68.87Z"/>
   <path class="cls-2" d="M192,254.54s10.38,1.55,10.05,2.1-1.88,1.66-6.19,1.55-17.79-2-18.67-2.65-.33-3.76,1.1-5.63,4.31.22,4.31.22Z"/>
   <path class="cls-2" d="M147.46,261.28s8.95,2.43,12.48,2.43,10.05.66,10.27-.66a52.35,52.35,0,0,0-7-3.09l-10.5-4.64-3.65.22S147.13,258.52,147.46,261.28Z"/>
   <path class="cls-3" d="M180.27,237.86a29.93,29.93,0,0,1-.77,9.83l-1,2.65s1.77,2.65,4,3.2,8.18,2.43,10.94,1.33c-1.77-1-6-3.2-6.85-5.63a38.92,38.92,0,0,1-1.1-12.37C183.36,237.2,180.27,237.86,180.27,237.86Z"/>
   <path class="cls-3" d="M158.28,240.07s-3,11.16-2.43,13.48,3.87,5.19,6.52,6.19l2.65,1s.88.88-2.54.22-11.38-2.21-13.48-4.86c0-.77,4.2-15.69,4.2-16.24S158.28,240.07,158.28,240.07Z"/>
   <path class="cls-4" d="M167.68,124l31.38,3a64.39,64.39,0,0,1,1.33,14.8c-.33,7.4-4.53,31.49-6.74,38.89a89.88,89.88,0,0,0-2.76,11.16s-2.32,11.71-2.32,12.48-2.32,32.48-2.1,34.14c-1.55.77-3.54,2.21-7.51.33.11-4.75.77-9.5.33-19s-.66-19.89.55-25.3,3-14.47,3.2-15.25.44-40.77.44-41.32-1.87,0-1.87,0l-3.77,19.78s-4.09,28.72-5.63,34.14S159.5,234.11,159.39,241c-1.33.44-8.06,1.22-8.29-1.1,1-5.41,3.2-15.91,3.42-19.78a77,77,0,0,1,4.53-19.33c2.65-6.85,5.08-11.71,5.19-14.8s-1.33-24.75-1.88-28.06-1.55-13.59-1.55-13.59l.88-16.46Z"/>
   <path class="cls-5" d="M180.14,136.24l1.48,1.64c.17,0,1.85-.54,1.85,0s-.22,40.54-.44,41.32-2,9.83-3.2,15.25-1,15.8-.55,25.3-.22,14.25-.33,19c4,1.88,6,.44,7.51-.33-.22-1.66,2.1-33.36,2.1-34.14s2.32-12.48,2.32-12.48.14-.94.55-2.81a19.36,19.36,0,0,1-3.65-6.8c-.22-1.44,0-14.69-.77-21.21s2.21-26.18,2.21-26.18Z"/>
   <path class="cls-5" d="M199.51,129.38c-.25-1.51-.46-2.43-.46-2.43l-31.38-3-6,3.87-.88,16.46s1,10.27,1.55,13.59,2,25,1.88,28.06-2.54,8-5.19,14.8a77,77,0,0,0-4.53,19.33c-.22,3.87-2.43,14.36-3.42,19.78.22,2.32,7,1.55,8.29,1.1.11-6.85,11.27-43.75,12.82-49.16.22-.77.5-2,.8-3.61-2.37-1.9-5.33-4-5.88-5.34-.66-1.55-1.1-18.67-1.1-18.67s-.55-14-.55-16.24.22-9.17,1-11.6,7.29-4.09,9.28-4.64,10.61-1.33,15.25-1.55C194,130,197.48,129.62,199.51,129.38Z"/>
   <path class="cls-6" d="M177.84,78l15-1.33,1,47.84-.22,2.87s-17,.33-17.68-.55,1.77-26.62,1.77-26.62Z"/>
   <path class="cls-7" d="M193.06,86.32a11.37,11.37,0,0,1-4.73,1.18c-2.87,0-6.74-2.21-6.74-2.21L177.77,92l0,8.25S175.3,126,176,126.83c.35.47,5.4.6,10,.61a34.49,34.49,0,0,1-4.37-9.67c-.55-2.76.88-8.4,2.32-13.37s4.64-7.84,5.74-9.72a5.77,5.77,0,0,1,3.53-2.18Z"/>
   <path class="cls-8" d="M172.11,19.66s2.51-5.47,9.57-4S198.22,23,198.91,25s-.68,2-.76,2.73,2.73,1.82,3,3-.3.91-1.06,1.82-1,1.37.08,2.28,2.81,3,2.35,3.72-1.29.68-1.67,2.2,3.64,4,3.42,6.3-1.59,2.73-1.21,4.25,1.75,2.51,1.21,4.18-2,1.14-1.29,2.51,2.58,2.66,2.2,3.87S202.47,66,201,68.39a14.09,14.09,0,0,0-1.59,5.77l-21.26-1.29-13.66,1.44s-6.76-1.14-6.83-1.9S158.9,71,159,70.06s-2-2.88-1.9-4.48,2.2-1.52,1.44-2.81-3.26-2-2.81-3.49,1.44-1.9,1.44-3.72-.61-2-1.44-4.33a4.27,4.27,0,0,1,.53-4.18c.38-.84,4.18-2.73,4-4.48s-2-4.78-1-5.92,3.49-3.26,3.8-5.62.91-7.82,3-8.73a25.61,25.61,0,0,1,5.62-1.37Z"/>
   <path class="cls-3" d="M185.09,54.66s.15,6.33.74,8.18,2.5,4.86,4.49,5.16,2,.81,2,.81l1,6.63s-2.58,5.3-4.57,5.74-7.51,1-9.5-1.4-6.11-12.45-6.11-12.45,4.42-1,4.71-4.57.15-9.35.15-9.35Z"/>
   <path class="cls-9" d="M182.88,61.73a5.63,5.63,0,0,0,2.6-.79c-.31-2.57-.39-6.28-.39-6.28L178,53.4s.07,2.69,0,5.53C179.5,60.17,181.59,61.73,182.88,61.73Z"/>
   <path class="cls-10" d="M174.41,66.51s6.55,14.8,7.66,18.19-.74,23.49-.81,23.79-.59-16.94-1.84-20.77S169,68.5,169,68.5Z"/>
   <path class="cls-11" d="M193.93,68.65s6.7,2,6.85,2.73a88.76,88.76,0,0,1,.74,14.14c-.29,5.74-.59,9.13-.44,10.38s.44,6.11,1.33,8.62c-.29.88-.81,1-.81,1l1.62,3.31.07.74-7.07,1.4,3.68,16.35s.07.74-.88,1a60.75,60.75,0,0,1-6.48.44s-.44-17.16-.15-20.55.44-20.33.44-20.33l-.22-19Z"/>
   <path class="cls-12" d="M204.68,108.79l.37,4.93-7.81,2.21-1.33-5.3S201.67,108.57,204.68,108.79Z"/>
   <path class="cls-11" d="M169.92,68.36s-9.5,2.06-9.65,3.39-2.14,13-2.8,20.18-1.62,15.25-1.25,16.42,7.51-.37,7.51-.37S165.21,86,165.5,86.47A94.9,94.9,0,0,1,169,97.08c.37,2.06,1.69,7.81,1.25,8.84s-1,1.18-.29,1.91c-.07,1.69-8.4,20.47-8.4,20.47s7.66,1.18,11.34,1.25,4.71-.22,4.93-1.62,3.17-13.55,3.54-19.81-.81-21.73-.81-21.73l-5.3-10.68Z"/>
   <path class="cls-3" d="M156.3,113.06l3.54,22.61s-.22,8.84-.22,10.24a18.84,18.84,0,0,0,.22,2.73l.52,2.06s-.37.52.44.59,1,1.84,1,1.84l.52.29s.66,1,1,.59a4.56,4.56,0,0,0,.44-1.4s1,.59,1.25-.15.37-9.43.37-9.43.66-.15,1.33,1,1.33,3.83,1.77,3.83.88-1.25.52-2.36-2.06-6.7-2.58-7.22a48.73,48.73,0,0,1-3.9-4.05c-.07-.37.37-9.5.37-9.94s1.18-11.93,1-12.15S156.3,113.06,156.3,113.06Z"/>
   <path class="cls-9" d="M185.86,81.32s.14-1.74.1-2.12,1.11,2.07,1.35,2.27-1.25.29-1.25.29Z"/>
   <path class="cls-13" d="M190.69,67.4s4.86.74,5,1.1,0,6.11,0,8,0,8.91.07,10.09-2.58,18.93-3.39,21.73c.29-8.25.29-20.77,0-26.44S190.76,68.28,190.69,67.4Z"/>
   <path class="cls-3" d="M169.83,39.36s-.13,9.36,2.56,11.54,6.67,5.77,10.26,5.64,10.13-4.36,10.51-8.33,1-13.72,1-13.72v-6l-7.31-4-10.64-.64-6.15,6.28Z"/>
   <path class="cls-6" d="M185.32,39.86a4.12,4.12,0,0,1,3.07-2c2.2-.28,3.19,1.28,4.1,1.28-1,.46-1.29,1.42-3.38,1.42a19.25,19.25,0,0,1-3.83-.14C185.2,40.25,185.32,39.86,185.32,39.86Z"/>
   <circle class="cls-14" cx="188.47" cy="39.13" r="1.06"/>
   <path class="cls-15" d="M189,38.33c1.85.07,2.12.68,3.13.71-.83-.3-1.82-1.45-3.74-1.21a4.12,4.12,0,0,0-3.07,2s0,.07,0,.16A5.85,5.85,0,0,1,189,38.33Z"/>
   <path class="cls-14" d="M185.85,37.35s3.07-1.56,4-1.56a4.79,4.79,0,0,1,1.78.57c.27,0-.61-1.1-1.14-1.14a4.38,4.38,0,0,0-2.66.34C186.23,36.17,185.13,37,185.85,37.35Z"/>
   <path class="cls-6" d="M178.88,39.86a4.12,4.12,0,0,0-3.07-2c-2.2-.28-3.19,1.28-4.1,1.28,1,.46,1.29,1.42,3.38,1.42a19.25,19.25,0,0,0,3.83-.14C179,40.25,178.88,39.86,178.88,39.86Z"/>
   <circle class="cls-14" cx="175.73" cy="39.13" r="1.06"/>
   <path class="cls-15" d="M175.19,38.33c-1.85.07-2.12.68-3.13.71.83-.3,1.82-1.45,3.74-1.21a4.12,4.12,0,0,1,3.07,2s0,.07,0,.16A5.85,5.85,0,0,0,175.19,38.33Z"/>
   <path class="cls-14" d="M178.35,37.35s-3.07-1.56-4-1.56a4.79,4.79,0,0,0-1.78.57c-.27,0,.61-1.1,1.14-1.14a4.38,4.38,0,0,1,2.66.34C178,36.17,179.07,37,178.35,37.35Z"/>
   <path class="cls-16" d="M179.74,46.23a12.51,12.51,0,0,0,2.13.91,5.33,5.33,0,0,0,2.28-.76"/>
   <path class="cls-17" d="M177.54,49.72a2.47,2.47,0,0,0,1.56.19c.68-.23,1.86-.95,2.77-.57.84,0,1.06-.23,1.63,0a4.38,4.38,0,0,0,2.77.57c-.34.3-.76.34-.95.61s-1.9,1.9-3.57,1.82a5.1,5.1,0,0,1-3.07-1.56C178.18,50.4,177.65,50.06,177.54,49.72Z"/>
   <path class="cls-18" d="M177.92,50.1s3,.46,3.26.46a3.37,3.37,0,0,0,1.33.11,15.21,15.21,0,0,0,3.15-.53"/>
   <path class="cls-8" d="M180.76,27.48a22.61,22.61,0,0,1,4.71,3.42c3,2.66,3.64,3,5.16,2.88s2-.15,2,.38-.53,1.59.38,2.13a4.27,4.27,0,0,1,1.59,1.52,28.94,28.94,0,0,0,1.06-3.34l-.3-8s-11.24-4.86-11.54-4.86-11.16,1.75-11.16,1.75-3.49,3.64-3.57,4.55-.61,6.6-.84,7.9.76,4.33.76,4.33,2.66-2.2,3-3.42-.68-3.57.15-4.55,4.63-3.34,5.16-4.1S180.23,27.17,180.76,27.48Z"/>
   <path class="cls-12" d="M154.16,108.05s-.59,5.16-.22,5.52.81.44,3.76.37,7.14-.59,7.37-1a21.85,21.85,0,0,0,0-5.38,9.45,9.45,0,0,0-3.09-.07C160.72,107.61,154.16,108.05,154.16,108.05Z"/>
   <path class="cls-19" d="M165.5,86.47S163,74,161.71,72.87c2.06,2.06,3.68,11.64,4.12,13a14.62,14.62,0,0,1,.59,2.65Z"/>
   <path class="cls-19" d="M195.67,109a24.25,24.25,0,0,1,0-6.63c.55-2.65,2.32-21.32,2.21-23.86s.77-5.74,2-6.63C199.2,72.39,195.67,109,195.67,109Z"/>
   <path class="cls-20" d="M76.71,127.71S76,138.16,76.48,141a79.06,79.06,0,0,0,6.06,21.57c2.47,7.56,3.14,9.78,3.37,11.34s.67,4.22,1.57,4.67,1.57,8.23,1.57,8.23,1.57,25.57,1.35,27.57-.67,5.11,1.12,5.11,8.53.22,9-.44-2.69-34-2.69-34l-4.26-29.35-1.8-22.45L85,127.49Z"/>
   <path class="cls-21" d="M91.63,218.2s-1.8,2.45-1.8,3.22a41.75,41.75,0,0,1-1.91,6.67c-.34.56-1.35.67-1.35.67l-1.35,3.11s2.24,1.78,2.81,1.67,4.49-2,4.49-2,2.81-2.11,3-2.45,3.59-4.22,3.59-4.22l3.59-4-.11-1.33L99.83,218Z"/>
   <path class="cls-21" d="M99.71,242.1a53.66,53.66,0,0,0-2.36,5c0,.44-3,4.11-3.59,4.67s1.35,5.34,1.35,5.34L98.25,259l6.62-1.78,4.6-6.11,3.59-9.34-1.57-1.33-5.39-1.67Z"/>
   <path class="cls-22" d="M87.14,228.31s-.22,3.67,1.46,3.89a5.66,5.66,0,0,0,5.16-2.67,33.66,33.66,0,0,1,4.83-6.34c1-.89,4-3.67,4-3.67a4.13,4.13,0,0,1,1.46,3.11c0,2-1.46,4.34-1.8,6s-1.57,5-1.57,5.89-1,.78-1,.78.9-7.23.45-7.78-4.26,1.22-5,3.22-1.57,6.45-5.84,6.45-8.53-1.11-8.19-2.22A6.65,6.65,0,0,1,83,232.54c.34-.33.45-1.56.11-1.56s-2.69-.44-1.23-1.11,2.92-1.56,3.48-1.78.9.11,1.23.67S87.14,228.31,87.14,228.31Z"/>
   <path class="cls-22" d="M110,238.65s3.14,1.67,4,2.89,2.47,3.33.34,6.89a72.33,72.33,0,0,0-2.47,7.89c0,.67-.56,1.78-.79,1.22s-.9-1.56-.79-2.33.22-3.33.22-3.33a18,18,0,0,0-2.92,2.33c-1,1.11-2.81,5.78-3.7,6.34s-1.46,2.33-6.17,2-9.31-1.56-8.87-3.45a17.61,17.61,0,0,1,1.68-4s-1.23-1.22-.79-1.78,1.57-3.45,4.6-1.89a4.8,4.8,0,0,1,.34,2.11,6.63,6.63,0,0,1,2.13,1.56c.67.89-.34,2,.9,2.45s4.94-.11,7.18-2.56,6.51-10.67,6.51-11.89-1.46-2.78-1.46-2.78Z"/>
   <path class="cls-23" d="M107.46,128.15s2,6,1.57,9.56-1.35,16.67-1.8,18-3.14,21.79-2.92,23.57-.22,6.89,1.8,10,4.94,14,4.94,16.23-.22,22-.22,23.57.45,4.45.45,5.11a5.67,5.67,0,0,1-.9,2,1.1,1.1,0,0,1,1.12,1.11v3.11s.67,2.22-2.92,3.11-10.32,2.22-9.65-.89.45-18.9.45-22-1.8-12.67-2.69-16.9-3.59-11.34-4.49-15.12-3.59-13.34-4-16.23-2.24-16.67-1.8-21.57.9-6.23.45-7.56-6.51-8.23-7-10.67a29.11,29.11,0,0,1-.45-4.67Z"/>
   <path class="cls-24" d="M109.23,133.45s-1-18.24-1.48-22,3.59-9.79,3.68-10.06S116,91.4,118,83s-12.54-20.2-12.54-20.2L90.12,67.11s-2.22,2.59-2.94,3.31-6.53,13.88-6.53,13.88L76.26,103.5,76,135.08s7.2,3,18.57,2.09S110.62,141.81,109.23,133.45Z"/>
   <path class="cls-21" d="M105.56,54s.36,8.37-.41,11.3c-.69,2.62-12.68,6.62-13.65,6.2-1.65-.71,2.48-9.1,1.65-10.89S105.56,54,105.56,54Z"/>
   <path class="cls-25" d="M94.5,64.47c-.23-1.1,0-2.65-.52-3.66-.67-1.45,8.54-5,11-6l.22.29S98.76,62.69,94.5,64.47Z"/>
   <path class="cls-21" d="M93.18,98.32s-5.32-1.09-6-1.65A30.51,30.51,0,0,0,83,94.75s-3-6.08-3.21-6.26-1.38-1.11-1.38-1.11l-2.34,3-1.28,5.82a6.23,6.23,0,0,0,5,3.68c2.91,2.56,5.48,5.49,6.2,6a18.79,18.79,0,0,0,8.57,4.89c5.23,1.32,6.83.57,7.12.68s2.58.8,3.22,0,2.52-2.7,2.39-4.23"/>
   <path class="cls-25" d="M89.43,65.24s1.31-2.2,1.31-2.39-.13-.91-.56-.91-1.76-.16-1.94.51a4.61,4.61,0,0,0,.14,1.82Z"/>
   <path class="cls-26" d="M98,97.66l-8.31-2L84.32,94.4,81,103.34l2.62,1.76s5,4.53,10.48,5.79,10.75,1.76,12,.13a14.53,14.53,0,0,0,2.48-5.16"/>
   <path class="cls-27" d="M116.78,79.09c-2.29-4.25-6.63-5.77-10.28-2.34-3,2.83-5,6.94-6.82,10.59-.54,1.11-3,9.31-4.2,9.56-.16,0-.35.21-.07.15,1.15-.24,1.23-1.42,1.58-2.4a70.62,70.62,0,0,1,3.31-7.84c1.62-3.25,3.5-7.4,6.28-9.81,3.77-3.26,7.7-1.72,9.8,2.19.05.1.43,0,.4-.11Z"/>
   <path class="cls-28" d="M95.67,19.39s-.76-4.58,2.85-5.21,6.88-.24,7.89.95,2.85,6.79,5.12,9.63S124,34.22,127.4,34.54a25.69,25.69,0,0,1,5.12.87s-5.12,1.26-5.54,1.26-4.45.87-5.12.87,2.35.95,3.94.95-3.61.63-3.61.63l4.28,1.34s-1.09.63-5.12.71-.84.87-.84.87l-4.78-.39L96.26,24Z"/>
   <path class="cls-28" d="M108.11,38s1.14,8.64.91,10.76S106,55.83,106,55.83s9.82-8.3,10-14.51-1.21-14.17-5.53-16.6-6.67-.91-6.67-.91l2.35,13.64Z"/>
   <path class="cls-21" d="M82.49,38.66a40.51,40.51,0,0,0-.83,4.47c0,.91,2.58,8.56,3,10.69.29,1.65,5.31,11.29,12.28,8,9-4.19,10.61-8.19,11.52-9.1s1.67-5.61,1.67-5.61,2.73-.91,2.27-3.18,1.06-5,0-6.37a2.28,2.28,0,0,0-3.49.15c-.45.76-2.88.91-4.4-1.67s-6.67-5.76-7.12-5.91S87,29.87,87,29.87l-4.4,4.24Z"/>
   <path class="cls-28" d="M82.57,43.14s1.67-1.36,2.65-1.36a4.27,4.27,0,0,1,2.65,1.82C88,44,86,41.77,82.57,43.14Z"/>
   <path class="cls-25" d="M87.79,43.79c.06.89.12,1.79.15,2.68,0,1.18-.31,2.2-.35,3.36,0,.89.31,1,1.12,1.1s1.86.35,2.49-.18c.15-.12-.18-.14-.27-.07a3.8,3.8,0,0,1-2.1,0c-1.17-.36-1-.83-.79-1.7a8.73,8.73,0,0,0,.24-1.89c0-1.15-.09-2.29-.17-3.44,0-.12-.34,0-.33.09Z"/>
   <path class="cls-28" d="M91.61,41.8a5.14,5.14,0,0,1,4-1.66c2.32.27,2.84,1.27,2.84,1.27S94.51,40.09,91.61,41.8Z"/>
   <path class="cls-29" d="M108.79,41.39s.51-2,1.31-2.39,1.88-.17,1.53,1.25a10.37,10.37,0,0,0-.23,3V45"/>
   <path class="cls-25" d="M109.48,42.25s-.45,1.42-.11,1.36.74-.63.91-.57.06.57.17.8.45-1.53.28-1.93S109.42,41.34,109.48,42.25Z"/>
   <path class="cls-6" d="M92.31,43.21a5.74,5.74,0,0,1,3.75-.06c2,.68,1.76.91,1.76.91A13.64,13.64,0,0,1,95,45.54a10.13,10.13,0,0,1-1.88.17A14.16,14.16,0,0,1,92.31,43.21Z"/>
   <path class="cls-30" d="M97.81,44a10.22,10.22,0,0,0-3.14-.72c-.81,0-1.73.16-2.28.24l-.07-.29a5.74,5.74,0,0,1,3.75-.06C97.4,43.62,97.74,43.87,97.81,44Z"/>
   <ellipse class="cls-28" cx="95.08" cy="44.26" rx="0.97" ry="1.25"/>
   <path class="cls-6" d="M82.93,44.15a4.63,4.63,0,0,1,3.2-.05c1.7.62,1.5.82,1.5.82a11.42,11.42,0,0,1-2.42,1.34,8.16,8.16,0,0,1-1.6.15A13.36,13.36,0,0,1,82.93,44.15Z"/>
   <path class="cls-30" d="M87.62,44.85a8.3,8.3,0,0,0-2.68-.65c-.69,0-1.47.14-1.95.21l-.06-.26a4.63,4.63,0,0,1,3.2-.05C87.27,44.52,87.56,44.75,87.62,44.85Z"/>
   <ellipse class="cls-28" cx="85.64" cy="45.08" rx="0.82" ry="1.13"/>
   <path class="cls-28" d="M89.13,37.19l-1,2.27s-4.43,0-6.25.8-1.82-7.5-1.36-9.32,1.36-6,5.57-7.73,8.87-4.21,15.8-3.41,11.94,6.37,13.42,12.85.68,7.84.68,7.84l-5.12-6.71-4.78,3.68s-8.75,1.33-10,1.33-5.46-3-5.46-3Z"/>
   <path class="cls-28" d="M104.36,37.53c.45.8,1.36,8.07,1.36,8.07a7,7,0,0,0,2-3.41c.45-2,.45-4.78,1.36-5.46s-1.36-1.48-1.36-1.48Z"/>
   <path class="cls-31" d="M82.63,62.89s1.14-2.74,1.23-3.29.07-1,.42-1.24a22.31,22.31,0,0,1,4.49-.29,12.91,12.91,0,0,1,1.66,1.44s.92,1.41-.27,1.9-2.47-.73-2.47-.73a9.5,9.5,0,0,1-1.87.28c-.61,0-.07,1-.07,1Z"/>
   <path class="cls-21" d="M78,75.3s.18-4.76.14-5.67-.06-3.53.4-4,.81-.83.81-.83.31-1.11.85-1.26,2-.71,2-.71L86,61.32c.54-.21,1.38-.44,1.77,0a17,17,0,0,1,1.74,3.08,16.27,16.27,0,0,1-.17,2.63,6.71,6.71,0,0,0-.13,1c0,.18-.06,1.28-.1,1.59a8.63,8.63,0,0,1-1.13,3c-.63.76-2.63,2.2-3,2.77s-1,2.18-1.27,2.5-.6,2.65-2.75,3.31-3.85-2.6-3.85-2.6Z"/>
   <path class="cls-25" d="M79.75,75.7s1.91.51,2.9-.33a13.83,13.83,0,0,0,1.9-2.11s-.29,1.41-.34,1.6,1.62-.45,2-1.08a4.55,4.55,0,0,1-3.3,2.06A10.73,10.73,0,0,1,79.75,75.7Z"/>
   <path class="cls-32" d="M83.42,67.66a14.06,14.06,0,0,1-.78,1.44c-.34.5,0,1,.62,1.43s.77-.34,1-.9,1.47-1.11,1.63-1.36a11.08,11.08,0,0,0-.2-2.79,1.45,1.45,0,0,0-1.16-1.28c-.31-.11-4.42.47-4.42.47"/>
   <path class="cls-25" d="M83,68.41a2.31,2.31,0,0,0-1.79-.52c1.51-.2,1.91-.65,1.72-.88a11.43,11.43,0,0,0-1.69-.95l2,.81a.88.88,0,0,0,.27-.74c-.08-.42,0,.73,0,.73l-.06.64Z"/>
   <path class="cls-32" d="M81.75,63.54s4.17-.64,4.36-.53,1.3.42,1.27,1,0,4.26-.41,5.07-.93,2.06-1.54,2.09-1.46,0-1.48-.35"/>
   <path class="cls-32" d="M89.06,68.47s-.2.92-.56,1-1.32.31-1.47-.11"/>
   <path class="cls-24" d="M65.76,94.53c.57-.9,2.09-2.79,3.41-4.42l.71-1.51s4.35-7.88,4.71-8.56,1.78-3.92,2.7-4.1a32.07,32.07,0,0,1,4.9.5h1.07v.17l1.73.27L79.9,90.34a31.3,31.3,0,0,0-.64,3.1,61.25,61.25,0,0,1-3,11.51c-.73,1.66-5.29,4.41-6.08,4.86a4.2,4.2,0,0,1-3.17-.16c-.59-.38-1.71-3.32-2-4.44s-.32-3-.61-4S64.86,96,65.76,94.53Z"/>
   <path class="cls-26" d="M83.26,76.6l1.73.27L79.9,90.34a31.3,31.3,0,0,0-.64,3.1,61.25,61.25,0,0,1-3,11.51c-.73,1.66-5.29,4.41-6.08,4.86a4.2,4.2,0,0,1-3.17-.16"/>
   <path class="cls-25" d="M95.35,54.65c-.16.19-.31.39-.45.58a8,8,0,0,1-2.8.34,18.75,18.75,0,0,1-3.88-.91c-.23-.39-.35-.67-.35-.67l2.07.65A14,14,0,0,0,95.35,54.65Z"/>
   <path class="cls-33" d="M207.87,119.24s.38-.85-4.45-2.08-21-4.83-21-4.83-2.37-.85-2.37.19.95,1.9,4.26,2.75,20.37,5.12,20.37,5.12S208.34,121.13,207.87,119.24Z"/>
   <path class="cls-33" d="M231.94,116.58s-.85,1.61-1.71,1.8c-.47.66-.28.66-1.52.76S209,121.23,209,121.23s-4.45-.57-5.5-1.23c4-.66,4-1.22,4-1.22Z"/>
   <path class="cls-34" d="M180.48,112.7s-2.84-.95,4.74-1.14,21.7-1.23,22-1.14,24.35,5.78,24.35,5.78a34,34,0,0,1-3.22,1.61c-.28,0-18.38,1.33-18.38,1.33l-6.35-.76Z"/>
   <path class="cls-35" d="M208.25,119.43s10.14-35.82,10.14-36.2a.67.67,0,0,1,.66-.76c.47,0,22.08,3.32,22.08,3.32a1.75,1.75,0,0,1,.47,1.61c-.28.85-7.87,28.15-7.87,28.15s-.19.95-2.18,1.23S208.25,119.43,208.25,119.43Z"/>
   <line class="cls-36" x1="184.34" y1="113.36" x2="202.44" y2="112.7"/>
   <line class="cls-36" x1="187.38" y1="114.31" x2="201.78" y2="113.93"/>
   <line class="cls-36" x1="191.92" y1="115.26" x2="201.68" y2="114.88"/>
   <line class="cls-36" x1="194.58" y1="116.11" x2="201.5" y2="115.54"/>
   <polygon class="cls-37" points="193.77 111.33 188.61 111.75 189.89 112.46 197.14 112.04 193.77 111.33"/>
   <path class="cls-3" d="M209.34,121.34s2.5,1.6,3.45,1.6,1.23,1.71,2.56,1.61a25.61,25.61,0,0,0,4.55-1.33,4.22,4.22,0,0,0,1.52.28,5.06,5.06,0,0,0,1-.38s1.61-.28,1.8-.57a2.79,2.79,0,0,0,.28-.85s1.71.47,2-.19a14.89,14.89,0,0,0,.76-3.13c0-.47-.57-.85-1.23.28l-.66,1.14s.95-7.49.47-7.68-1.61-.28-1.71,1.23c-.95-.09-2,.28-2,1.23a30.38,30.38,0,0,1-.95,4.93c-.19.47-.57,1.52-.85,1.42s.38-3.22,0-3.51-1.61-.76-1.71-.09-.66,2.84-.76,3.22-1.23-.38-1.71.09.19.66-1.33.38A27,27,0,0,0,209.34,121.34Z"/>
   <path class="cls-38" d="M224.36,113.55a41.75,41.75,0,0,1-.38,5.31c-.28.85-.9,1.75-1,2.32s-.14.43-.14.43"/>
   <path class="cls-38" d="M220.33,121.09s-.43,1.52-1.47,1.47-1.18-.47-1.18-.47"/>
   <path class="cls-38" d="M216.11,122.18s-.33-1.85-2.89-1.23a2.09,2.09,0,0,0,.14,2.23"/>
   <path class="cls-39" d="M104.08,467.35A19.51,19.51,0,0,0,74.3,442.49a26,26,0,0,0-38.23,33.92,20.88,20.88,0,1,0,11.26,35.08,20.09,20.09,0,0,0,24.59-1.14,28.2,28.2,0,1,0,32.16-43Z"/>
   <polygon class="cls-40" points="277.01 522.45 69.83 522.45 69.83 368.61 277.01 368.78 277.01 522.45"/>
   <polygon class="cls-41" points="202.3 529.92 191.58 529.92 190.02 517.27 203.86 517.27 202.3 529.92"/>
   <rect class="cls-42" x="189.39" y="516.02" width="15.09" height="3.67"/>
   <path class="cls-39" d="M201.28,511.75a2.26,2.26,0,0,0-3.46-2.89,3,3,0,0,0-4.44,3.94,2.42,2.42,0,1,0,1.31,4.07,2.33,2.33,0,0,0,2.85-.13,3.27,3.27,0,1,0,3.73-5Z"/>
   <polygon class="cls-41" points="277.66 529.92 266.94 529.92 265.38 517.27 279.22 517.27 277.66 529.92"/>
   <rect class="cls-42" x="264.76" y="516.02" width="15.09" height="3.67"/>
   <path class="cls-39" d="M276.64,511.75a2.26,2.26,0,0,0-3.46-2.89,3,3,0,0,0-4.44,3.94,2.42,2.42,0,1,0,1.31,4.07,2.33,2.33,0,0,0,2.85-.13,3.27,3.27,0,1,0,3.73-5Z"/>
   <polygon class="cls-43" points="265.19 324 83.91 324 69.83 368.47 277.01 368.47 265.19 324"/>
   <rect class="cls-44" x="213.4" y="427.46" width="42.97" height="84.62"/>
   <rect class="cls-45" x="211.99" y="512.08" width="45.78" height="5.19"/>
   <rect class="cls-46" x="209.18" y="517.26" width="51.41" height="5.18"/>
   <rect class="cls-47" x="216.22" y="430.27" width="37.34" height="78.99"/>
   <circle class="cls-48" cx="220.56" cy="463.87" r="1.37"/>
   <circle class="cls-48" cx="220.56" cy="474.54" r="1.37"/>
   <rect class="cls-48" x="219.87" y="464.26" width="1.39" height="9.89"/>
   <rect class="cls-44" x="88.22" y="427.23" width="110.24" height="78.99"/>
   <rect class="cls-47" x="91.04" y="430.04" width="104.61" height="73.36"/>
   <g class="cls-49">
      <polygon class="cls-6" points="195.65 437.62 195.65 433.33 134.02 503.4 138.32 503.4 195.65 437.62"/>
      <polygon class="cls-6" points="111.92 503.4 128.26 503.4 193.17 430.04 176.84 430.04 111.92 503.4"/>
   </g>
   <polygon class="cls-48" points="269.17 409.37 202.88 409.38 195.82 431.01 275.05 431 269.17 409.37"/>
   <polygon class="cls-50" points="204.56 431 200.19 435.95 195.83 431 204.56 431"/>
   <polygon class="cls-50" points="222.18 431 217.82 435.95 213.46 431 222.18 431"/>
   <polygon class="cls-50" points="239.96 431 235.52 435.95 231.08 431 239.96 431"/>
   <polygon class="cls-50" points="257.44 431 252.98 435.95 248.52 431 257.44 431"/>
   <polygon class="cls-50" points="275.05 431 270.61 435.95 266.17 431 275.05 431"/>
   <path class="cls-48" d="M222.18,431h8.9l1.51-21.63H225.2Zm-17.62,0h8.9l4.36-21.63h-7.38ZM240,409.37V431h8.56L247,409.37Zm14.43,0,3,21.63h8.73l-4.36-21.63Z"/>
   <polygon class="cls-50" points="213.46 431 209.01 435.95 204.56 431 213.46 431"/>
   <polygon class="cls-50" points="231.08 431 226.63 435.95 222.18 431 231.08 431"/>
   <polygon class="cls-50" points="248.52 431 244.24 435.95 239.96 431 248.52 431"/>
   <polygon class="cls-50" points="266.17 431 261.81 435.95 257.44 431 266.17 431"/>
   <rect class="cls-51" x="87.32" y="389.56" width="111.78" height="22.46"/>
   <text class="cls-52" transform="translate(107.47 406.91)">STUDIO</text>
</svg>
