<svg id="Layer_1" data-name="Layer 1" xmlns="http://www.w3.org/2000/svg" viewBox="0 0 350 344.29"><defs><style>.cls-1{fill:#76cde1;}.cls-11,.cls-12,.cls-16,.cls-17,.cls-2{fill:none;stroke-miterlimit:10;}.cls-2{stroke:#76cde1;stroke-width:0.35px;stroke-dasharray:1.42;}.cls-3{font-size:21.79px;font-family:AvenirNextLTPro-Regular, Avenir Next LT Pro;}.cls-3,.cls-9{fill:#75cee2;}.cls-4{letter-spacing:-0.1em;}.cls-5{letter-spacing:-0.02em;}.cls-6{letter-spacing:-0.01em;}.cls-7{fill:#e3f4f8;}.cls-8{fill:#aee0eb;}.cls-10{fill:#c8e9f1;}.cls-11,.cls-12{stroke:#98c3ce;}.cls-11{stroke-width:3.1px;}.cls-12{stroke-width:1.86px;}.cls-13,.cls-15{fill:#f8ec12;}.cls-14{fill:#efb526;}.cls-15{font-size:35.14px;font-family:Cutive-Regular, Cutive;}.cls-16{stroke:#efb526;}.cls-16,.cls-17{stroke-width:0.75px;}.cls-17{stroke:#d61a69;}.cls-18{fill:#d61a69;}</style></defs><title>NumeracyArtboard 70</title><path class="cls-1" d="M70.16,306.54c3.28-.91,10.53-2.09,11.14-6.38.42-2.92-3.87-10.31-6.26-11.86-1.36-.89-.31-.46-2-.57s-4.52,1.4-6.2,1.94c-.75.24-3.62,1.67-3.92,1.57-.86-.29-2.31-3.63-2.76-4.32a24,24,0,0,0-2.5-3.84c-.78-.79-1.6-1.51-2.84-1.2-2.2.54-1,2.33-.35,3.9s1.46,3.24,2.23,4.84,2.55,3.82,2.84,5.52c.36,2.09.19,1.2-1.86.68a7.48,7.48,0,0,0-2.18-.35c-2.24.31-2.13,1.73-.52,3.43,3.28,3.45,10.35,5.15,14.76,6.74.54.19.77-.66.24-.86-4.11-1.48-8.63-3-12.4-5.23-2-1.2-3.59-2.46-1.11-3,1.29-.3,3.49,1,4.63,1.4a.45.45,0,0,0,.55-.31c.16-.83-.2-.37-.45-1.39-.58-2.42-3-5.55-4.12-7.85a15.22,15.22,0,0,1-1.49-3.23l-.69-1.52,2.63-.14c1.17.61,4.3,5.91,4.57,7.17a.45.45,0,0,0,.55.31c2.61-.86,5.26-1.93,7.95-2.56,3.3-.78,3.95-.6,5.74,2a29.8,29.8,0,0,1,2.07,3.49c1.34,2.66,3.06,5.1.38,7.46-2.19,1.93-6.08,2.56-8.84,3.32a.44.44,0,0,0,.24.86Z"/><path class="cls-2" d="M51.4,282.39a2.49,2.49,0,0,0-.85,2,4.84,4.84,0,0,0,1,3.21A5.87,5.87,0,0,0,53.44,289"/><path class="cls-2" d="M49.69,280.74a4.16,4.16,0,0,0-1.25,2.41,7.62,7.62,0,0,0-.14,2.74,6.44,6.44,0,0,0,2.16,3.83,7.9,7.9,0,0,0,4,1.8"/><path class="cls-2" d="M56.35,279.56a2.49,2.49,0,0,1,2.14.34,4.84,4.84,0,0,1,2.16,2.59,5.87,5.87,0,0,1,.22,2.31"/><path class="cls-2" d="M55.86,277.23a4.16,4.16,0,0,1,2.71.22A7.62,7.62,0,0,1,61,278.8a6.44,6.44,0,0,1,2.09,3.87,7.9,7.9,0,0,1-.62,4.38"/><text class="cls-3" transform="translate(91.64 301.34)"><tspan class="cls-4">T</tspan><tspan x="10.33" y="0">ap me for </tspan><tspan class="cls-5" x="111.42" y="0">F</tspan><tspan x="123.28" y="0">inancial </tspan><tspan x="0" y="26.15">m</tspan><tspan class="cls-6" x="19.24" y="26.15">e</tspan><tspan x="31.57" y="26.15">asu</tspan><tspan class="cls-5" x="65.54" y="26.15">r</tspan><tspan x="72.99" y="26.15">ements</tspan></text><polygon class="cls-7" points="80.62 1 278.38 0 278.47 133.6 281.07 222 251.92 238.7 215.68 257.08 210.16 259.25 82.28 258.79 80.62 1"/><path class="cls-8" d="M225.41,255.49c5-2.48,7.53-4.44,12.57-6.92,16.5-8.14,30.09-14.32,43.13-26.63-6.42,2.5-18.82,13.43-38.61,1.34-8.81,24.42-15.31,25.18-22,30.31a35,35,0,0,1-10.69,5.67,43.25,43.25,0,0,0,15.64-3.75"/><circle class="cls-9" cx="91.94" cy="16.5" r="3.83"/><circle class="cls-9" cx="91.94" cy="30.04" r="3.83"/><circle class="cls-9" cx="91.94" cy="43.59" r="3.83"/><circle class="cls-9" cx="91.94" cy="57.13" r="3.83"/><circle class="cls-9" cx="91.94" cy="70.67" r="3.83"/><circle class="cls-9" cx="91.94" cy="84.21" r="3.83"/><circle class="cls-9" cx="91.94" cy="97.75" r="3.83"/><circle class="cls-9" cx="91.94" cy="111.29" r="3.83"/><circle class="cls-9" cx="91.94" cy="124.84" r="3.83"/><circle class="cls-9" cx="91.94" cy="138.38" r="3.83"/><circle class="cls-9" cx="91.94" cy="151.92" r="3.83"/><circle class="cls-9" cx="91.94" cy="165.46" r="3.83"/><circle class="cls-9" cx="91.94" cy="179" r="3.83"/><circle class="cls-9" cx="91.94" cy="192.54" r="3.83"/><circle class="cls-9" cx="91.94" cy="206.09" r="3.83"/><circle class="cls-9" cx="91.94" cy="219.63" r="3.83"/><circle class="cls-9" cx="91.69" cy="233.17" r="3.83"/><rect class="cls-10" x="102.28" y="9" width="170" height="23.67"/><rect class="cls-10" x="17.94" y="117.67" width="202.83" height="33.17" transform="translate(253.61 14.89) rotate(90)"/><line class="cls-11" x1="103.06" y1="235.6" x2="239.61" y2="235.66"/><line class="cls-11" x1="103.61" y1="215.6" x2="280.61" y2="215.66"/><line class="cls-11" x1="103.61" y1="194.26" x2="280.61" y2="194.33"/><line class="cls-11" x1="103.61" y1="175.26" x2="135.61" y2="175.33"/><line class="cls-11" x1="103.61" y1="156.6" x2="135.61" y2="156.66"/><line class="cls-11" x1="103.61" y1="136.93" x2="135.61" y2="136.99"/><line class="cls-11" x1="103.61" y1="118.43" x2="135.61" y2="118.49"/><line class="cls-11" x1="103.61" y1="98.93" x2="135.61" y2="98.99"/><line class="cls-11" x1="103.61" y1="80.43" x2="135.61" y2="80.49"/><line class="cls-11" x1="103.61" y1="57.43" x2="135.61" y2="57.49"/><line class="cls-11" x1="103.61" y1="32.93" x2="135.61" y2="32.99"/><line class="cls-11" x1="136.14" y1="9.46" x2="136.08" y2="32.67"/><line class="cls-12" x1="253.61" y1="187.05" x2="165.61" y2="187.24"/><line class="cls-12" x1="166.02" y1="115.6" x2="166.19" y2="188.17"/><line class="cls-11" x1="174.64" y1="9.46" x2="174.58" y2="32.67"/><line class="cls-11" x1="208.64" y1="9.46" x2="208.58" y2="32.67"/><line class="cls-11" x1="240.89" y1="9.46" x2="240.83" y2="32.67"/><circle class="cls-13" cx="200.44" cy="72.84" r="30.5"/><path class="cls-14" d="M200.44,98.34a25.5,25.5,0,1,1,25.5-25.5A25.53,25.53,0,0,1,200.44,98.34Z"/><text class="cls-15" transform="translate(186.84 85.85)">$</text><polyline class="cls-16" points="167.49 185.92 180.24 162.92 183.24 162.92 187.86 159.67 199.11 163.79 209.86 147.29 215.86 145.79 219.49 134.67 230.86 132.42 236.01 122.45"/><polygon class="cls-14" points="238.83 125.14 238.49 117.67 232.19 121.7 238.83 125.14"/><polyline class="cls-17" points="168.78 186.5 185.28 170.34 195.44 173.67 201.44 167.34 205.61 170.84 213.44 154.84 217.44 154.5 224.94 152.5 237.55 161.4"/><polygon class="cls-18" points="234.5 163.82 241.94 164.5 238.81 157.71 234.5 163.82"/><rect class="cls-9" x="135.25" y="9.2" width="39.5" height="23.34"/><rect class="cls-9" x="102.63" y="32.84" width="32.92" height="23.34"/></svg>