<svg id="Layer_1" data-name="Layer 1" xmlns="http://www.w3.org/2000/svg" viewBox="0 0 524.31 404.13"><defs><style>.cls-1{fill:#76cde1;}.cls-18,.cls-2,.cls-20,.cls-21,.cls-24{fill:none;}.cls-2{stroke:#76cde1;stroke-width:0.35px;stroke-dasharray:1.42;}.cls-18,.cls-2,.cls-20,.cls-21,.cls-24,.cls-7{stroke-miterlimit:10;}.cls-3{font-size:21.79px;fill:#75cee2;font-family:AvenirNextLTPro-Regular, Avenir Next LT Pro;}.cls-4{letter-spacing:-0.1em;}.cls-5{letter-spacing:-0.01em;}.cls-6{letter-spacing:-0.02em;}.cls-7{fill:#fff;stroke:#d61a69;stroke-width:2px;}.cls-8{fill:#8dcb8b;}.cls-9{fill:#569a59;}.cls-10{fill:#faed0c;}.cls-11{fill:#fff684;}.cls-12,.cls-14{fill:#74cee1;}.cls-13{fill:#e3f3f7;}.cls-14{font-size:8.75px;font-family:Cutive-Regular, Cutive;}.cls-15{letter-spacing:-0.02em;}.cls-16{letter-spacing:-0.01em;}.cls-17{letter-spacing:0em;}.cls-18,.cls-20{stroke:#aee0ea;}.cls-18{stroke-width:0.84px;}.cls-19{fill:#c1dde6;}.cls-20{stroke-width:0.59px;}.cls-21{stroke:#74cee1;}.cls-21,.cls-24{stroke-width:0.2px;}.cls-22{fill:#38b34a;}.cls-23{fill:#64b1c2;}.cls-24{stroke:#75cee2;}</style></defs><title>NumeracyArtboard 81</title><path class="cls-1" d="M164,198.38c3.28-.91,10.53-2.09,11.14-6.38.42-2.92-3.87-10.31-6.26-11.86-1.36-.89-.31-.46-2-.57s-4.52,1.4-6.2,1.94c-.75.24-3.62,1.67-3.92,1.57-.86-.29-2.31-3.63-2.76-4.32a24,24,0,0,0-2.5-3.84c-.78-.79-1.6-1.51-2.84-1.2-2.2.54-1,2.33-.35,3.9s1.46,3.24,2.23,4.84,2.55,3.82,2.84,5.52c.36,2.09.19,1.2-1.86.68a7.48,7.48,0,0,0-2.18-.35c-2.24.31-2.13,1.73-.52,3.43,3.28,3.45,10.35,5.15,14.76,6.74.54.19.77-.66.24-.86-4.11-1.48-8.63-3-12.4-5.23-2-1.2-3.59-2.46-1.11-3,1.29-.3,3.49,1,4.63,1.4a.45.45,0,0,0,.55-.31c.16-.83-.2-.37-.45-1.39-.58-2.42-3-5.55-4.12-7.85a15.22,15.22,0,0,1-1.49-3.23l-.69-1.52,2.63-.14c1.17.61,4.3,5.91,4.57,7.17a.45.45,0,0,0,.55.31c2.61-.86,5.26-1.93,7.95-2.56,3.3-.78,3.95-.6,5.74,2a29.8,29.8,0,0,1,2.07,3.49c1.34,2.66,3.06,5.1.38,7.46-2.19,1.93-6.08,2.56-8.84,3.32a.44.44,0,0,0,.24.86Z"/><path class="cls-2" d="M145.27,174.24a2.49,2.49,0,0,0-.85,2,4.84,4.84,0,0,0,1,3.21,5.87,5.87,0,0,0,1.85,1.41"/><path class="cls-2" d="M143.56,172.58A4.16,4.16,0,0,0,142.3,175a7.62,7.62,0,0,0-.14,2.74,6.44,6.44,0,0,0,2.16,3.83,7.9,7.9,0,0,0,4,1.8"/><path class="cls-2" d="M150.21,171.4a2.49,2.49,0,0,1,2.14.34,4.84,4.84,0,0,1,2.16,2.59,5.87,5.87,0,0,1,.22,2.31"/><path class="cls-2" d="M149.72,169.07a4.16,4.16,0,0,1,2.71.22,7.62,7.62,0,0,1,2.4,1.35,6.44,6.44,0,0,1,2.09,3.87,7.9,7.9,0,0,1-.62,4.38"/><text class="cls-3" transform="translate(185.33 193.18)"><tspan class="cls-4">T</tspan><tspan x="10.33" y="0">ap </tspan><tspan class="cls-5" x="41.24" y="0">e</tspan><tspan x="53.58" y="0">ach icon</tspan><tspan x="0" y="26.15">to find out mo</tspan><tspan class="cls-6" x="140.38" y="26.15">r</tspan><tspan x="147.83" y="26.15">e</tspan></text><path class="cls-7" d="M208.31,74.75A35.74,35.74,0,0,0,204.59,59c-.32-13.06-7.93-24-18.21-27.29A34.4,34.4,0,0,0,129,16.2C124.81,7.14,116.64,1,107.25,1,96.86,1,88,8.52,84.27,19.18,79.72,12.62,72.8,8.43,65,8.43c-10.54,0-19.54,7.74-23.13,18.66a34.48,34.48,0,0,0-20.63,65.3c.32.58.65,1.16,1,1.73a34.28,34.28,0,0,0-.55,6.1c0,16.12,11.1,29.18,24.8,29.18A22.5,22.5,0,0,0,62,123l2.28.81a34.38,34.38,0,0,0,55.38,7.52q3.79-.17,7.5-.51a34.4,34.4,0,0,0,53.34-16.12C197.68,104.47,208.31,90.35,208.31,74.75Z"/><path class="cls-7" d="M523.31,113.62a35.74,35.74,0,0,0-3.72-15.71c-.32-13.06-7.93-24-18.21-27.29A34.4,34.4,0,0,0,444,55.07c-4.21-9.06-12.38-15.2-21.78-15.2-10.39,0-19.28,7.52-23,18.18C394.72,51.49,387.8,47.3,380,47.3,369.5,47.3,360.5,55,356.91,66a34.48,34.48,0,0,0-20.63,65.3c.32.58.65,1.16,1,1.73a34.28,34.28,0,0,0-.55,6.1c0,16.12,11.1,29.18,24.8,29.18A22.5,22.5,0,0,0,377,161.9l2.28.81a34.38,34.38,0,0,0,55.38,7.52q3.79-.17,7.5-.51a34.4,34.4,0,0,0,53.34-16.12C512.68,143.35,523.31,129.22,523.31,113.62Z"/><path class="cls-7" d="M370.31,335.75A35.74,35.74,0,0,0,366.59,320c-.32-13.06-7.93-24-18.21-27.29A34.4,34.4,0,0,0,291,277.2c-4.21-9.06-12.38-15.2-21.78-15.2-10.39,0-19.28,7.52-23,18.18-4.55-6.56-11.47-10.75-19.23-10.75-10.54,0-19.54,7.74-23.13,18.66a34.48,34.48,0,0,0-20.63,65.3c.32.58.65,1.16,1,1.73a34.28,34.28,0,0,0-.55,6.1c0,16.12,11.1,29.18,24.8,29.18A22.5,22.5,0,0,0,224,384l2.28.81a34.38,34.38,0,0,0,55.38,7.52q3.79-.17,7.5-.51a34.4,34.4,0,0,0,53.34-16.12C359.68,365.47,370.31,351.35,370.31,335.75Z"/><path class="cls-8" d="M62.55,64.67C75.07,70.09,87.49,74.42,100,75.83s16.29-3.39,28.81-2.53c13.23.91,19.61,3.93,31.38,10.11a4.39,4.39,0,0,1,2.26,2A3.64,3.64,0,0,1,162.1,88l-13.52,34.87a2.37,2.37,0,0,1-1,1.4,3,3,0,0,1-2.14-.13l-15.3-4.86c-2.58-.82-5.29-1.65-7.93-1.29-2.41.33-4.47,1.62-6.65,2.55-6,2.55-13.06,2.47-19.65,1s-16.49-4-22.64-6.81C65,111,60.43,107.06,52.19,103.35a1.69,1.69,0,0,1-.92-.71,1.36,1.36,0,0,1,.05-.94Z"/><path class="cls-9" d="M140.75,116.47a4,4,0,0,1,2.81-2.93,4.5,4.5,0,0,1,2.43.12l8.23-21.24A6.26,6.26,0,0,1,152.16,89a9,9,0,0,1-.08-3.8,68.27,68.27,0,0,0-10.4-4.36,55.83,55.83,0,0,0-13-2.23,37.72,37.72,0,0,0-12.25,1.25,45.7,45.7,0,0,1-16.83,1.26A106.74,106.74,0,0,1,80,76.84c-2.61-.81-5.32-1.73-8.16-2.78A5.94,5.94,0,0,1,70,76.66a4.67,4.67,0,0,1-4.24.76,4.16,4.16,0,0,1-.9-.44L59,96.25a8.57,8.57,0,0,1,.82.64,10.12,10.12,0,0,1,3.4,6.23l0,0,2.47,1.46a92.41,92.41,0,0,0,9.9,5.34,70.64,70.64,0,0,0,7.86,2.85c5.33,1.64,10.8,2.94,13.58,3.56,4.3,1,10.57,1.63,16-.68.48-.21,1-.45,1.53-.71a21.92,21.92,0,0,1,6.61-2.25,22.09,22.09,0,0,1,9.63,1.22l1,.32,8.9,2.83A4.8,4.8,0,0,1,140.75,116.47Z"/><path class="cls-8" d="M113.46,86.24c-3-1.45-6.27-2.95-9.56-2.64a12.48,12.48,0,0,0-6.31,2.75,18,18,0,0,0-7.12,11.24,14.42,14.42,0,0,0,4.38,12.67c3.56,3.29,9.19,4.66,13.62,2.93a15.19,15.19,0,0,0,7-6.37,18.75,18.75,0,0,0,3.27-11,12.73,12.73,0,0,0-5.89-10.09Z"/><path class="cls-9" d="M113.17,91.12c-2.81-1.11-16.69-3.84-16.26,2.63.25,3.74,6.81,4,9.37,4.57,1.93.42,3,.87,2.92,3.27a9.17,9.17,0,0,1-1.53,4.36c-2.18,3-8.48,3.31-10.75.16-.44-.61-2.49.12-2,.85,1.88,2.61,6,2.92,8.95,2.6a7.84,7.84,0,0,0,6.57-5.16c1.07-2.59,2.19-5.86-1-6.87-2.36-.74-5.07-.66-7.35-1.6-6.1-2.51-1.23-4.72,2.48-5.06a16.27,16.27,0,0,1,6.92,1.31c.66.26,2.59-.7,1.68-1.06Z"/><path class="cls-9" d="M103.35,87c-.86,8.45-.05,16.25-2.35,24.63-.1.36,1.95.11,2.09-.39,2.3-8.39,1.53-16.31,2.39-24.8,0-.21-2.06,0-2.12.57Z"/><path class="cls-10" d="M72.8,83a13.51,13.51,0,0,1-7.87-11.68,5.7,5.7,0,0,1,.79-3.42c1.29-1.88,3.91-2.09,6-3,4.88-2,7-8.79,4.2-13.25a7.63,7.63,0,0,1,3.57,9.06c2.59-.86,3.76-3.92,3.86-6.65s-.52-5.5,0-8.17,2.93-5.32,5.61-4.79a4.91,4.91,0,0,0,6.82,6.77c3.59-2.36,2.65-7.73,3.51-11.94a12.72,12.72,0,0,1,13.14-9.78c-3.33,2.06-3.62,7.6-.52,10s8.38.72,9.54-3c.93-3-.56-6.18-1.49-9.2s-1-7,1.72-8.62c-1.37,4,3.28,7.27,5.31,11a9.58,9.58,0,0,1-8.14,14.18c-.51,2.07.91,4.23,2.78,5.28a14.84,14.84,0,0,0,6.2,1.39c2.18.17,4.85.09,5.93-1.82,2.09-3.73-4.87-8.27-2.54-11.86a7.85,7.85,0,0,0,2.35,3.17,2.7,2.7,0,0,0,3.6-.31c.93-1.28,0-3.08-1-4.25s-2.39-2.41-2.32-4c0,3.44,5.33,3.8,7.33,6.6,2.11,3-.37,6.91-.75,10.52a17.73,17.73,0,0,0,1,6.53l3.52,12.59a3.24,3.24,0,0,0,.35.9c1.08,1.67,3.91-.17,3.84-2.15s-1.57-3.58-2.45-5.36-.72-4.54,1.2-5.06a5.45,5.45,0,0,0,5.85,6c1.2-1.11.46-3.12-.56-4.39S150.82,51.63,151,50a2.51,2.51,0,0,1,5,.35c0,.62-.25,1.23-.23,1.86,0,1.23,1,2.18,1.84,3.1a14,14,0,0,1,2.66,13.62c-2.65,7.59-11.3,11.56-14.81,18.79-1.75,3.6-2.47,8.25-6,10.05-2.75,1.39-6.14.4-8.77-1.2s-4.92-3.8-7.73-5.06c-6.32-2.84-13.6-.41-20.52-.11-10.52.46-20.54-4.08-30.08-8.53"/><path class="cls-11" d="M80.48,85.91a32.41,32.41,0,0,1-2.83-15c1.67,3.46,7.29,2.82,9.58-.26s2.21-7.26,2-11.09a14.1,14.1,0,0,0,5.1,3.8c2,.7,4.62.24,5.7-1.6a8.46,8.46,0,0,0,.79-2.85A21,21,0,0,1,105.56,49c-.16,2.45.56,5.13,2.56,6.56s5.36.85,6.18-1.46-1.1-4.72-1.1-7.18c2.79,6.08,11,9,17,6,1.49,5.09,3.16,10.47,7.16,14s11.12,3.92,14-.51c-.44,3.33-3.39,5.74-6.39,7.25s-6.32,2.51-8.85,4.72c-3.86,3.38-5,8.8-7.54,13.28-.49.88-1.41,1.85-2.32,1.43-.52-.24-.75-.85-1-1.36-1.21-2.48-4-3.88-6.7-4.26a32.82,32.82,0,0,0-8.23.4,75,75,0,0,1-29-2.38"/><path class="cls-8" d="M412.11,141.85c3-10,5.09-19.82,5-29.42s-4.07-12-4.58-21.62c-.53-10.12,1.17-15.24,4.77-24.73a3.35,3.35,0,0,1,1.3-1.9,2.78,2.78,0,0,1,2,0l27.7,7a1.81,1.81,0,0,1,1.16.64,2.28,2.28,0,0,1,.1,1.63l-2.27,12.06a14.15,14.15,0,0,0-.25,6.14c.47,1.8,1.64,3.24,2.55,4.81,2.49,4.29,3.08,9.68,2.57,14.81s-1.55,12.88-3.08,17.8c-2.05,6.6-4.61,10.43-6.66,17a1.29,1.29,0,0,1-.46.77,1,1,0,0,1-.72,0Z"/><path class="cls-9" d="M444.17,77.76a3.05,3.05,0,0,1-2.48-1.86,3.43,3.43,0,0,1-.14-1.86l-16.87-4.28a4.79,4.79,0,0,1-2.42,1.88,6.86,6.86,0,0,1-2.88.41A52.16,52.16,0,0,0,417,80.34a42.66,42.66,0,0,0-.48,10.09,28.82,28.82,0,0,0,2.08,9.17,34.92,34.92,0,0,1,2.51,12.65,81.56,81.56,0,0,1-1.4,15.24c-.37,2.06-.82,4.2-1.35,6.45a4.54,4.54,0,0,1,2.14,1.18,3.56,3.56,0,0,1,1,3.14,3.18,3.18,0,0,1-.25.72l15.16,2.65a6.55,6.55,0,0,1,.41-.68,7.73,7.73,0,0,1,4.41-3.15l0,0,.88-2a70.61,70.61,0,0,0,3.14-8,54,54,0,0,0,1.43-6.22c.75-4.19,1.23-8.46,1.45-10.63.34-3.35.26-8.17-2-12.06-.2-.35-.43-.71-.68-1.1a16.75,16.75,0,0,1-2.32-4.8,16.88,16.88,0,0,1,0-7.42l.15-.8,1.32-7A3.67,3.67,0,0,1,444.17,77.76Z"/><path class="cls-8" d="M423.77,101.25c-.82,2.42-1.66,5-1.12,7.5a9.53,9.53,0,0,0,2.67,4.53,13.72,13.72,0,0,0,9.18,4.36,11,11,0,0,0,9.2-4.49,10.43,10.43,0,0,0,1-10.6,11.61,11.61,0,0,0-5.48-4.74,14.33,14.33,0,0,0-8.61-1.46,9.73,9.73,0,0,0-7.11,5.4Z"/><path class="cls-9" d="M427.17,101.76c-.72,2.76-.57,14.37,4.95,10.19,2.83-2.15-.08-8.9,3.75-9.28,4.8-.48,7.4,7.1,4.17,10.08-.3.28,1.18.1,1.46-.16,2.1-1.94,1.91-6.63.06-8.65A8.41,8.41,0,0,0,434,102.1c-2.43.82-1.77,4.07-2,6.18-.1,1,0,3.7-1.59,3.62-.89,0-1.53-2.11-1.71-2.79a15.74,15.74,0,0,1,.06-7.66c.07-.27-1.49-.08-1.59.3Z"/><path class="cls-9" d="M424.46,108.38c6.42-.13,12.34-1.45,18.83-.5.37.05,1.73-.54,1.34-.6-6.64-1-12.52.34-19.11.48-.32,0-1.82.63-1.06.62Z"/><path class="cls-8" d="M448,106.9c2.28,3.49,4.43,8.42,7.4,11.33.88.86,1.1,1.17,2.39,1.1,1.63-.09,3.37-1.34,4.71-2.08,3.22-1.77,6.36-3.67,9.44-5.67,1.19-.77-1.59-.56-2.16-.19-2.06,1.33-4.13,2.63-6.25,3.86-.82.48-4.08,3-5,2.65-1.15-.37-3.3-5-4-6.08l-3.7-5.66c-.49-.75-3.08.3-2.79.75Z"/><path class="cls-8" d="M436.93,145.5c3.2-.14,15.26-1.68,17.34,1.42,1,1.43.3,6.85.51,8.54.35,2.85.86,5.71,1.42,8.52.42,2.11.32,3,2.51,3s5.07-1.29,7.08-2c1.83-.66.17-1.6-1.1-1.15s-2.82.74-4.22,1.1c-.25.06-1,.43-1.22.36-1.17-.3.37.24.06-.14-1.05-1.3-1-5.8-1.32-7.49a70.19,70.19,0,0,1-.81-8.61c-.13-3.41-.07-4.24-3.25-4.71a84.91,84.91,0,0,0-15.93-.36c-1,0-2.95,1.67-1.08,1.58Z"/><path class="cls-8" d="M419.85,142.72c-.84,1.85-1.82,5.92-3.3,7.27-1.9,1.73-5.7,1.35-8.07,1.48-4.56.24-9.2-.2-13.74.1-5.22.35-3.84,4.68-3.87,9,0,.44,2.78.06,2.79-.75,0-2.08-.8-5.84,1.53-7.08.84-.45,4.9.05,5.89,0,4-.05,8.05-.26,12.06-.66,1.5-.15,3.66-.21,5-1.11,2.24-1.53,3.39-6.42,4.47-8.81.2-.43-2.42-.23-2.75.49Z"/><path class="cls-8" d="M424.19,105.93c-3.53-1.4-7.08-2.76-10.66-4-2.05-.73-5.37-2.54-7.7-2.09-1.74.34-3.14,2.25-4.26,3.42l-8.21,8.58c-1.18,1.23,1.52,1.49,2.3.68,3.12-3.26,7.68-10.41,12.65-10.11,2.2.13,5.09,1.79,7.16,2.56,2.37.88,4.73,1.8,7.09,2.74,1.06.42,3.25-1.1,1.65-1.74Z"/><path class="cls-8" d="M394.55,112.29a1.72,1.72,0,0,0-2.13-.26,4.84,4.84,0,0,0-1.57,1.69q-1.16,1.76-2.24,3.57c-.22.37-.44.86-.2,1.22a1.16,1.16,0,0,0,.64.39,26.8,26.8,0,0,0,3.68.94,1.93,1.93,0,0,0,1,0,1.86,1.86,0,0,0,1-1.29,10.85,10.85,0,0,0,.34-5.49"/><path class="cls-8" d="M469.8,111.35l1.33-2.83a2.56,2.56,0,0,1,2-1.73l1.91-.62a1.6,1.6,0,0,1,.92-.11,1.56,1.56,0,0,1,.69.54q.83,1,1.58,2a2.07,2.07,0,0,1,.56,1.59,2,2,0,0,1-.65.94c-2.8,2.67-6.89,4.37-10.58,3.22-.36-.11-.79-.43-.63-.77a.69.69,0,0,1,.32-.27l2.87-1.54"/><rect class="cls-12" x="235.65" y="296.6" width="67.67" height="89.03" rx="1" ry="1"/><polygon class="cls-13" points="239.38 303.91 299.15 303.66 299.15 344.04 299.75 366.51 291.11 377.73 282.72 382.07 239.82 381.83 239.38 303.91"/><text class="cls-14" transform="translate(245.8 317.41) rotate(-0.14)">I<tspan class="cls-15" x="4.31" y="0">n</tspan><tspan class="cls-16" x="10.74" y="0">v</tspan><tspan class="cls-17" x="16.7" y="0">entory</tspan></text><line class="cls-18" x1="246.11" y1="320.13" x2="290.47" y2="319.93"/><path class="cls-19" d="M282.07,382s5.55-3.3,7-11.56c4-.23,7.73-.18,10.57-3.83C295.12,374.32,292.93,381,282.07,382Z"/><line class="cls-20" x1="259.27" y1="330.15" x2="290.44" y2="330.01"/><line class="cls-20" x1="259.43" y1="332.67" x2="290.6" y2="332.52"/><line class="cls-20" x1="259.58" y1="335.18" x2="280.08" y2="335.25"/><rect class="cls-21" x="245.99" y="328.97" width="7.52" height="7.52"/><path class="cls-22" d="M247.33,332.27a5,5,0,0,1,2,2.19c.09.16,1.29.64,1.39.45,1.11-2.26,3-5.39,5.63-6-.09,0-.93-.62-1.33-.53-2.69.59-4.58,3.72-5.7,6l1.39.45a5.61,5.61,0,0,0-2.34-2.42c-.2-.1-1.58-.45-1-.18Z"/><line class="cls-20" x1="259.27" y1="340.31" x2="290.44" y2="340.16"/><line class="cls-20" x1="259.43" y1="342.82" x2="290.6" y2="342.68"/><line class="cls-20" x1="259.58" y1="345.34" x2="280.08" y2="345.41"/><rect class="cls-21" x="245.99" y="339.12" width="7.52" height="7.52"/><path class="cls-22" d="M247.33,342.42a5,5,0,0,1,2,2.19c.09.16,1.29.64,1.39.45,1.11-2.26,3-5.39,5.63-6-.09,0-.93-.62-1.33-.53-2.69.59-4.58,3.72-5.7,6l1.39.45a5.61,5.61,0,0,0-2.34-2.42c-.2-.1-1.58-.45-1-.18Z"/><line class="cls-20" x1="259.27" y1="350.47" x2="290.44" y2="350.32"/><line class="cls-20" x1="259.43" y1="352.98" x2="290.6" y2="352.83"/><line class="cls-20" x1="259.58" y1="355.49" x2="280.08" y2="355.56"/><rect class="cls-21" x="245.99" y="349.28" width="7.52" height="7.52"/><path class="cls-22" d="M247.33,352.58a5,5,0,0,1,2,2.19c.09.16,1.29.64,1.39.45,1.11-2.26,3-5.39,5.63-6-.09,0-.93-.62-1.33-.53-2.69.59-4.58,3.72-5.7,6l1.39.45a5.61,5.61,0,0,0-2.34-2.42c-.2-.1-1.58-.45-1-.18Z"/><line class="cls-20" x1="259.27" y1="360.62" x2="290.44" y2="360.48"/><line class="cls-20" x1="259.43" y1="363.14" x2="290.6" y2="362.99"/><line class="cls-20" x1="259.58" y1="365.65" x2="280.08" y2="365.72"/><rect class="cls-21" x="245.99" y="359.44" width="7.52" height="7.52"/><path class="cls-22" d="M247.33,362.74a5,5,0,0,1,2,2.19c.09.16,1.29.64,1.39.45,1.11-2.26,3-5.39,5.63-6-.09,0-.93-.62-1.33-.53-2.69.59-4.58,3.72-5.7,6l1.39.45a5.61,5.61,0,0,0-2.34-2.42c-.2-.1-1.58-.45-1-.18Z"/><polygon class="cls-23" points="287.29 305.5 255.23 305.5 257.01 294.28 285.5 294.28 287.29 305.5"/><rect class="cls-23" x="265.92" y="289.47" width="10.68" height="8.01" rx="2.57" ry="2.57"/><line class="cls-24" x1="267.7" y1="293.04" x2="274.82" y2="293.04"/><line class="cls-24" x1="267.7" y1="294.82" x2="274.82" y2="294.82"/><line class="cls-24" x1="267.7" y1="296.6" x2="274.82" y2="296.6"/></svg>