<svg id="Layer_1" data-name="Layer 1" xmlns="http://www.w3.org/2000/svg" xmlns:xlink="http://www.w3.org/1999/xlink" viewBox="0 0 449.08 399.55"><defs><style>.cls-1,.cls-11,.cls-12,.cls-18,.cls-20,.cls-22,.cls-28,.cls-30{fill:none;}.cls-19,.cls-2{fill:#fcd3c1;}.cls-3{fill:#942784;}.cls-4{fill:#e5b09b;}.cls-5{fill:#7c196e;}.cls-6{fill:#412b26;}.cls-7{fill:#4a053e;}.cls-8{fill:#dab8a9;}.cls-9{fill:#231f20;}.cls-10{fill:#fff;}.cls-11,.cls-18{stroke:#e5988a;}.cls-11,.cls-12,.cls-18,.cls-19,.cls-20,.cls-22,.cls-28,.cls-30{stroke-miterlimit:10;}.cls-11{stroke-width:0.71px;}.cls-12{stroke:#231f20;stroke-width:1.42px;}.cls-13{clip-path:url(#clip-path);}.cls-14{fill:#512f15;}.cls-15{fill:#060000;}.cls-16{clip-path:url(#clip-path-2);}.cls-17{fill:#e5988a;}.cls-18{stroke-width:1.31px;}.cls-19,.cls-20{stroke:#e5b09b;}.cls-21{fill:#76cde1;}.cls-22{stroke:#76cde1;stroke-width:0.35px;stroke-dasharray:1.42;}.cls-23{font-size:21.79px;fill:#75cee2;font-family:AvenirNextLTPro-Regular, Avenir Next LT Pro;}.cls-24{letter-spacing:-0.1em;}.cls-25{letter-spacing:-0.01em;}.cls-26{font-size:59.77px;}.cls-26,.cls-27,.cls-29{fill:#f89839;}.cls-26,.cls-27{font-family:Cutive-Regular, Cutive;}.cls-27{font-size:43.02px;}.cls-28{stroke:#f89839;stroke-linecap:round;stroke-width:7.08px;}.cls-30{stroke:#7c196e;stroke-width:1.13px;}</style><clipPath id="clip-path"><path class="cls-1" d="M128.7,153.53a75.61,75.61,0,0,1-11.23,1.4,36.34,36.34,0,0,1-8.89-1.4s2.81-4.68,10.77-4.68S128.7,153.53,128.7,153.53Z"/></clipPath><clipPath id="clip-path-2"><path class="cls-1" d="M166.12,150A75.61,75.61,0,0,1,155,152a36.34,36.34,0,0,1-9-.91s2.54-4.83,10.49-5.27S166.12,150,166.12,150Z"/></clipPath></defs><title>NumeracyArtboard 30</title><path class="cls-2" d="M185.79,230.53s19,7,23.16,11.87,15.14,38.51,15.78,51.35,14.49,60.2,1,57.1-20.54-23.48-22.47-28.35-12.7-30.62-13-32.64C188.22,276.87,183.21,244.7,185.79,230.53Z"/><path class="cls-2" d="M88.82,235.11s44.3,39.23,52.54,39.68,44-36.91,46.26-44.24c-12.61-4.73-24.14-9.59-25.4-9.64-13.76-.5-12.73-8.68-38.54-1.75C116.5,221.1,95.83,231.61,88.82,235.11Z"/><path class="cls-3" d="M181.81,314.89c4.47-17.87,17.26-70.47,17.94-77.34-1.26-1.67-7-4.7-13-7.4l-.08,0c-2.39,7.42-37.06,45.08-45.29,44.62-7.88-.44-48.72-36.42-52.45-39.72-7.4,2.3-10.59,6.55-10.59,6.55-3.09,11,12.92,72.55,17,87.33s-9.74,85.32-8,87.38,53.87,14.3,62.12,12.92,43.7-12.84,55-17.65C202.1,404.39,177.34,332.77,181.81,314.89Z"/><path class="cls-3" d="M86.68,267.48s-1.68,6.37-5,23.48-4.7,28.51,9.06,38.91c14.09,5.7,14.76-2,15.43-5.37S90,271.17,86.68,267.48Z"/><path class="cls-3" d="M184,265.82s1.68,6.37,5,23.48,4.7,28.51-9.06,38.91c-14.09,5.7-14.76-2-15.43-5.37S180.66,269.51,184,265.82Z"/><path class="cls-4" d="M140.63,274.21s-4.51-6.67-7.58-9.38c6.49,2.71,10.28,5.23,15,.54C143.16,270.24,142.43,271,140.63,274.21Z"/><circle class="cls-5" cx="144.36" cy="280.78" r="2.13"/><circle class="cls-5" cx="148.63" cy="289.51" r="2.13"/><circle class="cls-5" cx="151.54" cy="297.47" r="2.13"/><circle class="cls-5" cx="154.45" cy="304.65" r="2.13"/><path class="cls-6" d="M107.87,184.19s-9.36,6.32-10.06,15.21-.94,22.23,1.64,28.79c.23-.7.7-9.36.7-9.36s2.11,2.57,1.17,10.3-1.17,14-.7,14.74,15-9.6,15.21-11.7,7.25-39.55,7.25-39.55Z"/><path class="cls-7" d="M83.24,259.7s-1.68,6.39-5,23.53-4.71,28.58,9.08,39c14.12,5.72,14.79-2,15.46-5.38S86.61,263.4,83.24,259.7Z"/><path class="cls-8" d="M170.36,147.68s8.43-6.32,6.79,4.68c-.7,8.19-1.87,10.3-1.64,13.11s-4,8.89-4.21,6.55S170.36,147.68,170.36,147.68Z"/><path class="cls-2" d="M121.29,194.48l.67,25.89S109.52,237,112,243.23s16.31,15,24.37,13.78,21.68-5.88,25.38-10.59,4.2-21.33,4.2-22.68-6.74-5.66-6.9-7,0-23.77,0-23.77Z"/><path class="cls-4" d="M126.57,199.76s3.37,11.53,28.94,21.07c4.16-2.66,1.59-29.28,1.59-29.28Z"/><path class="cls-4" d="M127.07,199.92S130.44,211.46,156,221c4.16-2.66,1.59-29.28,1.59-29.28Z"/><path class="cls-2" d="M148.13,107S165.91,118.43,168,129.9s1.87,15,2.34,17.79,1.87,25.51,1.4,29S161,209,146,210.4s-29.72-7.72-37.21-19.19-12.64-30.66-13.11-35.34-3.28-20.36-3.28-20.36l4.91-20.36s17.79-7.25,19.66-8,18.49-3.74,18.49-3.74Z"/><path class="cls-6" d="M95.24,162.43s-3.74-5.38-5.15-10.06-4.21-24.34,0-33.47,17.08-27.38,37-27.85C139.7,91,149.3,92,148.13,107c-8-.94-30.42,1.4-33.93,4S99,118.43,98.28,122.88s1.4,5.85,0,12.17-4.45,4.45-3.28,12.87,3.28,19.42,3.28,19.42Z"/><path class="cls-6" d="M155.07,99.08s12.48,13.73,15,21.22,3.12,25,1.25,30.58c-1.25-9.36-3.12-20.59-6.86-26.21s-13.11-15-19.35-16.85l-6.24-1.87S143.21,96.59,155.07,99.08Z"/><path class="cls-9" d="M128.24,139.33a22,22,0,0,0-7.18-2.5c-4.06-.62-11.55,0-15.29,5,4.06-2.18,11.23-4.37,18.1-2.81C125.74,140,126.67,140.89,128.24,139.33Z"/><path class="cls-9" d="M142.81,139.09s4.63-6.65,15.76-6.94a14.59,14.59,0,0,1,6.49,2.6s-9.89-3.18-16.69,1.44C145.9,137.93,143.74,140.53,142.81,139.09Z"/><path class="cls-9" d="M92,156.5l9,.31s4.37,2.81,5.93,3.12c0-1.87-1.87-8.11-.94-8.74a10.57,10.57,0,0,0-5,0v1.56l-11-.39Z"/><path class="cls-10" d="M128.7,153.53a75.61,75.61,0,0,1-11.23,1.4,36.34,36.34,0,0,1-8.89-1.4s2.81-4.68,10.77-4.68S128.7,153.53,128.7,153.53Z"/><path class="cls-11" d="M132.29,169.92a9.28,9.28,0,0,1,6.55,1.56c2.81,2.18,4.68,1.25,6.24.31s2.5-2.18,4.37-1.56c1.87-.62,1.87-1.25,1.87-2.5"/><path class="cls-12" d="M105.3,148.15s1.17,11.23,2.11,12.64,19.89,3.51,24.11-1.4c1.87-4.21,2.81-9.36-.47-12.64S114,143,105.3,148.15Z"/><path class="cls-12" d="M168.72,143.61s-.15,11.29-1,12.78-19.5,5.29-24.13.77c-2.24-4-3.64-9.07-.67-12.63S159.63,139.26,168.72,143.61Z"/><path class="cls-12" d="M133.23,151.82s5.62-2.81,9,.31"/><g class="cls-13"><circle class="cls-14" cx="115.22" cy="150.17" r="3.74"/><circle class="cls-15" cx="115.22" cy="150.17" r="2.26"/></g><path class="cls-4" d="M119.34,148.85c6.8,0,8.81,3.41,9.25,4.4a6.38,6.38,0,0,0,.81-.07,12.14,12.14,0,0,0-10.18-6.08c-6.55,0-11.58,6-11.58,6l1.25,0C109.83,151.93,112.89,148.85,119.34,148.85Z"/><path class="cls-10" d="M166.12,150A75.61,75.61,0,0,1,155,152a36.34,36.34,0,0,1-9-.91s2.54-4.83,10.49-5.27S166.12,150,166.12,150Z"/><g class="cls-16"><circle class="cls-14" cx="152.57" cy="147.13" r="3.74" transform="translate(-7.94 8.71) rotate(-3.19)"/><circle class="cls-15" cx="152.57" cy="147.13" r="2.26" transform="translate(-7.94 8.71) rotate(-3.19)"/></g><path class="cls-4" d="M156.51,145.85c6.79-.38,9,2.91,9.48,3.88a6.38,6.38,0,0,0,.81-.12,12.14,12.14,0,0,0-10.5-5.51c-6.54.36-11.23,6.6-11.23,6.6l1.25,0C147.18,149.45,150.07,146.21,156.51,145.85Z"/><path class="cls-9" d="M168.8,145.73s3.43,1.09,3.59,1.56-1.09,4.21-1.09,4.21l-3.12,3.12Z"/><path class="cls-2" d="M98.28,163.91s-5-7.59-7.37-7.15-3.9,1.3-1.73,8.45,8.24,13.44,8.67,14.52,5.2,2.38,6.29,1.08S98.28,163.91,98.28,163.91Z"/><path class="cls-17" d="M90.26,162.83c-.43-2.6-.43-3.25,1.52-2.82s6.94,11.49,6.94,11.49-1.08,5.2,1.3,6.29"/><path class="cls-4" d="M78.42,241.32a42.36,42.36,0,0,0-9.17,25.84c.1,15.19.25,39.77-.15,45.27s2.66,22.3,6.73,31,23.88.86,25-6.15S98.91,314,99.43,308.72s5.4-14.68-1.41-32S78.42,241.32,78.42,241.32Z"/><path class="cls-4" d="M224.1,288.45c-5.43,8.85-15.26,26.87-16.87,43.57,3.69,7.59,9.71,16.83,18.46,18.84,13.53,3.1-.32-44.27-1-57.1A48.27,48.27,0,0,0,224.1,288.45Z"/><path class="cls-6" d="M140.83,106a47.24,47.24,0,0,0-19,15.41c-7.9,11.07-22.53,3.16-21.74,23.71a252.1,252.1,0,0,0,4.35,37.54s-4.35-13-5.53-17-6.72-16.6-6.72-24.11,0-20.55,5.14-24.9S125.82,98.14,140.83,106Z"/><path class="cls-4" d="M112.6,257.7s6.17,1.27,9.16-1.59a44,44,0,0,0,5.64-7s-.67,4.54-.8,5.14,5.06-1.72,6.19-3.79-1.56,5.23-10.1,7.14A34.12,34.12,0,0,1,112.6,257.7Z"/><path class="cls-18" d="M140.79,233s-.45,3-1.58,3.28-4.14,1.23-4.67-.07"/><path class="cls-4" d="M130.44,255.11s5.31-3.2,7.32-6.8c1.67-3,2.56-3.9,3.56-5.65s1.13-6.8,1.63-11.8,0-15,0-15.75-.25-2.5-.25-2.5l-9.5-3-3.44,32.6-.66,13.49Z"/><path class="cls-2" d="M71.06,310.36c1.68-2.51,5.69-7.17,9.61-11.76l3.5-4.72s13.14-19.74,14.19-21.61,8.34-12.92,10.08-14.74c1.06-1.11,5.72,1.13,12,1.48l3.38-.25,0,.44c3.19.19,3.53,0,3.53,0L115,296.29a72.4,72.4,0,0,0-1.62,8.33c-1.16,10.5-5.83,26.56-7.9,31.11S89.42,348.52,87,349.86s-8.11,1.11-10,.24-5.82-8.43-6.91-11.34-1.38-7.84-2.45-10.53S68.41,314.32,71.06,310.36Z"/><path class="cls-19" d="M120.18,214.19s3.1-8.9,3.3-10.67,0-3.31,1.11-4,13.19-2,14.19-1.76S144.3,202,144.3,202s3.2,4.31-.5,6.08-8-1.84-8-1.84a30.18,30.18,0,0,1-5.89,1.23c-1.94,0,0,3.12,0,3.12Z"/><path class="cls-2" d="M107.88,254.43s-.3-15.13-.62-18-.84-11.18.53-12.89,2.41-2.79,2.41-2.79.77-3.58,2.46-4.16,6.32-2.64,6.32-2.64l11.66-5.36c1.67-.77,4.29-1.64,5.61-.23s5.75,8.12,6.09,9.44.06,7.58-.05,8.37a21.34,21.34,0,0,0-.24,3.14c.06.58.06,4.08,0,5.06s-1.16,7.13-3,9.66-7.93,7.48-9.08,9.36-2.72,7.1-3.57,8.17-1.4,8.51-8.12,11S105.54,265,105.54,265Z"/><path class="cls-4" d="M122.29,231.65a7.35,7.35,0,0,0-5.78-1.31c4.76-.91,6-2.4,5.3-3.11s-5.55-2.7-5.55-2.7l6.46,2.21a2.81,2.81,0,0,0,.71-2.41c-.34-1.32.25,2.31.25,2.31l-.07,2Z"/><path class="cls-20" d="M123.57,229.18a44.69,44.69,0,0,1-2.2,4.71c-1,1.66.17,3.29,2.24,4.42s2.39-1.24,3-3,4.44-3.79,4.93-4.63-.63-5.76-1.16-8.81a4.62,4.62,0,0,0-3.92-3.85c-1-.28-13.94,2.31-13.94,2.31"/><path class="cls-20" d="M117.51,216.43s13.11-2.8,13.72-2.48,4.2,1.09,4.2,2.84.9,13.51-.36,16.18-2.57,6.7-4.49,6.91-4.63.31-4.76-.84"/><path class="cls-21" d="M288.24,263.23c3.28-.91,10.53-2.09,11.14-6.38.42-2.92-3.87-10.31-6.26-11.86-1.36-.89-.31-.46-2-.57s-4.52,1.4-6.2,1.94c-.75.24-3.62,1.67-3.92,1.57-.86-.29-2.31-3.63-2.76-4.32a24,24,0,0,0-2.5-3.84c-.78-.79-1.6-1.51-2.84-1.2-2.2.54-1,2.33-.35,3.9s1.46,3.24,2.23,4.84,2.55,3.82,2.84,5.52c.36,2.09.19,1.2-1.86.68a7.48,7.48,0,0,0-2.18-.35c-2.24.31-2.13,1.73-.52,3.43,3.28,3.45,10.35,5.15,14.76,6.74.54.19.77-.66.24-.86-4.11-1.48-8.63-3-12.4-5.23-2-1.2-3.59-2.46-1.11-3,1.29-.3,3.49,1,4.63,1.4a.45.45,0,0,0,.55-.31c.16-.83-.2-.37-.45-1.39-.58-2.42-3-5.55-4.12-7.85a15.22,15.22,0,0,1-1.49-3.23L273,241.3l2.63-.14c1.17.61,4.3,5.91,4.57,7.17a.45.45,0,0,0,.55.31c2.61-.86,5.26-1.93,7.95-2.56,3.3-.78,3.95-.6,5.74,2a29.8,29.8,0,0,1,2.07,3.49c1.34,2.66,3.06,5.1.38,7.46-2.19,1.93-6.08,2.56-8.84,3.32a.44.44,0,0,0,.24.86Z"/><path class="cls-22" d="M269.48,239.09a2.49,2.49,0,0,0-.85,2,4.84,4.84,0,0,0,1,3.21,5.87,5.87,0,0,0,1.85,1.41"/><path class="cls-22" d="M267.77,237.43a4.16,4.16,0,0,0-1.25,2.41,7.62,7.62,0,0,0-.14,2.74,6.44,6.44,0,0,0,2.16,3.83,7.9,7.9,0,0,0,4,1.8"/><path class="cls-22" d="M274.43,236.25a2.49,2.49,0,0,1,2.14.34,4.84,4.84,0,0,1,2.16,2.59,5.87,5.87,0,0,1,.22,2.31"/><path class="cls-22" d="M273.94,233.92a4.16,4.16,0,0,1,2.71.22,7.62,7.62,0,0,1,2.4,1.35,6.44,6.44,0,0,1,2.09,3.87,7.9,7.9,0,0,1-.62,4.38"/><text class="cls-23" transform="translate(309.72 258.03)"><tspan class="cls-24">T</tspan><tspan x="10.33" y="0">ap </tspan><tspan class="cls-25" x="41.24" y="0">Z</tspan><tspan x="53.45" y="0">oey</tspan></text><text class="cls-26" transform="translate(18.34 109.04) rotate(-19.52)">8</text><text class="cls-26" transform="translate(137.25 52.34) rotate(17.55)">36</text><text class="cls-27" transform="matrix(1, 0.03, -0.03, 1, 265.81, 128.37)">5</text><text class="cls-26" transform="matrix(1, 0.03, -0.03, 1, 309.01, 178.38)">10</text><line class="cls-28" x1="73.23" y1="30.64" x2="107.44" y2="30.64"/><line class="cls-28" x1="277.13" y1="46.11" x2="310.63" y2="39.18"/><line class="cls-28" x1="290.27" y1="25.18" x2="297.5" y2="60.11"/><line class="cls-28" x1="203.79" y1="132.46" x2="227.98" y2="157.68"/><line class="cls-28" x1="227.98" y1="132.46" x2="203.79" y2="157.68"/><line class="cls-28" x1="20.96" y1="212.87" x2="50.21" y2="195.13"/><ellipse class="cls-29" cx="28.42" cy="190.86" rx="4.85" ry="5.06" transform="translate(-94.86 42.41) rotate(-31.24)"/><ellipse class="cls-29" cx="43.43" cy="215.6" rx="4.85" ry="5.06" transform="translate(-105.51 53.77) rotate(-31.24)"/><path class="cls-2" d="M238.07,239.4s-7.54,20.71-9.47,27.79-4.19,21.25-9.34,34.09-8.37,24.79-6.76,31.87,7.73,22.58,21.26,20.36c5.8-2.66,7.41,3.1,10.63-24.35s7.86-74.27,8.83-80.47-1.93-13.72-7.73-14.61S238.07,239.4,238.07,239.4Z"/><path class="cls-2" d="M246.72,172.91c-.6,2.62-4.13,30.83-4.13,30.83l7.1-1.05s1-5.36.8-6.26.39-12.5.6-13.6l.5-12.87S247.85,168,246.72,172.91Z"/><path class="cls-2" d="M253.73,241.36S258,229,259.09,226.68s3.7-9,3-10.77-1.24-3-1.24-3,.33-3.16-.91-4.09-4.5-3.88-4.5-3.88l-8.17-7.56c-1.17-1.08-3.1-2.51-4.57-1.7s-6.93,5.14-7.56,6.14a44.84,44.84,0,0,0-2.21,6.91,18.51,18.51,0,0,1-.65,2.65c-.21.46-1.15,3.34-1.34,4.18s-1,6.19-.11,8.78,4.52,8.3,5,10.16.33,6.59.75,7.7-1.14,7.39,3.74,11.25,12.49-2.81,12.49-2.81Z"/><path class="cls-4" d="M248.9,240.65s-5.42-.62-7.12-3.77a38.12,38.12,0,0,1-2.76-7.32s-.67,3.93-.73,4.45-3.71-2.78-4.09-4.79-.12,4.73,6.41,8.6A29.59,29.59,0,0,0,248.9,240.65Z"/><path class="cls-4" d="M248,218.71a6.37,6.37,0,0,1,5.12.48c-3.68-2-4.26-3.58-3.53-4s5.3-.73,5.3-.73l-5.92.08a2.43,2.43,0,0,1,.07-2.18c.64-1-.83,1.83-.83,1.83l-.5,1.71Z"/><path class="cls-20" d="M247.59,216.33a38.75,38.75,0,0,0,.55,4.48c.36,1.64-1,2.66-3,3s-1.64-1.66-1.63-3.31-2.64-4.32-2.82-5.14,2.07-4.58,3.33-7a4,4,0,0,1,4.27-2.11c.9,0,10.87,5.65,10.87,5.65"/><path class="cls-20" d="M256,207.45s-10.05-5.84-10.65-5.74-3.76-.23-4.23,1.21-4.38,10.89-4.06,13.43.32,6.21,1.84,6.9,3.73,1.51,4.15.59"/><path class="cls-20" d="M232.3,212.72s-.43,2.57.42,3.13,3.08,2.13,3.87,1.2"/><path class="cls-20" d="M242.74,195.74s6.86,3.85,7.61,4.72"/><path class="cls-17" d="M150.62,188.94c-7.88,4.35-17-.87-17-.87"/><path class="cls-17" d="M142.38,182.15s-8.29-2.49-14.64-.41c5.94,2.91,13.18,2.74,14.42,2.87s11.92.1,14.53-.82C156.49,182.8,153.73,181.71,142.38,182.15Z"/><path class="cls-30" d="M145.07,274.56s30.49,41.81,34.73,145.65"/><path class="cls-30" d="M137.59,273.81s14.15,37.83,15.51,39.77,12.62,10.67,14,17.47"/></svg>