<svg id="Layer_1" data-name="Layer 1" xmlns="http://www.w3.org/2000/svg" viewBox="0 0 395.38 143.13"><defs><style>.cls-1{fill:#76cde1;}.cls-2{fill:none;stroke:#76cde1;stroke-width:0.35px;stroke-dasharray:1.42;}.cls-2,.cls-5{stroke-miterlimit:10;}.cls-3{font-size:21.79px;fill:#75cee2;font-family:AvenirNextLTPro-Regular, Avenir Next LT Pro;}.cls-4{letter-spacing:-0.1em;}.cls-5{fill:#fff;stroke:#d61a69;stroke-width:2px;}.cls-6{fill:#8dcb8b;}.cls-7{fill:#569a59;}.cls-8{fill:#faed0c;}.cls-9{fill:#fff684;}</style></defs><title>NumeracyArtboard 91</title><path class="cls-1" d="M250.6,76.16c3.28-.91,10.53-2.09,11.14-6.38.42-2.92-3.87-10.31-6.26-11.86-1.36-.89-.31-.46-2-.57s-4.52,1.4-6.2,1.94c-.75.24-3.62,1.67-3.92,1.57-.86-.29-2.31-3.63-2.76-4.32a24,24,0,0,0-2.5-3.84c-.78-.79-1.6-1.51-2.84-1.2-2.2.54-1,2.33-.35,3.9s1.46,3.24,2.23,4.84,2.55,3.82,2.84,5.52c.36,2.09.19,1.2-1.86.68a7.48,7.48,0,0,0-2.18-.35c-2.24.31-2.13,1.73-.52,3.43,3.28,3.45,10.35,5.15,14.76,6.74.54.19.77-.66.24-.86-4.11-1.48-8.63-3-12.4-5.23-2-1.2-3.59-2.46-1.11-3,1.29-.3,3.49,1,4.63,1.4a.45.45,0,0,0,.55-.31c.16-.83-.2-.37-.45-1.39-.58-2.42-3-5.55-4.12-7.85A15.22,15.22,0,0,1,236,55.76l-.69-1.52L238,54.1c1.17.61,4.3,5.91,4.57,7.17a.45.45,0,0,0,.55.31c2.61-.86,5.26-1.93,7.95-2.56,3.3-.78,3.95-.6,5.74,2a29.8,29.8,0,0,1,2.07,3.49c1.34,2.66,3.06,5.1.38,7.46-2.19,1.93-6.08,2.56-8.84,3.32a.44.44,0,0,0,.24.86Z"/><path class="cls-2" d="M231.84,52a2.49,2.49,0,0,0-.85,2,4.84,4.84,0,0,0,1,3.21,5.87,5.87,0,0,0,1.85,1.41"/><path class="cls-2" d="M230.13,50.36a4.16,4.16,0,0,0-1.25,2.41,7.62,7.62,0,0,0-.14,2.74,6.44,6.44,0,0,0,2.16,3.83,7.9,7.9,0,0,0,4,1.8"/><path class="cls-2" d="M236.79,49.18a2.49,2.49,0,0,1,2.14.34,4.84,4.84,0,0,1,2.16,2.59,5.87,5.87,0,0,1,.22,2.31"/><path class="cls-2" d="M236.29,46.85a4.16,4.16,0,0,1,2.71.22,7.62,7.62,0,0,1,2.4,1.35,6.44,6.44,0,0,1,2.09,3.87,7.9,7.9,0,0,1-.62,4.38"/><text class="cls-3" transform="translate(271.9 70.96)"><tspan class="cls-4">T</tspan><tspan x="10.33" y="0">ap me for </tspan><tspan x="0" y="26.15">solution</tspan></text><path class="cls-5" d="M208.31,74.75A35.74,35.74,0,0,0,204.59,59c-.32-13.06-7.93-24-18.21-27.29A34.4,34.4,0,0,0,129,16.2C124.81,7.14,116.64,1,107.25,1,96.86,1,88,8.52,84.27,19.18,79.72,12.62,72.8,8.43,65,8.43c-10.54,0-19.54,7.74-23.13,18.66a34.48,34.48,0,0,0-20.63,65.3c.32.58.65,1.16,1,1.73a34.28,34.28,0,0,0-.55,6.1c0,16.12,11.1,29.18,24.8,29.18A22.5,22.5,0,0,0,62,123l2.28.81a34.38,34.38,0,0,0,55.38,7.52q3.79-.17,7.5-.51a34.4,34.4,0,0,0,53.34-16.12C197.68,104.47,208.31,90.35,208.31,74.75Z"/><path class="cls-6" d="M62.55,64.67C75.07,70.09,87.49,74.42,100,75.83s16.29-3.39,28.81-2.53c13.23.91,19.61,3.93,31.38,10.11a4.39,4.39,0,0,1,2.26,2A3.64,3.64,0,0,1,162.1,88l-13.52,34.87a2.37,2.37,0,0,1-1,1.4,3,3,0,0,1-2.14-.13l-15.3-4.86c-2.58-.82-5.29-1.65-7.93-1.29-2.41.33-4.47,1.62-6.65,2.55-6,2.55-13.06,2.47-19.65,1s-16.49-4-22.64-6.81C65,111,60.43,107.06,52.19,103.35a1.69,1.69,0,0,1-.92-.71,1.36,1.36,0,0,1,.05-.94Z"/><path class="cls-7" d="M140.75,116.47a4,4,0,0,1,2.81-2.93,4.5,4.5,0,0,1,2.43.12l8.23-21.24A6.26,6.26,0,0,1,152.16,89a9,9,0,0,1-.08-3.8,68.27,68.27,0,0,0-10.4-4.36,55.83,55.83,0,0,0-13-2.23,37.72,37.72,0,0,0-12.25,1.25,45.7,45.7,0,0,1-16.83,1.26A106.74,106.74,0,0,1,80,76.84c-2.61-.81-5.32-1.73-8.16-2.78A5.94,5.94,0,0,1,70,76.66a4.67,4.67,0,0,1-4.24.76,4.16,4.16,0,0,1-.9-.44L59,96.25a8.57,8.57,0,0,1,.82.64,10.12,10.12,0,0,1,3.4,6.23l0,0,2.47,1.46a92.41,92.41,0,0,0,9.9,5.34,70.64,70.64,0,0,0,7.86,2.85c5.33,1.64,10.8,2.94,13.58,3.56,4.3,1,10.57,1.63,16-.68.48-.21,1-.45,1.53-.71a21.92,21.92,0,0,1,6.61-2.25,22.09,22.09,0,0,1,9.63,1.22l1,.32,8.9,2.83A4.8,4.8,0,0,1,140.75,116.47Z"/><path class="cls-6" d="M113.46,86.24c-3-1.45-6.27-2.95-9.56-2.64a12.48,12.48,0,0,0-6.31,2.75,18,18,0,0,0-7.12,11.24,14.42,14.42,0,0,0,4.38,12.67c3.56,3.29,9.19,4.66,13.62,2.93a15.19,15.19,0,0,0,7-6.37,18.75,18.75,0,0,0,3.27-11,12.73,12.73,0,0,0-5.89-10.09Z"/><path class="cls-7" d="M113.17,91.12c-2.81-1.11-16.69-3.84-16.26,2.63.25,3.74,6.81,4,9.37,4.57,1.93.42,3,.87,2.92,3.27a9.17,9.17,0,0,1-1.53,4.36c-2.18,3-8.48,3.31-10.75.16-.44-.61-2.49.12-2,.85,1.88,2.61,6,2.92,8.95,2.6a7.84,7.84,0,0,0,6.57-5.16c1.07-2.59,2.19-5.86-1-6.87-2.36-.74-5.07-.66-7.35-1.6-6.1-2.51-1.23-4.72,2.48-5.06a16.27,16.27,0,0,1,6.92,1.31c.66.26,2.59-.7,1.68-1.06Z"/><path class="cls-7" d="M103.35,87c-.86,8.45-.05,16.25-2.35,24.63-.1.36,1.95.11,2.09-.39,2.3-8.39,1.53-16.31,2.39-24.8,0-.21-2.06,0-2.12.57Z"/><path class="cls-8" d="M72.8,83a13.51,13.51,0,0,1-7.87-11.68,5.7,5.7,0,0,1,.79-3.42c1.29-1.88,3.91-2.09,6-3,4.88-2,7-8.79,4.2-13.25a7.63,7.63,0,0,1,3.57,9.06c2.59-.86,3.76-3.92,3.86-6.65s-.52-5.5,0-8.17,2.93-5.32,5.61-4.79a4.91,4.91,0,0,0,6.82,6.77c3.59-2.36,2.65-7.73,3.51-11.94a12.72,12.72,0,0,1,13.14-9.78c-3.33,2.06-3.62,7.6-.52,10s8.38.72,9.54-3c.93-3-.56-6.18-1.49-9.2s-1-7,1.72-8.62c-1.37,4,3.28,7.27,5.31,11a9.58,9.58,0,0,1-8.14,14.18c-.51,2.07.91,4.23,2.78,5.28a14.84,14.84,0,0,0,6.2,1.39c2.18.17,4.85.09,5.93-1.82,2.09-3.73-4.87-8.27-2.54-11.86a7.85,7.85,0,0,0,2.35,3.17,2.7,2.7,0,0,0,3.6-.31c.93-1.28,0-3.08-1-4.25s-2.39-2.41-2.32-4c0,3.44,5.33,3.8,7.33,6.6,2.11,3-.37,6.91-.75,10.52a17.73,17.73,0,0,0,1,6.53l3.52,12.59a3.24,3.24,0,0,0,.35.9c1.08,1.67,3.91-.17,3.84-2.15s-1.57-3.58-2.45-5.36-.72-4.54,1.2-5.06a5.45,5.45,0,0,0,5.85,6c1.2-1.11.46-3.12-.56-4.39S150.82,51.63,151,50a2.51,2.51,0,0,1,5,.35c0,.62-.25,1.23-.23,1.86,0,1.23,1,2.18,1.84,3.1a14,14,0,0,1,2.66,13.62c-2.65,7.59-11.3,11.56-14.81,18.79-1.75,3.6-2.47,8.25-6,10.05-2.75,1.39-6.14.4-8.77-1.2s-4.92-3.8-7.73-5.06c-6.32-2.84-13.6-.41-20.52-.11-10.52.46-20.54-4.08-30.08-8.53"/><path class="cls-9" d="M80.48,85.91a32.41,32.41,0,0,1-2.83-15c1.67,3.46,7.29,2.82,9.58-.26s2.21-7.26,2-11.09a14.1,14.1,0,0,0,5.1,3.8c2,.7,4.62.24,5.7-1.6a8.46,8.46,0,0,0,.79-2.85A21,21,0,0,1,105.56,49c-.16,2.45.56,5.13,2.56,6.56s5.36.85,6.18-1.46-1.1-4.72-1.1-7.18c2.79,6.08,11,9,17,6,1.49,5.09,3.16,10.47,7.16,14s11.12,3.92,14-.51c-.44,3.33-3.39,5.74-6.39,7.25s-6.32,2.51-8.85,4.72c-3.86,3.38-5,8.8-7.54,13.28-.49.88-1.41,1.85-2.32,1.43-.52-.24-.75-.85-1-1.36-1.21-2.48-4-3.88-6.7-4.26a32.82,32.82,0,0,0-8.23.4,75,75,0,0,1-29-2.38"/></svg>