<svg id="Layer_1" data-name="Layer 1" xmlns="http://www.w3.org/2000/svg" viewBox="0 0 500 334.61"><defs><style>.cls-1{fill:#d61a69;}.cls-2{font-size:22.61px;fill:#fff;font-family:Cutive-Regular, Cutive;}.cls-3{letter-spacing:-0.02em;}.cls-4{letter-spacing:-0.03em;}.cls-5{letter-spacing:0em;}.cls-6{fill:#6c1f5d;}.cls-7{letter-spacing:-0.01em;}.cls-8{letter-spacing:-0.02em;}.cls-9{letter-spacing:-0.01em;}</style></defs><title>NumeracyArtboard 56</title><ellipse class="cls-1" cx="103.2" cy="168.82" rx="103.2" ry="48.96"/><text class="cls-2" transform="translate(50.04 177.3)"><tspan class="cls-3">W</tspan><tspan x="25.14" y="0">is</tspan><tspan class="cls-4" x="47.46" y="0">d</tspan><tspan class="cls-5" x="63.26" y="0">om</tspan></text><rect class="cls-6" x="174.67" y="213.21" width="6.07" height="61.14" transform="translate(-121.12 202.36) rotate(-46.02)"/><polygon class="cls-6" points="183.09 206.93 124.36 192.31 141.06 250.48 183.09 206.93"/><rect class="cls-6" x="141.22" y="230.5" width="74.35" height="25.8" transform="translate(137.74 542.41) rotate(-136.02)"/><ellipse class="cls-1" cx="264.79" cy="285.65" rx="103.2" ry="48.96"/><text class="cls-2" transform="translate(189.39 294.13)">Kn<tspan class="cls-7" x="39.47" y="0">o</tspan><tspan x="54.4" y="0">wled</tspan><tspan class="cls-8" x="117.35" y="0">g</tspan><tspan x="132.01" y="0">e</tspan></text><rect class="cls-6" x="336.34" y="214.03" width="61.14" height="6.07" transform="translate(-44.07 330.34) rotate(-46.02)"/><polygon class="cls-6" points="330.06 211.67 315.44 270.4 373.61 253.7 330.06 211.67"/><rect class="cls-6" x="329.35" y="203.47" width="74.35" height="25.8" transform="translate(776.74 102.89) rotate(133.98)"/><ellipse class="cls-1" cx="396.8" cy="152.51" rx="103.2" ry="48.96"/><text class="cls-2" transform="translate(321.39 160.99)">In<tspan class="cls-9" x="28.16" y="0">f</tspan><tspan x="39.39" y="0">ormation</tspan></text><rect class="cls-6" x="302.35" y="52.15" width="6.07" height="61.14" transform="translate(65.94 289.52) rotate(-55.97)"/><polygon class="cls-6" points="306.45 119.95 366.82 124.2 340.32 69.79 306.45 119.95"/><rect class="cls-6" x="267.6" y="70.33" width="74.35" height="25.8" transform="translate(98.76 -156.3) rotate(34.03)"/><ellipse class="cls-1" cx="203.34" cy="48.96" rx="103.2" ry="48.96"/><text class="cls-2" transform="translate(173.07 57.44)">Data</text></svg>