<svg id="Layer_1" data-name="Layer 1" xmlns="http://www.w3.org/2000/svg" xmlns:xlink="http://www.w3.org/1999/xlink" viewBox="0 0 644 284">
   <defs>
      <style>.cls-1,.cls-11,.cls-12,.cls-29,.cls-31,.cls-42,.cls-45,.cls-47,.cls-49,.cls-54,.cls-55,.cls-56,.cls-6,.cls-7{fill:none;}.cls-2{fill:#e3f4f8;}.cls-3{fill:#aee0eb;}.cls-4{fill:#75cee2;}.cls-5{fill:#c8e9f1;}.cls-6,.cls-7{stroke:#98c3ce;}.cls-11,.cls-12,.cls-29,.cls-31,.cls-39,.cls-42,.cls-44,.cls-45,.cls-47,.cls-49,.cls-54,.cls-55,.cls-56,.cls-6,.cls-7{stroke-miterlimit:10;}.cls-6{stroke-width:3.1px;}.cls-7{stroke-width:1.86px;}.cls-10,.cls-8{fill:#f8ec12;}.cls-9{fill:#efb526;}.cls-10{font-size:35.14px;font-family:Cutive-Regular, Cutive;}.cls-11{stroke:#efb526;}.cls-11,.cls-12{stroke-width:0.75px;}.cls-12{stroke:#d61a69;}.cls-13{fill:#d61a69;}.cls-14{fill:#8f4a1e;}.cls-15{fill:#3d3234;}.cls-16{fill:#a35525;}.cls-17{fill:#36372e;}.cls-18{fill:#2d2c28;}.cls-19{fill:#fff;}.cls-20{fill:#e3e4de;}.cls-21{fill:#2b140f;}.cls-22{fill:#733617;}.cls-23{fill:#f49796;}.cls-24{fill:#ed5a49;}.cls-25{fill:#f69897;}.cls-26{fill:#f69798;}.cls-27{fill:#552010;}.cls-28{fill:#3a1710;}.cls-29{stroke:#733617;stroke-linecap:round;}.cls-29,.cls-31{stroke-width:0.24px;}.cls-30{fill:#6d1411;}.cls-31{stroke:#590f0c;}.cls-32{fill:#cd4d3e;}.cls-33{fill:#2a0c3b;}.cls-34,.cls-44{fill:#fdc797;}.cls-35{fill:#010101;}.cls-36{fill:#351649;}.cls-37,.cls-39{fill:#323343;}.cls-38{fill:#e59659;}.cls-39{stroke:#231f20;stroke-width:0.72px;}.cls-40{fill:#1a1a1a;}.cls-41{fill:#402414;}.cls-42,.cls-44,.cls-45{stroke:#e59659;}.cls-42{stroke-width:0.12px;}.cls-43{fill:#754e25;}.cls-44,.cls-45{stroke-width:0.43px;}.cls-46{fill:#599ead;}.cls-47{stroke:#61abbb;stroke-width:0.7px;}.cls-48{fill:#61abbb;}.cls-49{stroke:#8a481c;stroke-width:0.57px;}.cls-50{fill:#e5b09b;}.cls-51{fill:#cd8750;}.cls-52{fill:#b91e5d;}.cls-53{fill:#fcd3c1;}.cls-54{stroke:#cd8750;stroke-width:0.08px;}.cls-55{stroke:#e5b09b;stroke-width:0.17px;}.cls-56{stroke:#c99c8a;stroke-width:0.2px;}.cls-57{fill:#26130b;}.cls-58{clip-path:url(#clip-path);}.cls-59{clip-path:url(#clip-path-2);}</style>
      <clipPath id="clip-path">
         <path class="cls-1" d="M593.8,31.94s-1.71-2.52-4-2.59a5,5,0,0,0-4.09,2.46C588.61,31.87,592.57,31.66,593.8,31.94Z"/>
      </clipPath>
      <clipPath id="clip-path-2">
         <path class="cls-1" d="M607.45,31.94s-1.71-2.52-4-2.59a5,5,0,0,0-4.09,2.46C602.27,31.87,606.23,31.66,607.45,31.94Z"/>
      </clipPath>
   </defs>
   <title>NumeracyArtboard 70</title>
   <polygon class="cls-2" points="42.01 11.83 239.77 10.83 239.86 144.43 242.46 232.83 213.31 249.53 177.07 267.91 171.55 270.08 43.67 269.62 42.01 11.83"/>
   <path class="cls-3" d="M186.8,266.32c5-2.48,7.53-4.44,12.57-6.92,16.5-8.14,30.09-14.32,43.13-26.63-6.42,2.5-18.82,13.43-38.61,1.34-8.81,24.42-15.31,25.18-22,30.31a35,35,0,0,1-10.69,5.67,43.25,43.25,0,0,0,15.64-3.75"/>
   <circle class="cls-4" cx="53.33" cy="27.33" r="3.83"/>
   <circle class="cls-4" cx="53.33" cy="40.87" r="3.83"/>
   <circle class="cls-4" cx="53.33" cy="54.42" r="3.83"/>
   <circle class="cls-4" cx="53.33" cy="67.96" r="3.83"/>
   <circle class="cls-4" cx="53.33" cy="81.5" r="3.83"/>
   <circle class="cls-4" cx="53.33" cy="95.04" r="3.83"/>
   <circle class="cls-4" cx="53.33" cy="108.58" r="3.83"/>
   <circle class="cls-4" cx="53.33" cy="122.12" r="3.83"/>
   <circle class="cls-4" cx="53.33" cy="135.67" r="3.83"/>
   <circle class="cls-4" cx="53.33" cy="149.21" r="3.83"/>
   <circle class="cls-4" cx="53.33" cy="162.75" r="3.83"/>
   <circle class="cls-4" cx="53.33" cy="176.29" r="3.83"/>
   <circle class="cls-4" cx="53.33" cy="189.83" r="3.83"/>
   <circle class="cls-4" cx="53.33" cy="203.37" r="3.83"/>
   <circle class="cls-4" cx="53.33" cy="216.92" r="3.83"/>
   <circle class="cls-4" cx="53.33" cy="230.46" r="3.83"/>
   <circle class="cls-4" cx="53.08" cy="244" r="3.83"/>
   <rect class="cls-5" x="63.67" y="19.83" width="170" height="23.67"/>
   <rect class="cls-5" x="-20.67" y="128.5" width="202.83" height="33.17" transform="translate(225.83 64.33) rotate(90)"/>
   <line class="cls-6" x1="64.45" y1="246.43" x2="201" y2="246.49"/>
   <line class="cls-6" x1="65" y1="226.43" x2="242" y2="226.49"/>
   <line class="cls-6" x1="65" y1="205.09" x2="242" y2="205.16"/>
   <line class="cls-6" x1="65" y1="186.09" x2="97" y2="186.16"/>
   <line class="cls-6" x1="65" y1="167.43" x2="97" y2="167.49"/>
   <line class="cls-6" x1="65" y1="147.76" x2="97" y2="147.82"/>
   <line class="cls-6" x1="65" y1="129.26" x2="97" y2="129.32"/>
   <line class="cls-6" x1="65" y1="109.76" x2="97" y2="109.82"/>
   <line class="cls-6" x1="65" y1="91.26" x2="97" y2="91.32"/>
   <line class="cls-6" x1="65" y1="68.26" x2="97" y2="68.32"/>
   <line class="cls-6" x1="65" y1="43.76" x2="97" y2="43.82"/>
   <line class="cls-6" x1="97.53" y1="20.29" x2="97.47" y2="43.5"/>
   <line class="cls-7" x1="215" y1="197.88" x2="127" y2="198.07"/>
   <line class="cls-7" x1="127.41" y1="126.43" x2="127.58" y2="199.01"/>
   <line class="cls-6" x1="136.03" y1="20.29" x2="135.97" y2="43.5"/>
   <line class="cls-6" x1="170.03" y1="20.29" x2="169.97" y2="43.5"/>
   <line class="cls-6" x1="202.28" y1="20.29" x2="202.22" y2="43.5"/>
   <circle class="cls-8" cx="161.83" cy="83.67" r="30.5"/>
   <path class="cls-9" d="M161.83,109.17a25.5,25.5,0,1,1,25.5-25.5A25.53,25.53,0,0,1,161.83,109.17Z"/>
   <text class="cls-10" transform="translate(148.23 96.68)">$</text>
   <polyline class="cls-11" points="128.88 196.75 141.63 173.75 144.63 173.75 149.25 170.5 160.5 174.62 171.25 158.12 177.25 156.62 180.88 145.5 192.25 143.25 197.4 133.28"/>
   <polygon class="cls-9" points="200.22 135.97 199.88 128.5 193.58 132.53 200.22 135.97"/>
   <polyline class="cls-12" points="130.17 197.33 146.67 181.17 156.83 184.5 162.83 178.17 167 181.67 174.83 165.67 178.83 165.33 186.33 163.33 198.94 172.23"/>
   <polygon class="cls-13" points="195.89 174.65 203.33 175.33 200.2 168.54 195.89 174.65"/>
   <rect class="cls-4" x="96.64" y="20.03" width="39.5" height="23.34"/>
   <rect class="cls-4" x="64.02" y="43.67" width="32.92" height="23.34"/>
   <path class="cls-14" d="M513.44,116.33a23.47,23.47,0,0,0,5.07,1.18,88.13,88.13,0,0,0,11.46-.76c1.23-.24,3.46-.66,3.6-1.28s-6-.52-6-.52l-12.08.9Z"/>
   <path class="cls-15" d="M498.15,254.66s10.38,1.55,10.05,2.1-1.88,1.66-6.19,1.55-17.79-2-18.67-2.65-.33-3.76,1.1-5.63,4.31.22,4.31.22Z"/>
   <path class="cls-15" d="M452.71,260.93s8.95,2.43,12.48,2.43,10.05.66,10.27-.66a52.35,52.35,0,0,0-7-3.09L458,255l-3.65.22S452.38,258.17,452.71,260.93Z"/>
   <path class="cls-16" d="M486.4,237.53a30.94,30.94,0,0,1-.8,10.16l-1,2.74s1.83,2.74,4.11,3.31,8.45,2.51,11.3,1.37c-1.83-1-6.17-3.31-7.08-5.82a40.23,40.23,0,0,1-1.14-12.79C489.6,236.85,486.4,237.53,486.4,237.53Z"/>
   <path class="cls-16" d="M463.68,239.82s-3.08,11.53-2.51,13.93,4,5.37,6.74,6.39l2.74,1s.91.91-2.63.23-11.76-2.28-13.93-5c0-.8,4.34-16.21,4.34-16.79S463.68,239.82,463.68,239.82Z"/>
   <path class="cls-17" d="M473.39,119.8l32.43,3.08a66.56,66.56,0,0,1,1.37,15.3c-.34,7.65-4.68,32.54-7,40.19a92.9,92.9,0,0,0-2.85,11.53S495,202,495,202.82s-2.4,33.57-2.17,35.28c-1.6.8-3.65,2.28-7.76.34.11-4.91.8-9.82.34-19.64s-.69-20.55.57-26.15,3.08-15,3.31-15.76.46-42.14.46-42.71-1.93,0-1.93,0l-3.89,20.44s-4.22,29.69-5.82,35.28-13.13,43.73-13.25,50.81c-1.37.46-8.34,1.26-8.56-1.14,1-5.6,3.31-16.44,3.54-20.44a79.54,79.54,0,0,1,4.68-20c2.74-7.08,5.25-12.1,5.37-15.3s-1.37-25.58-1.94-29-1.6-14-1.6-14l.91-17Z"/>
   <path class="cls-18" d="M486.27,132.5l1.53,1.69c.18,0,1.91-.55,1.91,0s-.23,41.91-.46,42.71-2.06,10.16-3.31,15.76-1,16.33-.57,26.15-.23,14.73-.34,19.64c4.11,1.94,6.17.46,7.76-.34-.23-1.71,2.17-34.48,2.17-35.28s2.4-12.9,2.4-12.9.14-1,.57-2.91c-2.09-2.67-3.57-5.7-3.77-7-.23-1.48,0-15.19-.8-21.92S495.65,131,495.65,131Z"/>
   <path class="cls-18" d="M506.29,125.4c-.26-1.56-.47-2.51-.47-2.51l-32.43-3.08-6.17,4-.91,17s1,10.62,1.6,14,2.06,25.81,1.94,29-2.63,8.22-5.37,15.3a79.54,79.54,0,0,0-4.68,20c-.23,4-2.51,14.84-3.54,20.44.23,2.4,7.19,1.6,8.56,1.14.11-7.08,11.65-45.22,13.25-50.81.23-.8.51-2.1.83-3.73-2.45-2-5.51-4.18-6.08-5.52-.69-1.6-1.14-19.3-1.14-19.3s-.57-14.5-.57-16.79.23-9.48,1-12,7.54-4.22,9.59-4.8,11-1.37,15.76-1.6C500.62,126,504.19,125.66,506.29,125.4Z"/>
   <path class="cls-19" d="M483.89,72.3l15.53-1.37,1,49.44-.23,3s-17.59.34-18.27-.57,1.83-27.52,1.83-27.52Z"/>
   <path class="cls-20" d="M499.63,80.9a11.75,11.75,0,0,1-4.89,1.22c-3,0-7-2.28-7-2.28l-4,6.89,0,8.53s-2.51,26.61-1.83,27.52c.37.49,5.58.62,10.34.63a35.65,35.65,0,0,1-4.52-10c-.57-2.85.91-8.68,2.4-13.82s4.8-8.11,5.94-10a6,6,0,0,1,3.65-2.25Z"/>
   <path class="cls-21" d="M478,12s2.59-5.65,9.89-4.16,17.11,7.61,17.81,9.65-.71,2-.78,2.82,2.82,1.88,3.06,3.14-.31.94-1.1,1.88-1,1.41.08,2.35,2.9,3.14,2.43,3.84-1.33.71-1.73,2.28,3.77,4.16,3.53,6.51-1.65,2.82-1.26,4.39,1.8,2.59,1.26,4.32-2.12,1.18-1.33,2.59,2.67,2.75,2.28,4-2.75,4.32-4.24,6.75a14.57,14.57,0,0,0-1.65,6l-22-1.33-14.12,1.49s-7-1.18-7.06-2,1.26-1.49,1.33-2.43-2.12-3-2-4.63,2.28-1.57,1.49-2.9S460.55,54.44,461,53s1.49-2,1.49-3.84-.63-2-1.49-4.47.16-3.45.55-4.32,4.32-2.82,4.16-4.63-2.12-4.94-1-6.12,3.61-3.37,3.92-5.81.94-8.08,3.06-9a26.47,26.47,0,0,1,5.81-1.41Z"/>
   <path class="cls-16" d="M491.39,48.17s.15,6.55.76,8.45,2.59,5,4.64,5.33,2.06.84,2.06.84l1.07,6.85s-2.66,5.48-4.72,5.94-7.76,1.07-9.82-1.45-6.32-12.87-6.32-12.87,4.57-1.07,4.87-4.72.15-9.67.15-9.67Z"/>
   <path class="cls-22" d="M489.11,55.48a5.82,5.82,0,0,0,2.69-.82c-.32-2.65-.41-6.49-.41-6.49l-7.31-1.29s.07,2.78,0,5.72C485.61,53.87,487.77,55.48,489.11,55.48Z"/>
   <path class="cls-23" d="M480.35,60.43s6.78,15.3,7.92,18.8-.76,24.28-.84,24.59-.61-17.51-1.9-21.47-10.81-19.87-10.81-19.87Z"/>
   <path class="cls-24" d="M500.52,62.63s6.93,2.06,7.08,2.82a91.75,91.75,0,0,1,.76,14.62c-.3,5.94-.61,9.44-.46,10.73s.46,6.32,1.37,8.91c-.3.91-.84,1.07-.84,1.07l1.67,3.43.08.76-7.31,1.45,3.81,16.9s.08.76-.91,1.07a62.79,62.79,0,0,1-6.7.46s-.46-17.74-.15-21.24.46-21,.46-21l-.23-19.64Z"/>
   <path class="cls-25" d="M511.64,104.12l.38,5.1-8.07,2.28L502.58,106S508.52,103.89,511.64,104.12Z"/>
   <path class="cls-24" d="M475.71,62.33s-9.82,2.13-10,3.5-2.21,13.4-2.89,20.86-1.67,15.76-1.29,17,7.76-.38,7.76-.38,1.52-22.69,1.83-22.23a98.09,98.09,0,0,1,3.58,11c.38,2.13,1.75,8.07,1.29,9.14s-1.07,1.22-.3,2c-.08,1.75-8.68,21.16-8.68,21.16s7.92,1.22,11.72,1.29,4.87-.23,5.1-1.67,3.27-14,3.65-20.48S486.67,81,486.67,81l-5.48-11Z"/>
   <path class="cls-16" d="M461.62,108.54l3.65,23.37S465,141,465,142.49a19.47,19.47,0,0,0,.23,2.82l.53,2.13s-.38.53.46.61,1,1.9,1,1.9l.53.3s.69,1.07,1,.61a4.71,4.71,0,0,0,.46-1.45s1.07.61,1.29-.15.38-9.74.38-9.74.69-.15,1.37,1.07,1.37,4,1.83,4,.91-1.29.53-2.44-2.13-6.93-2.66-7.46a50.37,50.37,0,0,1-4-4.19c-.08-.38.38-9.82.38-10.28s1.22-12.33,1.07-12.56S461.62,108.54,461.62,108.54Z"/>
   <path class="cls-22" d="M492.18,75.73s.15-1.79.1-2.19,1.15,2.14,1.4,2.34-1.3.3-1.3.3Z"/>
   <path class="cls-26" d="M497.17,61.34s5,.76,5.18,1.14,0,6.32,0,8.22,0,9.21.08,10.43-2.66,19.56-3.5,22.46c.3-8.53.3-21.47,0-27.33S497.25,62.25,497.17,61.34Z"/>
   <path class="cls-16" d="M475.62,32.36s-.13,9.67,2.65,11.93,6.89,6,10.6,5.83,10.47-4.51,10.87-8.61,1.06-14.18,1.06-14.18V21.1L493.24,17l-11-.66-6.36,6.49Z"/>
   <path class="cls-19" d="M491.62,32.88a4.26,4.26,0,0,1,3.18-2.09c2.28-.29,3.3,1.32,4.24,1.32-1,.48-1.33,1.47-3.49,1.47a19.9,19.9,0,0,1-4-.15C491.5,33.28,491.62,32.88,491.62,32.88Z"/>
   <circle class="cls-27" cx="494.88" cy="32.12" r="1.1"/>
   <path class="cls-28" d="M495.43,31.3c1.91.07,2.19.7,3.24.73-.85-.31-1.88-1.5-3.87-1.25a4.26,4.26,0,0,0-3.18,2.09s0,.07,0,.16A6.05,6.05,0,0,1,495.43,31.3Z"/>
   <path class="cls-27" d="M492.17,30.28s3.18-1.61,4.12-1.61a5,5,0,0,1,1.84.59c.27,0-.63-1.14-1.18-1.18a4.52,4.52,0,0,0-2.75.35C492.56,29.06,491.42,30,492.17,30.28Z"/>
   <path class="cls-19" d="M485,32.88a4.26,4.26,0,0,0-3.18-2.09c-2.28-.29-3.3,1.32-4.24,1.32,1,.48,1.33,1.47,3.49,1.47a19.9,19.9,0,0,0,4-.15C485.08,33.28,485,32.88,485,32.88Z"/>
   <circle class="cls-27" cx="481.71" cy="32.12" r="1.1"/>
   <path class="cls-28" d="M481.16,31.3c-1.91.07-2.19.7-3.24.73.85-.31,1.88-1.5,3.87-1.25A4.26,4.26,0,0,1,485,32.88s0,.07,0,.16A6.05,6.05,0,0,0,481.16,31.3Z"/>
   <path class="cls-27" d="M484.41,30.28s-3.18-1.61-4.12-1.61a5,5,0,0,0-1.84.59c-.27,0,.63-1.14,1.18-1.18a4.52,4.52,0,0,1,2.75.35C484,29.06,485.16,30,484.41,30.28Z"/>
   <path class="cls-29" d="M485.85,39.46a12.93,12.93,0,0,0,2.2.94,5.5,5.5,0,0,0,2.35-.78"/>
   <path class="cls-30" d="M483.58,43.07a2.55,2.55,0,0,0,1.61.2c.71-.24,1.92-1,2.86-.59.86,0,1.1-.24,1.69,0a4.53,4.53,0,0,0,2.86.59c-.35.31-.78.35-1,.63s-2,2-3.69,1.88a5.27,5.27,0,0,1-3.18-1.61C484.24,43.77,483.7,43.42,483.58,43.07Z"/>
   <path class="cls-31" d="M484,43.46s3.1.47,3.37.47a3.49,3.49,0,0,0,1.37.12A15.72,15.72,0,0,0,492,43.5"/>
   <path class="cls-21" d="M486.91,20.08a23.37,23.37,0,0,1,4.86,3.53c3.14,2.75,3.77,3.06,5.34,3s2-.16,2,.39-.55,1.65.39,2.2a4.41,4.41,0,0,1,1.65,1.57,29.92,29.92,0,0,0,1.1-3.45L502,19.06s-11.61-5-11.93-5-11.53,1.8-11.53,1.8-3.61,3.77-3.69,4.71-.63,6.83-.86,8.16.78,4.47.78,4.47,2.75-2.28,3.06-3.53-.71-3.69.16-4.71,4.79-3.45,5.34-4.24S486.36,19.76,486.91,20.08Z"/>
   <path class="cls-25" d="M459.42,103.36s-.61,5.33-.23,5.71.84.46,3.88.38,7.38-.61,7.61-1.07a22.59,22.59,0,0,0,0-5.56,9.77,9.77,0,0,0-3.2-.08C466.19,102.9,459.42,103.36,459.42,103.36Z"/>
   <path class="cls-32" d="M471.14,81.06S468.59,68.21,467.22,67c2.13,2.13,3.81,12,4.26,13.4a15.11,15.11,0,0,1,.61,2.74Z"/>
   <path class="cls-32" d="M502.32,104.29a25.07,25.07,0,0,1,0-6.85c.57-2.74,2.4-22,2.28-24.66s.8-5.94,2.06-6.85C506,66.5,502.32,104.29,502.32,104.29Z"/>
   <path class="cls-33" d="M379.36,123.68s-.7,10.8-.23,13.79a81.72,81.72,0,0,0,6.26,22.29c2.55,7.81,3.25,10.11,3.48,11.72s.7,4.37,1.62,4.83,1.62,8.5,1.62,8.5,1.62,26.43,1.39,28.49-.7,5.29,1.16,5.29,8.82.23,9.28-.46S401.17,183,401.17,183l-4.41-30.33-1.86-23.21-7-6Z"/>
   <path class="cls-34" d="M394.79,217.2s-1.86,2.53-1.86,3.33a43.15,43.15,0,0,1-2,6.89c-.35.57-1.39.69-1.39.69l-1.39,3.22s2.32,1.84,2.9,1.72,4.64-2.07,4.64-2.07,2.9-2.18,3.13-2.53,3.71-4.37,3.71-4.37l3.71-4.14-.12-1.38-2.9-1.61Z"/>
   <path class="cls-34" d="M403.14,241.91a55.46,55.46,0,0,0-2.44,5.17c0,.46-3.13,4.25-3.71,4.83s1.39,5.52,1.39,5.52l3.25,2,6.84-1.84,4.76-6.32,3.71-9.65-1.62-1.38-5.57-1.72Z"/>
   <path class="cls-35" d="M390.15,227.66s-.23,3.79,1.51,4a5.85,5.85,0,0,0,5.34-2.76,34.79,34.79,0,0,1,5-6.55c1-.92,4.18-3.79,4.18-3.79a4.27,4.27,0,0,1,1.51,3.22c0,2.07-1.51,4.48-1.86,6.2s-1.62,5.17-1.62,6.09-1,.8-1,.8.93-7.47.46-8-4.41,1.26-5.22,3.33-1.62,6.66-6,6.66-8.82-1.15-8.47-2.3a6.87,6.87,0,0,1,2-2.53c.35-.34.46-1.61.12-1.61s-2.78-.46-1.28-1.15,3-1.61,3.6-1.84.93.11,1.28.69S390.15,227.66,390.15,227.66Z"/>
   <path class="cls-35" d="M413.81,238.35s3.25,1.72,4.18,3,2.55,3.45.35,7.12a74.76,74.76,0,0,0-2.55,8.16c0,.69-.58,1.84-.81,1.26s-.93-1.61-.81-2.41.23-3.45.23-3.45a18.55,18.55,0,0,0-3,2.41c-1,1.15-2.9,6-3.83,6.55s-1.51,2.41-6.38,2.07-9.63-1.61-9.16-3.56a18.21,18.21,0,0,1,1.74-4.14s-1.28-1.26-.81-1.84,1.62-3.56,4.76-2a5,5,0,0,1,.35,2.18,6.86,6.86,0,0,1,2.2,1.61c.7.92-.35,2.07.93,2.53s5.1-.11,7.42-2.64,6.73-11,6.73-12.29-1.51-2.87-1.51-2.87Z"/>
   <path class="cls-36" d="M411.14,124.14s2.09,6.2,1.62,9.88-1.39,17.23-1.86,18.61-3.25,22.52-3,24.36-.23,7.12,1.86,10.34,5.1,14.48,5.1,16.78-.23,22.75-.23,24.36.46,4.6.46,5.29a5.86,5.86,0,0,1-.93,2.07,1.13,1.13,0,0,1,1.16,1.15v3.22s.7,2.3-3,3.22-10.67,2.3-10-.92.46-19.53.46-22.75-1.86-13.1-2.78-17.46-3.71-11.72-4.64-15.63-3.71-13.79-4.18-16.78-2.32-17.23-1.86-22.29.93-6.43.46-7.81-6.73-8.5-7.19-11a30.09,30.09,0,0,1-.46-4.83Z"/>
   <path class="cls-37" d="M413,129.61s-1.06-18.85-1.53-22.76,3.71-10.12,3.81-10.4,4.74-10.31,6.78-19-13-20.88-13-20.88L393.22,61s-2.3,2.68-3,3.42-6.74,14.34-6.74,14.34L378.9,98.65l-.24,32.64s7.44,3.12,19.2,2.16S414.42,138.25,413,129.61Z"/>
   <path class="cls-34" d="M409.18,47.5s.37,8.65-.43,11.68C408,61.89,395.64,66,394.64,65.6c-1.71-.73,2.56-9.4,1.71-11.26S409.18,47.5,409.18,47.5Z"/>
   <path class="cls-38" d="M397.75,58.31c-.24-1.14-.05-2.74-.53-3.78-.69-1.5,8.82-5.21,11.38-6.17l.23.3S402.16,56.47,397.75,58.31Z"/>
   <path class="cls-34" d="M396.38,93.3s-5.5-1.13-6.18-1.7a31.53,31.53,0,0,0-4.34-2s-3.15-6.29-3.32-6.47S381.11,82,381.11,82l-2.42,3.09-1.32,6a6.44,6.44,0,0,0,5.19,3.81c3,2.65,5.66,5.67,6.41,6.25a19.42,19.42,0,0,0,8.86,5.05c5.41,1.37,7.06.59,7.36.71s2.67.83,3.32,0,2.6-2.79,2.47-4.37"/>
   <path class="cls-38" d="M392.51,59.11s1.36-2.28,1.36-2.47-.14-.94-.58-.94-1.82-.17-2,.52a4.77,4.77,0,0,0,.15,1.88Z"/>
   <path class="cls-39" d="M401.38,92.62l-8.59-2.07-5.56-1.3-3.42,9.23,2.71,1.82s5.13,4.68,10.83,6,11.11,1.82,12.4.13a15,15,0,0,0,2.56-5.33"/>
   <path class="cls-40" d="M420.78,73.42c-2.36-4.39-6.86-6-10.63-2.42-3.11,2.92-5.2,7.17-7,10.94-.56,1.14-3.13,9.63-4.34,9.88-.16,0-.37.22-.08.15,1.19-.25,1.28-1.47,1.64-2.48a73,73,0,0,1,3.42-8.1c1.67-3.36,3.62-7.65,6.49-10.14,3.9-3.37,8-1.78,10.13,2.26.05.1.45,0,.41-.11Z"/>
   <path class="cls-41" d="M399,11.71s-.78-4.73,2.95-5.38,7.11-.24,8.15,1,2.95,7,5.29,10,12.84,9.79,16.4,10.11a26.56,26.56,0,0,1,5.29.9s-5.29,1.31-5.73,1.31-4.6.9-5.29.9,2.43,1,4.08,1-3.73.65-3.73.65l4.42,1.39s-1.13.65-5.29.73-.87.9-.87.9l-4.94-.41L399.57,16.53Z"/>
   <path class="cls-41" d="M411.82,30.93s1.18,8.93.94,11.12-3.17,7.32-3.17,7.32,10.15-8.58,10.3-15-1.25-14.65-5.72-17.16-6.89-.94-6.89-.94l2.43,14.1Z"/>
   <path class="cls-34" d="M385.34,31.64a41.87,41.87,0,0,0-.86,4.62c0,.94,2.66,8.85,3.06,11,.3,1.7,5.48,11.67,12.69,8.3,9.27-4.33,11-8.46,11.91-9.4s1.72-5.8,1.72-5.8,2.82-.94,2.35-3.29,1.1-5.17,0-6.58a2.36,2.36,0,0,0-3.6.16c-.47.78-3,.94-4.54-1.72s-6.89-6-7.36-6.11S390,22.55,390,22.55l-4.54,4.39Z"/>
   <path class="cls-41" d="M385.42,36.26s1.72-1.41,2.74-1.41a4.41,4.41,0,0,1,2.74,1.88C391,37.12,388.94,34.85,385.42,36.26Z"/>
   <path class="cls-38" d="M390.81,36.93c.06.92.12,1.85.15,2.77,0,1.22-.32,2.28-.36,3.47,0,.92.32,1,1.16,1.14s1.93.37,2.57-.18c.15-.13-.18-.15-.28-.07a3.92,3.92,0,0,1-2.17,0c-1.21-.37-1-.86-.81-1.75a9,9,0,0,0,.25-2c0-1.18-.09-2.37-.17-3.55,0-.12-.35,0-.34.09Z"/>
   <path class="cls-41" d="M394.76,34.88a5.32,5.32,0,0,1,4.16-1.71c2.4.28,2.93,1.31,2.93,1.31S397.76,33.11,394.76,34.88Z"/>
   <path class="cls-42" d="M412.53,34.46s.53-2.12,1.35-2.47,1.94-.18,1.59,1.29a10.72,10.72,0,0,0-.24,3.11v1.76"/>
   <path class="cls-38" d="M413.23,35.34s-.47,1.47-.12,1.41.76-.65.94-.59.06.59.18.82.47-1.59.29-2S413.17,34.4,413.23,35.34Z"/>
   <path class="cls-19" d="M395.49,36.34a5.93,5.93,0,0,1,3.88-.06c2.06.71,1.82.94,1.82.94a14.1,14.1,0,0,1-2.94,1.53,10.47,10.47,0,0,1-1.94.18A14.63,14.63,0,0,1,395.49,36.34Z"/>
   <path class="cls-43" d="M401.17,37.14a10.56,10.56,0,0,0-3.25-.74c-.83,0-1.79.16-2.36.24l-.08-.3a5.93,5.93,0,0,1,3.88-.06C400.75,36.76,401.1,37,401.17,37.14Z"/>
   <ellipse class="cls-41" cx="398.36" cy="37.42" rx="1" ry="1.29"/>
   <path class="cls-19" d="M385.79,37.31a4.79,4.79,0,0,1,3.31-.05c1.75.64,1.55.85,1.55.85a11.8,11.8,0,0,1-2.5,1.38,8.43,8.43,0,0,1-1.65.16A13.81,13.81,0,0,1,385.79,37.31Z"/>
   <path class="cls-43" d="M390.64,38a8.58,8.58,0,0,0-2.77-.67c-.71,0-1.52.15-2,.22l-.07-.27a4.79,4.79,0,0,1,3.31-.05C390.28,37.69,390.57,37.93,390.64,38Z"/>
   <ellipse class="cls-41" cx="388.59" cy="38.27" rx="0.85" ry="1.17"/>
   <path class="cls-41" d="M392.2,30.11l-1.06,2.35s-4.58,0-6.46.82-1.88-7.76-1.41-9.64,1.41-6.23,5.76-8,9.17-4.35,16.33-3.53,12.34,6.58,13.87,13.28.71,8.11.71,8.11l-5.29-6.93-4.94,3.8s-9,1.37-10.34,1.37-5.64-3.06-5.64-3.06Z"/>
   <path class="cls-41" d="M407.94,30.46c.47.82,1.41,8.34,1.41,8.34a7.24,7.24,0,0,0,2.12-3.53c.47-2.12.47-4.94,1.41-5.64s-1.41-1.53-1.41-1.53Z"/>
   <path class="cls-44" d="M385.48,56.68s1.18-2.83,1.27-3.4.07-1.07.44-1.28a23.06,23.06,0,0,1,4.64-.3,13.34,13.34,0,0,1,1.71,1.49s1,1.46-.28,2-2.55-.75-2.55-.75a9.81,9.81,0,0,1-1.94.29c-.63,0-.07,1-.07,1Z"/>
   <path class="cls-34" d="M380.73,69.51s.19-4.92.14-5.86-.06-3.65.42-4.17.84-.86.84-.86.32-1.15.88-1.3,2.1-.74,2.1-.74L389,55.05c.56-.22,1.42-.45,1.83,0a17.61,17.61,0,0,1,1.8,3.18,16.81,16.81,0,0,1-.18,2.71,6.94,6.94,0,0,0-.14,1c0,.19-.06,1.32-.1,1.64A8.92,8.92,0,0,1,391,66.72c-.65.79-2.71,2.28-3.13,2.87s-1,2.25-1.31,2.58-.62,2.74-2.85,3.42-4-2.69-4-2.69Z"/>
   <path class="cls-38" d="M382.51,69.92s2,.53,3-.34a14.3,14.3,0,0,0,2-2.18s-.3,1.46-.36,1.65,1.68-.46,2.08-1.11a4.7,4.7,0,0,1-3.41,2.12A11.09,11.09,0,0,1,382.51,69.92Z"/>
   <path class="cls-45" d="M386.3,61.61a14.53,14.53,0,0,1-.8,1.49c-.35.52,0,1.07.64,1.48s.8-.36,1-.93,1.51-1.15,1.69-1.41a11.45,11.45,0,0,0-.21-2.88,1.5,1.5,0,0,0-1.2-1.32c-.32-.11-4.57.49-4.57.49"/>
   <path class="cls-38" d="M385.84,62.39a2.39,2.39,0,0,0-1.85-.53c1.56-.21,2-.67,1.78-.91A11.81,11.81,0,0,0,384,60l2.06.84a.91.91,0,0,0,.28-.77c-.09-.44,0,.75,0,.75l-.06.66Z"/>
   <path class="cls-45" d="M384.57,57.36s4.31-.66,4.5-.54,1.34.43,1.31,1,0,4.4-.42,5.24-1,2.13-1.59,2.16-1.51,0-1.53-.36"/>
   <path class="cls-45" d="M392.13,62.44s-.2,1-.58,1-1.37.32-1.52-.11"/>
   <path class="cls-37" d="M368,89.39c.59-.93,2.16-2.89,3.52-4.57l.73-1.56s4.5-8.15,4.87-8.85S379,70.36,380,70.17a33.15,33.15,0,0,1,5.06.51h1.11v.17l1.79.28-5.26,13.92a32.36,32.36,0,0,0-.66,3.2,63.3,63.3,0,0,1-3.08,11.9c-.75,1.72-5.47,4.56-6.29,5a4.34,4.34,0,0,1-3.28-.17c-.61-.39-1.77-3.43-2.08-4.59s-.33-3.09-.63-4.16S367.12,90.86,368,89.39Z"/>
   <path class="cls-39" d="M386.14,70.85l1.79.28-5.26,13.92a32.36,32.36,0,0,0-.66,3.2,63.3,63.3,0,0,1-3.08,11.9c-.75,1.72-5.47,4.56-6.29,5a4.34,4.34,0,0,1-3.28-.17"/>
   <path class="cls-38" d="M398.63,48.16c-.17.2-.32.4-.47.6a8.22,8.22,0,0,1-2.89.35,19.38,19.38,0,0,1-4-.94c-.24-.4-.37-.69-.37-.69l2.14.67C395.16,48.83,398.63,48.16,398.63,48.16Z"/>
   <path class="cls-46" d="M514.93,114.92s.39-.88-4.6-2.15-21.74-5-21.74-5-2.45-.88-2.45.2,1,2,4.41,2.84,21.06,5.29,21.06,5.29S515.42,116.88,514.93,114.92Z"/>
   <path class="cls-46" d="M539.81,112.18s-.88,1.67-1.76,1.86c-.49.69-.29.69-1.57.78S516.1,117,516.1,117s-4.6-.59-5.68-1.27c4.11-.69,4.14-1.26,4.14-1.26Z"/>
   <path class="cls-4" d="M486.62,108.16s-2.94-1,4.9-1.18,22.43-1.27,22.72-1.18,25.17,6,25.17,6a35.09,35.09,0,0,1-3.33,1.67c-.29,0-19,1.37-19,1.37l-6.56-.78Z"/>
   <path class="cls-5" d="M515.32,115.12s10.48-37,10.48-37.42a.69.69,0,0,1,.69-.78c.49,0,22.82,3.43,22.82,3.43A1.81,1.81,0,0,1,549.8,82c-.29.88-8.13,29.09-8.13,29.09s-.2,1-2.25,1.27S515.32,115.12,515.32,115.12Z"/>
   <line class="cls-47" x1="490.61" y1="108.85" x2="517.22" y2="108.16"/>
   <line class="cls-47" x1="495.07" y1="109.83" x2="516.83" y2="109.12"/>
   <line class="cls-47" x1="501.76" y1="110.81" x2="516.51" y2="110.09"/>
   <line class="cls-47" x1="505.66" y1="111.69" x2="515.83" y2="111.1"/>
   <polygon class="cls-48" points="500.36 106.74 495.02 107.18 496.34 107.92 503.84 107.48 500.36 106.74"/>
   <path class="cls-16" d="M516.45,117.09s2.59,1.65,3.57,1.65,1.27,1.76,2.64,1.67a26.47,26.47,0,0,0,4.7-1.37,4.37,4.37,0,0,0,1.57.29,5.23,5.23,0,0,0,1.08-.39s1.67-.29,1.86-.59a2.88,2.88,0,0,0,.29-.88s1.76.49,2.06-.2A15.39,15.39,0,0,0,535,114c0-.49-.59-.88-1.27.29l-.69,1.18s1-7.74.49-7.93-1.67-.29-1.76,1.27c-1-.1-2.06.29-2.06,1.27a31.4,31.4,0,0,1-1,5.09c-.2.49-.59,1.57-.88,1.47s.39-3.33,0-3.62-1.67-.78-1.76-.1-.69,2.94-.78,3.33-1.27-.39-1.76.1.2.69-1.37.39A27.88,27.88,0,0,0,516.45,117.09Z"/>
   <path class="cls-49" d="M532,109a43.16,43.16,0,0,1-.39,5.49c-.29.88-.93,1.81-1,2.4s-.15.44-.15.44"/>
   <path class="cls-49" d="M527.81,116.83s-.44,1.57-1.52,1.52-1.22-.49-1.22-.49"/>
   <path class="cls-49" d="M523.45,118s-.34-1.91-3-1.27a2.17,2.17,0,0,0,.15,2.3"/>
   <path class="cls-50" d="M565.88,132.51s-1,.76-1.1,3.29-.25,6.41-.25,7.34a8.46,8.46,0,0,1-1.77,5.15c-.17,1.35,2.36-.08,2.36-.08s.25,5.31.51,6.66,1,3.71,1.27,3.21,2.78-20.41,2.78-20.41l.25-4.72Z"/>
   <path class="cls-51" d="M565.22,148.23c2-2.1,2.06-5,2.27-7.72,0-.12-.24-.09-.25,0-.21,2.69-.25,5.56-2.23,7.63-.11.11.13.14.2.07Z"/>
   <path class="cls-52" d="M573.16,253.42s-2,1-1.86,1.69,1.12,1.69,3.32,1.57a82.61,82.61,0,0,0,9.56-1.29,12.61,12.61,0,0,0,3-4.5,23,23,0,0,1,3.77-4.44c.51-.28,3.66-1.35,3.66-1.35l2.25-2-3.88.39s-4.84,2.31-5.79,3.21S573.16,253.42,573.16,253.42Z"/>
   <path class="cls-52" d="M586.82,256.79s-1.29,1.41-1.07,2.31,2,1.8,3.71,1.57a54.38,54.38,0,0,0,8-2.08c.51-.34,3-1.18,3.82-3.21s1.69-7.09,4.61-9a51,51,0,0,0-.45,5.85s.39.39.62,0,.79-7,1.12-7.53,1.57-1.69,1.57-2.19.34-1.91-1.07-2.19C606.39,241.83,604,245,604,245l-4.61,8.43Z"/>
   <path class="cls-50" d="M581.31,190.27s1,12.15,1.77,15.94,3.71,18.47,3.88,19.57.93,6,.08,8.52-3.63,10-7.09,12.06-4,2.28-4.55,3a12.79,12.79,0,0,0-.93,1.94c-.25.42-1.35,1-1.43,1.43s-.42,3.21,1.94,3.12a22.38,22.38,0,0,0,5.31-1.1s5.4-1.86,6.16-3.21,3.71-6.49,6.75-6.83c3.63-3,4-11.56,4-11.56l-1.94-13.75-8.52-26.91Z"/>
   <path class="cls-53" d="M579,180.65a13,13,0,0,0,1.27,8.86,27.88,27.88,0,0,0,4.13,5.57c.42.42,9.19,25.64,9.7,27.41a35.74,35.74,0,0,1,.76,12.23c-.59,5.65-3.71,15.18-4.55,16.28a22.68,22.68,0,0,0-2.45,3.54c-.17.59-1.69,1.27-1.35,2.28a1.8,1.8,0,0,0,1.77,1.43c.67-.08.76.84,1.77.76l1-.08a1.81,1.81,0,0,0,1.6.08c.67-.42,2.53-.25,2.87-.67s.42-1.18.67-1.18,1.43.25,2.11-.34,4.47-7.34,5.31-9.36a17.8,17.8,0,0,1,2.87-4.55c.67-.76,2-4,1.27-5.31s-4.39-6.33-4.64-8.86.51-17.88-2.19-27.33-5.57-12.91-6-14.25-.08-7.42-.08-7.42Z"/>
   <path class="cls-52" d="M592.67,251s2-.45,3,.22c1,.22,5.12.28,5.51.62l.39.34s.84-.06.34,1.74-2,3.71-3.37,4a5.85,5.85,0,0,0-2.36.84c-.28.28-1-2.64-1.29-3.09s-1.35-2-2.59-2.08a32.85,32.85,0,0,0-3.71.06l2.31-3.49S591.21,249.48,592.67,251Z"/>
   <path class="cls-54" d="M588.68,258.25s-.28-1.74,1-1.8a10.87,10.87,0,0,1,1.35-3.09"/>
   <path class="cls-54" d="M591.1,258.93s-.56-2,.67-2.53a30.63,30.63,0,0,1,.73-3"/>
   <path class="cls-54" d="M593.18,258.53a2.41,2.41,0,0,1,.34-2.19,17.16,17.16,0,0,0,.34-2.53"/>
   <path class="cls-52" d="M580.19,246.11l.17,2.31a12.11,12.11,0,0,1,3.26,1.69,5.31,5.31,0,0,0,3,1.07c-.22.84-1.8,3.77-2.7,4a70.42,70.42,0,0,1-7.14,1c-1.07.06,2.36-.79,2.25-1.46s-1.35-3.32-1.41-3.66-1.57-2.47-1-2.81S580.19,246.11,580.19,246.11Z"/>
   <path class="cls-50" d="M573.47,72l-.17,12.15s.25,12.74.25,13.16S573,101.45,573,102s-.42,3,1.86,3.46,4.72-7.42,4.81-8.35-1.18-19.48-1.18-19.48Z"/>
   <path class="cls-50" d="M573.47,100.1s-.93,2.45-1.1,3.21-3.12,15.52-3.21,16-3.37,12.23-3.54,13.16a5.8,5.8,0,0,1-.63,1.58,2.34,2.34,0,0,0-.22.53c-.08.42-.59,4.55,2.53,4.22s8-17,8-17l2.19-21.59Z"/>
   <path class="cls-53" d="M590.67,47.3l.34,7.42L579.37,70l13.41-6.83,12.4-8.69s-3-3.29-2.53-6.58C600.54,48.74,590.67,47.3,590.67,47.3Z"/>
   <path class="cls-50" d="M597.68,53.12a13.85,13.85,0,0,0,5-3.57,5.36,5.36,0,0,1,0-1.66c-2.11.84-12-.59-12-.59l.34,7.42-1.3,1.7C591.54,55.79,594.46,54.53,597.68,53.12Z"/>
   <path class="cls-52" d="M590.34,53.54s2.53,3.21,2.61,4,.08,2,.08,2a20.62,20.62,0,0,1-2.78,3.12c-.67.34-4.3,1.77-5.4,2.45a22.25,22.25,0,0,0-4,3.37c-.08.34,6.58-3.88,8.43-4.72a6.83,6.83,0,0,0,3.21-2.36c.67-.93,1.18-3.88,1.86-4.47a9.45,9.45,0,0,1,4.89-2.19,45.79,45.79,0,0,0,5.65-1l2.87,4s10.63,5.4,11.39,6.16,2.87,12.31-3,20.24S607,94.62,606.78,97.57s-1.27,5.06-.93,10-.93,6.66.17,9.19,2.28,23.62,1.69,29.1-3,24.12-3.54,27.08-1.43,9.36-1.35,9.87-.34,1.27-4.81,1.1-15-.67-18.47-1.86-3.37-1.1-4.81-1.69-7.42-2.53-8.27-4.64-1.1-7.09-.93-8.69,1.86-25.73,3-30.28,2.11-13.07,2.36-14,3.54-13.66,3.88-15.1,1.69-10.46,1.18-13.24-4-10.37-1.69-16.45,1.77-8.18,2.61-9.78,2.61-6.83,4.39-7.34,5.9-.08,7-1.69A24.44,24.44,0,0,0,590.34,53.54Z"/>
   <path class="cls-52" d="M582.83,60.88a8.06,8.06,0,0,0-6.16,1.43c-3.12,2.19-3.12,4.81-4,5.65s-2.78,3.37-2.53,3.88,5.65,2.36,5.65,2.36Z"/>
   <path class="cls-53" d="M609.32,79.19s.59,1.52,1.1,2.7a129.68,129.68,0,0,1-1.1,13.92c-.25,1.18-1.35,8.43-1.18,9.11s5.15,6.92,7.68-.93,6-22.1,6.07-26.06a21.74,21.74,0,0,0-.42-5.74l-9.36,1.43s-3,2.36-3,3.29A15.55,15.55,0,0,0,609.32,79.19Z"/>
   <path class="cls-53" d="M615.64,102.72s-.67,11.56-1.1,13.66-3,15.44-2.87,16.62a51.29,51.29,0,0,1-.42,7.34c-.25.93-3.29,6.66-4.22,1.77a25.26,25.26,0,0,1-.42-7.93c0-2,.25-13.41.34-14.93s.51-9.11.59-10.29-.34-5.57,1.69-7.68S615.64,102,615.64,102.72Z"/>
   <path class="cls-53" d="M611.09,139.83a10.68,10.68,0,0,0-.17,4.89c.59,2.28,2,6.92,1.43,10s-.93,5.15-1.18,5.06-1-.42-.76-2.19c-.93,1.1-4.39,6.41-4.39,6.41s0-.26-.67-.17-1.6.67-1.69.34a1.45,1.45,0,0,1,.08-1.77c.67-1.1,2.53-4.22,2.7-6s-.11-6.21-.34-5.57c-.42,1.18-1.43,5.74-1.94,6.16s-1.69,1.18-1.94.67,0-8.86.51-10.29,1.77-5.65,2.28-6.58a43.22,43.22,0,0,0,2.11-5.48C607.38,134.35,611,138.82,611.09,139.83Z"/>
   <path class="cls-55" d="M605.35,163.87s2.7-4.3,3.12-5.31a21.4,21.4,0,0,0,1.18-3.54"/>
   <path class="cls-55" d="M610.41,157.63a14.63,14.63,0,0,0,1.1-3.29"/>
   <path class="cls-50" d="M609.06,76.91a15.55,15.55,0,0,0,.25,2.28s.59,1.52,1.1,2.7a129.68,129.68,0,0,1-1.1,13.92c-.18.82-.76,4.58-1,7-.91,2.24-.66,5.2-.73,6.13-.08,1.18-.51,8.77-.59,10.29s-.34,12.91-.34,14.93a29.31,29.31,0,0,0,0,5.15h0c2.19-1.86,1.35-8.43,1.35-11.47s1-17,2.36-18.89a7.61,7.61,0,0,0,1.52-5.57c-.34-1.35.17-3.37.34-6.75s.51-8.1,1-13.16c.26-2.64-.94-6.19-2.15-9C610.17,75.27,609.06,76.35,609.06,76.91Z"/>
   <path class="cls-52" d="M610.24,81.13s-2.11-5.23,3.63-5,7.34.08,8,2.61c.59-2.11.76-11.39-.59-12.82s-1.6-2.28-3-2.36-9.19,6.16-9.19,9.19S607.63,78.09,610.24,81.13Z"/>
   <path class="cls-40" d="M603.24,49.2s.59,3.21,2.19,4.13a12.49,12.49,0,0,1,4.22,3.8c.93.59,3,1.52,3.37,2s1.6,1.1,2,1.6a2.32,2.32,0,0,1,.67,1.77c.08,1.1,0,7.76-.42,9a20.67,20.67,0,0,1-.25-3.54s-2.19,3.12-1.69,4.64,0,5.9,0,5.57-1.43-10-1.69-11.39-1.35-.59-1.35-.59-.42-.25-.67-3.29-.34-2.87-1.27-4.39-1.52-1.6-1.94-2.45a15.51,15.51,0,0,0-2.11-2.61,9.11,9.11,0,0,1-1.62-4.27c.46-.34.48-.27.48-.27"/>
   <path class="cls-53" d="M581.87,28s1,12.87,3.78,15.83,5.82,8,10,8.07,11.85-5.31,13-10.83S610.46,28,610.46,28l-2.66-11.95-11.95-2.35s-9,2.86-9.29,3.06S581.87,28,581.87,28Z"/>
   <path class="cls-50" d="M610.46,28s2.42-1.87,1.87,2.21a32.31,32.31,0,0,0-.48,5.31c0,.41-1.77,3.13-2.25,2.59s-.27-3.06-.27-3.06Z"/>
   <path class="cls-50" d="M582,28s-2.42-1.87-1.87,2.21a32.31,32.31,0,0,1,.48,5.31c0,.41,1.77,3.13,2.25,2.59s.27-3.06.27-3.06Z"/>
   <path class="cls-56" d="M610,34.73s.48.14.54-.61.48-4.9.82-5.11.54.48.41,2.72"/>
   <path class="cls-56" d="M582.47,34.73s-.48.14-.54-.61-.48-4.9-.82-5.11-.54.48-.41,2.72"/>
   <path class="cls-50" d="M593.75,37c-.33.39-.72,1.24-.22,1.61s1,0,1.43.16.51.56.88.72a1.38,1.38,0,0,0,1,0,2.67,2.67,0,0,0,.51-.29,4.57,4.57,0,0,1,1.14-.36c.78-.19,1.33-.48,1.13-1.38,0-.1-.25,0-.23.06.31,1.46-1.16,1-1.81,1.3s-.69,1-1.76.38c-.18-.11-.33-.44-.51-.53a1.81,1.81,0,0,0-.72-.12c-.25,0-.86,0-1-.28s.21-1,.41-1.23-.13-.14-.19-.06Z"/>
   <path class="cls-19" d="M592.05,42.34s3.94.38,4.84.28,3.86.09,4,0a6.39,6.39,0,0,1-4.36,1.89C594.34,44.37,592.35,43.32,592.05,42.34Z"/>
   <path class="cls-57" d="M593.92,27.82s-2.81-2-4.34-2.14-4,1.48-4.44,2A10.09,10.09,0,0,1,593.92,27.82Z"/>
   <path class="cls-19" d="M593.8,31.94s-1.71-2.52-4-2.59a5,5,0,0,0-4.09,2.46C588.61,31.87,592.57,31.66,593.8,31.94Z"/>
   <g class="cls-58">
      <ellipse class="cls-57" cx="590" cy="30.69" rx="1.68" ry="1.64"/>
   </g>
   <path class="cls-35" d="M593.8,31.94s-1.71-2.52-4-2.59A5.08,5.08,0,0,0,586,31.29a7.22,7.22,0,0,1,3.73-1.47c1.91.09,3,1.36,4,2.1Z"/>
   <path class="cls-57" d="M606.79,27.82s-2.81-2-4.34-2.14-4,1.48-4.44,2A10.09,10.09,0,0,1,606.79,27.82Z"/>
   <path class="cls-19" d="M607.45,31.94s-1.71-2.52-4-2.59a5,5,0,0,0-4.09,2.46C602.27,31.87,606.23,31.66,607.45,31.94Z"/>
   <g class="cls-59">
      <ellipse class="cls-57" cx="603.21" cy="30.79" rx="1.68" ry="1.64"/>
   </g>
   <path class="cls-35" d="M607.45,31.94s-1.71-2.52-4-2.59a5.08,5.08,0,0,0-3.78,1.94,7.22,7.22,0,0,1,3.73-1.47c1.91.09,3,1.36,4,2.1Z"/>
   <path class="cls-50" d="M596.85,43.33a18.21,18.21,0,0,0,4.06-.66c-.2,0-3.13-.14-4,0s-4.84-.28-4.84-.28a1.14,1.14,0,0,0,.08.19A9.68,9.68,0,0,0,596.85,43.33Z"/>
   <path class="cls-40" d="M591.16,13.83a13.78,13.78,0,0,0,5.51,9.5c5.21,3.88,6.23,5.21,7.56,6.23a14.72,14.72,0,0,1,5.11,9.7c.51,2,1.43-2.66,1.53-4.09s.82-7.76.82-7.76l.61,1.12s1.43-1.94-.2-6.23-.71-9.8-7-12.15S595.14,7,593.71,7.71c-1.53.41-5.11.41-6.23,1.33s-7.15,5.62-6.74,15.93c.61,4.29,1.33,8.37,1.43,10.31s1.94,10,2.14,11.23c-.1-1.63-1-4.9-.61-7.25s1.53-12.26,2.14-14.4.82-5.82,3-7S591.26,17.1,591.16,13.83Z"/>
</svg>
