<svg id="Layer_1" data-name="Layer 1" xmlns="http://www.w3.org/2000/svg" viewBox="0 0 585.84 272.03"><defs><style>.cls-1{fill:#66963f;}.cls-2{fill:#76cde1;}.cls-3{fill:none;stroke:#76cde1;stroke-miterlimit:10;stroke-width:0.35px;stroke-dasharray:1.42;}.cls-4{font-size:21.79px;fill:#75cee2;font-family:AvenirNextLTPro-Regular, Avenir Next LT Pro;}.cls-5{letter-spacing:-0.1em;}.cls-6{letter-spacing:-0.01em;}.cls-7{letter-spacing:-0.02em;}.cls-8{fill:#f06724;}.cls-9{fill:#db5e26;}.cls-10{fill:#51909e;}.cls-11{fill:#414042;}.cls-12{fill:#e6e7e7;}.cls-13{fill:#d0d2d3;}.cls-14{fill:#c6e8fa;}.cls-15{fill:#231f20;}.cls-16{opacity:0.4;}.cls-17,.cls-20{fill:#fff;}.cls-18{fill:#4a4b4c;}.cls-19{fill:#d61a69;}.cls-20{font-size:19.54px;font-family:Cutive-Regular, Cutive;}</style></defs><title>NumeracyArtboard 25</title><path class="cls-1" d="M122.36,189.38A25.77,25.77,0,0,0,83,156.53a34.34,34.34,0,0,0-50.5,44.81,27.59,27.59,0,1,0,14.87,46.34,26.55,26.55,0,0,0,32.48-1.51,37.25,37.25,0,1,0,42.49-56.8Z"/><path class="cls-2" d="M396.92,122.39c3.28-.91,10.53-2.09,11.14-6.38.42-2.92-3.87-10.31-6.26-11.86-1.36-.89-.31-.46-2-.57s-4.52,1.4-6.2,1.94c-.75.24-3.62,1.67-3.92,1.57-.86-.29-2.31-3.63-2.76-4.32a24,24,0,0,0-2.5-3.84c-.78-.79-1.6-1.51-2.84-1.2-2.2.54-1,2.33-.35,3.9s1.46,3.24,2.23,4.84,2.55,3.82,2.84,5.52c.36,2.09.19,1.2-1.86.68a7.48,7.48,0,0,0-2.18-.35c-2.24.31-2.13,1.73-.52,3.43,3.28,3.45,10.35,5.15,14.76,6.74.54.19.77-.66.24-.86-4.11-1.48-8.63-3-12.4-5.23-2-1.2-3.59-2.46-1.11-3,1.29-.3,3.49,1,4.63,1.4a.45.45,0,0,0,.55-.31c.16-.83-.2-.37-.45-1.39-.58-2.42-3-5.55-4.12-7.85a15.22,15.22,0,0,1-1.49-3.23l-.69-1.52,2.63-.14c1.17.61,4.3,5.91,4.57,7.17a.45.45,0,0,0,.55.31c2.61-.86,5.26-1.93,7.95-2.56,3.3-.78,3.95-.6,5.74,2a29.8,29.8,0,0,1,2.07,3.49c1.34,2.66,3.06,5.1.38,7.46-2.19,1.93-6.08,2.56-8.84,3.32a.44.44,0,0,0,.24.86Z"/><path class="cls-3" d="M378.16,98.25a2.49,2.49,0,0,0-.85,2,4.84,4.84,0,0,0,1,3.21,5.87,5.87,0,0,0,1.85,1.41"/><path class="cls-3" d="M376.45,96.59A4.16,4.16,0,0,0,375.19,99a7.62,7.62,0,0,0-.14,2.74,6.44,6.44,0,0,0,2.16,3.83,7.9,7.9,0,0,0,4,1.8"/><path class="cls-3" d="M383.11,95.41a2.49,2.49,0,0,1,2.14.34,4.84,4.84,0,0,1,2.16,2.59,5.87,5.87,0,0,1,.22,2.31"/><path class="cls-3" d="M382.61,93.08a4.16,4.16,0,0,1,2.71.22,7.62,7.62,0,0,1,2.4,1.35,6.44,6.44,0,0,1,2.09,3.87,7.9,7.9,0,0,1-.62,4.38"/><text class="cls-4" transform="translate(418.4 117.19)"><tspan class="cls-5">T</tspan><tspan x="10.33" y="0">ap the building </tspan><tspan x="0" y="26.15">to l</tspan><tspan class="cls-6" x="31.16" y="26.15">e</tspan><tspan x="43.49" y="26.15">arn mo</tspan><tspan class="cls-7" x="113.63" y="26.15">r</tspan><tspan x="121.08" y="26.15">e</tspan></text><polygon class="cls-2" points="350.81 262.16 77.12 262.16 77.12 58.93 350.81 59.16 350.81 262.16"/><polygon class="cls-8" points="252.11 272.04 237.94 272.04 235.88 255.32 254.17 255.32 252.11 272.04"/><rect class="cls-9" x="235.06" y="253.67" width="19.93" height="4.85"/><path class="cls-1" d="M250.76,248a3,3,0,0,0-4.57-3.81,4,4,0,0,0-5.86,5.2,3.2,3.2,0,1,0,1.73,5.38,3.08,3.08,0,0,0,3.77-.18,4.32,4.32,0,1,0,4.93-6.59Z"/><polygon class="cls-8" points="351.67 272.04 337.5 272.04 335.44 255.32 353.73 255.32 351.67 272.04"/><rect class="cls-9" x="334.62" y="253.67" width="19.93" height="4.85"/><path class="cls-1" d="M350.32,248a3,3,0,0,0-4.57-3.81,4,4,0,0,0-5.86,5.2,3.2,3.2,0,1,0,1.73,5.38,3.08,3.08,0,0,0,3.77-.18,4.32,4.32,0,1,0,4.93-6.59Z"/><polygon class="cls-10" points="335.19 0 95.71 0 77.12 58.75 350.81 58.75 335.19 0"/><rect class="cls-11" x="266.78" y="136.67" width="56.77" height="111.79"/><rect class="cls-12" x="264.92" y="248.46" width="60.48" height="6.85"/><rect class="cls-13" x="261.2" y="255.31" width="67.92" height="6.85"/><rect class="cls-14" x="270.5" y="140.39" width="49.33" height="104.35"/><circle class="cls-15" cx="276.24" cy="184.77" r="1.81"/><circle class="cls-15" cx="276.24" cy="198.87" r="1.81"/><rect class="cls-15" x="275.32" y="185.29" width="1.83" height="13.07"/><rect class="cls-11" x="101.41" y="136.37" width="145.64" height="104.35"/><rect class="cls-14" x="105.13" y="140.09" width="138.2" height="96.91"/><g class="cls-16"><polygon class="cls-17" points="243.33 150.1 243.33 144.43 161.91 237 167.59 237 243.33 150.1"/><polygon class="cls-17" points="132.71 237 154.3 237 240.06 140.09 218.47 140.09 132.71 237"/></g><polygon class="cls-15" points="340.45 112.78 252.87 112.79 243.55 141.36 348.22 141.36 340.45 112.78"/><polygon class="cls-18" points="255.1 141.36 249.33 147.9 243.56 141.36 255.1 141.36"/><polygon class="cls-18" points="278.37 141.36 272.62 147.9 266.86 141.36 278.37 141.36"/><polygon class="cls-18" points="301.87 141.36 296 147.9 290.13 141.36 301.87 141.36"/><polygon class="cls-18" points="324.96 141.36 319.07 147.9 313.18 141.36 324.96 141.36"/><polygon class="cls-18" points="348.22 141.36 342.36 147.9 336.49 141.36 348.22 141.36"/><path class="cls-15" d="M278.37,141.36h11.75l2-28.58h-9.76Zm-23.28,0h11.75l5.77-28.58h-9.76Zm46.78-28.58v28.58h11.31l-2-28.58Zm19.07,0,4,28.58h11.53l-5.77-28.58Z"/><polygon class="cls-18" points="266.86 141.36 260.98 147.9 255.1 141.36 266.86 141.36"/><polygon class="cls-18" points="290.13 141.36 284.25 147.9 278.37 141.36 290.13 141.36"/><polygon class="cls-18" points="313.18 141.36 307.52 147.9 301.87 141.36 313.18 141.36"/><polygon class="cls-18" points="336.49 141.36 330.73 147.9 324.96 141.36 336.49 141.36"/><rect class="cls-19" x="100.22" y="86.61" width="147.67" height="29.67"/><text class="cls-20" transform="translate(126.84 109.53)">STUDIO</text></svg>