<svg id="Layer_1" data-name="Layer 1" xmlns="http://www.w3.org/2000/svg" viewBox="0 0 395.38 143.13"><defs><style>.cls-1{fill:#76cde1;}.cls-2{fill:none;stroke:#76cde1;stroke-width:0.35px;stroke-dasharray:1.42;}.cls-2,.cls-5{stroke-miterlimit:10;}.cls-3{font-size:21.79px;fill:#75cee2;font-family:AvenirNextLTPro-Regular, Avenir Next LT Pro;}.cls-4{letter-spacing:-0.1em;}.cls-5{fill:#fff;stroke:#d61a69;stroke-width:2px;}.cls-6{fill:#8dcb8b;}.cls-7{fill:#569a59;}</style></defs><title>NumeracyArtboard 93</title><path class="cls-1" d="M250.6,76.16c3.28-.91,10.53-2.09,11.14-6.38.42-2.92-3.87-10.31-6.26-11.86-1.36-.89-.31-.46-2-.57s-4.52,1.4-6.2,1.94c-.75.24-3.62,1.67-3.92,1.57-.86-.29-2.31-3.63-2.76-4.32a24,24,0,0,0-2.5-3.84c-.78-.79-1.6-1.51-2.84-1.2-2.2.54-1,2.33-.35,3.9s1.46,3.24,2.23,4.84,2.55,3.82,2.84,5.52c.36,2.09.19,1.2-1.86.68a7.48,7.48,0,0,0-2.18-.35c-2.24.31-2.13,1.73-.52,3.43,3.28,3.45,10.35,5.15,14.76,6.74.54.19.77-.66.24-.86-4.11-1.48-8.63-3-12.4-5.23-2-1.2-3.59-2.46-1.11-3,1.29-.3,3.49,1,4.63,1.4a.45.45,0,0,0,.55-.31c.16-.83-.2-.37-.45-1.39-.58-2.42-3-5.55-4.12-7.85A15.22,15.22,0,0,1,236,55.76l-.69-1.52L238,54.1c1.17.61,4.3,5.91,4.57,7.17a.45.45,0,0,0,.55.31c2.61-.86,5.26-1.93,7.95-2.56,3.3-.78,3.95-.6,5.74,2a29.8,29.8,0,0,1,2.07,3.49c1.34,2.66,3.06,5.1.38,7.46-2.19,1.93-6.08,2.56-8.84,3.32a.44.44,0,0,0,.24.86Z"/><path class="cls-2" d="M231.84,52a2.49,2.49,0,0,0-.85,2,4.84,4.84,0,0,0,1,3.21,5.87,5.87,0,0,0,1.85,1.41"/><path class="cls-2" d="M230.13,50.36a4.16,4.16,0,0,0-1.25,2.41,7.62,7.62,0,0,0-.14,2.74,6.44,6.44,0,0,0,2.16,3.83,7.9,7.9,0,0,0,4,1.8"/><path class="cls-2" d="M236.79,49.18a2.49,2.49,0,0,1,2.14.34,4.84,4.84,0,0,1,2.16,2.59,5.87,5.87,0,0,1,.22,2.31"/><path class="cls-2" d="M236.29,46.85a4.16,4.16,0,0,1,2.71.22,7.62,7.62,0,0,1,2.4,1.35,6.44,6.44,0,0,1,2.09,3.87,7.9,7.9,0,0,1-.62,4.38"/><text class="cls-3" transform="translate(271.9 70.96)"><tspan class="cls-4">T</tspan><tspan x="10.33" y="0">ap me for </tspan><tspan x="0" y="26.15">solution</tspan></text><path class="cls-5" d="M208.31,74.75A35.74,35.74,0,0,0,204.59,59c-.32-13.06-7.93-24-18.21-27.29A34.4,34.4,0,0,0,129,16.2C124.81,7.14,116.64,1,107.25,1,96.86,1,88,8.52,84.27,19.18,79.72,12.62,72.8,8.43,65,8.43c-10.54,0-19.54,7.74-23.13,18.66a34.48,34.48,0,0,0-20.63,65.3c.32.58.65,1.16,1,1.73a34.28,34.28,0,0,0-.55,6.1c0,16.12,11.1,29.18,24.8,29.18A22.5,22.5,0,0,0,62,123l2.28.81a34.38,34.38,0,0,0,55.38,7.52q3.79-.17,7.5-.51a34.4,34.4,0,0,0,53.34-16.12C197.68,104.47,208.31,90.35,208.31,74.75Z"/><path class="cls-6" d="M96,98.85c2.74-9.27,4.72-18.36,4.64-27.26s-3.78-11.16-4.24-20c-.49-9.38,1.08-14.12,4.42-22.92A3.11,3.11,0,0,1,102,26.88a2.58,2.58,0,0,1,1.83,0l25.67,6.52a1.68,1.68,0,0,1,1.07.59,2.11,2.11,0,0,1,.09,1.51l-2.11,11.17a13.12,13.12,0,0,0-.23,5.69,18.69,18.69,0,0,0,2.36,4.46c2.3,4,2.85,9,2.38,13.73s-1.43,11.94-2.85,16.5c-1.9,6.12-4.27,9.66-6.17,15.78a1.19,1.19,0,0,1-.42.71,1,1,0,0,1-.67,0Z"/><path class="cls-7" d="M125.74,39.45a2.83,2.83,0,0,1-2.3-1.73,3.18,3.18,0,0,1-.13-1.72l-15.64-4a4.44,4.44,0,0,1-2.24,1.74,6.35,6.35,0,0,1-2.67.38,48.34,48.34,0,0,0-2.18,7.68,39.53,39.53,0,0,0-.45,9.35,26.71,26.71,0,0,0,1.92,8.5,32.36,32.36,0,0,1,2.33,11.73,75.58,75.58,0,0,1-1.3,14.13c-.34,1.9-.76,3.89-1.25,6a4.21,4.21,0,0,1,2,1.1,3.3,3.3,0,0,1,.9,2.91,2.94,2.94,0,0,1-.23.67l14,2.46a6.07,6.07,0,0,1,.38-.63A7.17,7.17,0,0,1,123,95.1l0,0,.81-1.86a65.43,65.43,0,0,0,2.91-7.41,50,50,0,0,0,1.33-5.77c.7-3.89,1.14-7.84,1.34-9.85.31-3.11.24-7.57-1.84-11.17-.19-.32-.4-.66-.63-1a15.52,15.52,0,0,1-2.15-4.45,15.64,15.64,0,0,1,0-6.88L125,46l1.23-6.5A3.4,3.4,0,0,1,125.74,39.45Z"/><path class="cls-6" d="M106.83,61.22c-.76,2.25-1.53,4.66-1,6.95a8.83,8.83,0,0,0,2.47,4.2,12.71,12.71,0,0,0,8.51,4,10.21,10.21,0,0,0,8.53-4.16,9.67,9.67,0,0,0,.89-9.82A10.76,10.76,0,0,0,121.11,58a13.28,13.28,0,0,0-8-1.36,9,9,0,0,0-6.59,5Z"/><path class="cls-7" d="M110,61.69c-.67,2.56-.53,13.32,4.59,9.44,2.63-2-.07-8.25,3.48-8.6,4.45-.44,6.86,6.58,3.86,9.34-.28.26,1.09.09,1.35-.14,1.95-1.8,1.77-6.14.06-8a7.79,7.79,0,0,0-7-1.71c-2.25.76-1.64,3.77-1.83,5.73-.09.93,0,3.43-1.47,3.36-.83,0-1.42-2-1.58-2.58a14.59,14.59,0,0,1,.06-7.1c.07-.25-1.38-.07-1.48.28Z"/><path class="cls-7" d="M107.46,67.83c6-.12,11.43-1.35,17.45-.46.34.05,1.6-.5,1.24-.55-6.16-.91-11.6.32-17.7.44-.3,0-1.68.59-1,.57Z"/><path class="cls-6" d="M129.27,66.46c2.12,3.24,4.11,7.8,6.86,10.5.81.8,1,1.08,2.21,1,1.51-.08,3.12-1.25,4.36-1.93,3-1.64,5.89-3.4,8.75-5.26,1.11-.72-1.48-.52-2-.18-1.91,1.24-3.83,2.44-5.79,3.58-.76.44-3.78,2.74-4.65,2.46-1.06-.34-3.06-4.62-3.73-5.63l-3.43-5.25c-.45-.69-2.85.28-2.58.69Z"/><path class="cls-6" d="M119,102.23c3.61-.15,14.57-1.61,16.12,2.18.81,2,.23,5.7.54,7.94a46.2,46.2,0,0,0,1.35,7.86c1.2,3.58,5.86,1,8.74,0,1.7-.61.15-1.49-1-1.06a35.59,35.59,0,0,1-3.91,1,10,10,0,0,0-1.13.33q-1,.41.06-.13c-.88-.81-1-5.7-1.22-6.94a65.5,65.5,0,0,1-.73-7.11c-.16-3.13.37-4-2.17-5.15-1.93-.88-5.7-.46-7.8-.51-2.61-.07-5.21,0-7.82.1-1,0-2.73,1.54-1,1.47Z"/><path class="cls-6" d="M103.19,99.66c-.78,1.71-1.69,5.48-3.06,6.73-1.76,1.6-5.28,1.25-7.47,1.37-4.23.23-8.53-.21-12.73.09-4.84.35-3.56,4.31-3.58,8.37,0,.41,2.58.05,2.58-.69,0-1.93-.74-5.41,1.42-6.56.78-.42,4.54,0,5.46,0,3.73-.05,7.46-.24,11.17-.61,6-.59,6.23-3.61,8.76-9.19.18-.4-2.25-.21-2.55.45Z"/><path class="cls-6" d="M107.21,65.56c-3.27-1.3-6.56-2.56-9.88-3.74-1.89-.67-4.88-2.4-7-2-1.56.33-2.65,1.68-3.71,2.76-2.7,2.77-5.35,5.59-8,8.39-1.09,1.14,1.41,1.38,2.13.63,3.25-3.39,7.36-10,12.55-9.08,4.12.73,8.49,3.07,12.37,4.61,1,.39,3-1,1.53-1.61Z"/><path class="cls-6" d="M79.75,71.45a1.59,1.59,0,0,0-2-.24,4.49,4.49,0,0,0-1.46,1.57q-1.07,1.63-2.07,3.31c-.21.35-.41.79-.19,1.13a1.07,1.07,0,0,0,.59.36,24.84,24.84,0,0,0,3.41.87,1.79,1.79,0,0,0,.88,0,1.72,1.72,0,0,0,.92-1.2,10.05,10.05,0,0,0,.31-5.09"/><path class="cls-6" d="M149.48,70.58,150.71,68a2.37,2.37,0,0,1,1.87-1.61l1.77-.58a1.48,1.48,0,0,1,.86-.1,1.45,1.45,0,0,1,.64.5q.77.89,1.46,1.83a1.92,1.92,0,0,1,.52,1.47,1.85,1.85,0,0,1-.6.87c-2.6,2.47-6.38,4.05-9.81,3-.33-.1-.73-.4-.58-.71a.64.64,0,0,1,.3-.25L149.81,71"/></svg>