<svg id="Layer_1" data-name="Layer 1" xmlns="http://www.w3.org/2000/svg" viewBox="0 0 535.22 377.88"><defs><style>.cls-1{fill:#76cde1;}.cls-10,.cls-11,.cls-12,.cls-13,.cls-14,.cls-2{fill:none;}.cls-10,.cls-11,.cls-14,.cls-2{stroke:#76cde1;}.cls-10,.cls-11,.cls-12,.cls-13,.cls-14,.cls-2,.cls-21,.cls-22{stroke-miterlimit:10;}.cls-2{stroke-width:0.35px;stroke-dasharray:1.42;}.cls-3{font-size:21.79px;font-family:AvenirNextLTPro-Regular, Avenir Next LT Pro;}.cls-3,.cls-7,.cls-9{fill:#75cee2;}.cls-4{letter-spacing:-0.1em;}.cls-5{letter-spacing:-0.01em;}.cls-6{fill:#e3f4f8;}.cls-7{font-size:29.88px;}.cls-21,.cls-22,.cls-7,.cls-9{font-family:Cutive-Regular, Cutive;}.cls-8{letter-spacing:-0.03em;}.cls-9{font-size:9.24px;}.cls-10{stroke-width:0.88px;}.cls-11{stroke-width:1.67px;}.cls-12{stroke:#aedfeb;}.cls-12,.cls-13{stroke-width:3.1px;}.cls-13{stroke:#98c3ce;}.cls-14{stroke-width:0.84px;}.cls-15{fill:#aee0eb;}.cls-16{letter-spacing:-0.02em;}.cls-17{letter-spacing:-0.02em;}.cls-18{fill:#5ba3b3;}.cls-19{fill:#74cee2;}.cls-20{fill:#396e7a;}.cls-21,.cls-22{font-size:15.9px;fill:#231f20;stroke:#fff;stroke-width:2.41px;}.cls-21{letter-spacing:0.03em;}.cls-22{letter-spacing:0.03em;}.cls-23{fill:#fff;}</style></defs><title>NumeracyArtboard 33</title><path class="cls-1" d="M347.59,320.85c3.28-.91,10.53-2.09,11.14-6.38.42-2.92-3.87-10.31-6.26-11.86-1.36-.89-.31-.46-2-.57s-4.52,1.4-6.2,1.94c-.75.24-3.62,1.67-3.92,1.57-.86-.29-2.31-3.63-2.76-4.32a24,24,0,0,0-2.5-3.84c-.78-.79-1.6-1.51-2.84-1.2-2.2.54-1,2.33-.35,3.9s1.46,3.24,2.23,4.84,2.55,3.82,2.84,5.52c.36,2.09.19,1.2-1.86.68a7.48,7.48,0,0,0-2.18-.35c-2.24.31-2.13,1.73-.52,3.43,3.28,3.45,10.35,5.15,14.76,6.74.54.19.77-.66.24-.86-4.11-1.48-8.63-3-12.4-5.23-2-1.2-3.59-2.46-1.11-3,1.29-.3,3.49,1,4.63,1.4a.45.45,0,0,0,.55-.31c.16-.83-.2-.37-.45-1.39-.58-2.42-3-5.55-4.12-7.85a15.22,15.22,0,0,1-1.49-3.23l-.69-1.52,2.63-.14c1.17.61,4.3,5.91,4.57,7.17a.45.45,0,0,0,.55.31c2.61-.86,5.26-1.93,7.95-2.56,3.3-.78,3.95-.6,5.74,2a29.8,29.8,0,0,1,2.07,3.49c1.34,2.66,3.06,5.1.38,7.46-2.19,1.93-6.08,2.56-8.84,3.32a.44.44,0,0,0,.24.86Z"/><path class="cls-2" d="M328.83,296.7a2.49,2.49,0,0,0-.85,2,4.84,4.84,0,0,0,1,3.21,5.87,5.87,0,0,0,1.85,1.41"/><path class="cls-2" d="M327.12,295a4.16,4.16,0,0,0-1.25,2.41,7.62,7.62,0,0,0-.14,2.74,6.44,6.44,0,0,0,2.16,3.83,7.9,7.9,0,0,0,4,1.8"/><path class="cls-2" d="M333.77,293.87a2.49,2.49,0,0,1,2.14.34,4.84,4.84,0,0,1,2.16,2.59,5.87,5.87,0,0,1,.22,2.31"/><path class="cls-2" d="M333.28,291.54a4.16,4.16,0,0,1,2.71.22,7.62,7.62,0,0,1,2.4,1.35,6.44,6.44,0,0,1,2.09,3.87,7.9,7.9,0,0,1-.62,4.38"/><text class="cls-3" transform="translate(369.07 315.65)"><tspan class="cls-4">T</tspan><tspan x="10.33" y="0">ap me to see </tspan><tspan x="0" y="26.15">an </tspan><tspan class="cls-5" x="29.74" y="26.15">e</tspan><tspan x="42.07" y="26.15">xample</tspan></text><polygon class="cls-6" points="331.01 0 528.57 8.87 521.99 142.31 520.18 230.72 490.23 245.95 453.12 262.5 447.5 264.39 319.8 257.55 331.01 0"/><text class="cls-7" transform="matrix(1, 0.05, -0.05, 1, 349.49, 41.09)"><tspan class="cls-8">B</tspan><tspan x="25.59" y="0">UDGET</tspan></text><text class="cls-9" transform="matrix(1, 0.05, -0.05, 1, 460.13, 76.86)">Sub total</text><text class="cls-9" transform="matrix(1, 0.05, -0.05, 1, 366.49, 232.15)">Grand total:</text><rect class="cls-10" x="343.32" y="78.64" width="17.01" height="20.28" transform="translate(5.04 -18) rotate(2.95)"/><rect class="cls-10" x="341.86" y="106.86" width="17.01" height="20.28" transform="translate(6.49 -17.89) rotate(2.95)"/><rect class="cls-10" x="340.41" y="135.07" width="17.01" height="20.28" transform="translate(7.94 -17.78) rotate(2.95)"/><rect class="cls-10" x="338.95" y="163.29" width="17.01" height="20.28" transform="translate(9.39 -17.66) rotate(2.95)"/><rect class="cls-10" x="337.5" y="191.5" width="17.01" height="20.28" transform="translate(10.84 -17.55) rotate(2.95)"/><line class="cls-11" x1="365.98" y1="81.78" x2="436.08" y2="85.39"/><line class="cls-12" x1="452.54" y1="88.48" x2="507.79" y2="91.31"/><line class="cls-12" x1="452.54" y1="102.67" x2="507.79" y2="105.49"/><line class="cls-12" x1="452.54" y1="115.83" x2="507.79" y2="118.65"/><line class="cls-12" x1="452.54" y1="129.5" x2="507.79" y2="132.32"/><line class="cls-12" x1="452.54" y1="146.01" x2="507.79" y2="148.83"/><line class="cls-12" x1="452.54" y1="160.19" x2="507.79" y2="163.02"/><line class="cls-12" x1="452.54" y1="177.48" x2="507.79" y2="180.3"/><line class="cls-13" x1="452.54" y1="224.94" x2="507.79" y2="227.76"/><line class="cls-11" x1="349.98" y1="48.24" x2="507.48" y2="57"/><line class="cls-14" x1="365.68" y1="87.56" x2="435.78" y2="91.18"/><line class="cls-14" x1="365.43" y1="92.39" x2="435.53" y2="96"/><line class="cls-14" x1="365.23" y1="96.25" x2="435.33" y2="99.86"/><line class="cls-11" x1="364.63" y1="107.82" x2="434.74" y2="111.44"/><line class="cls-14" x1="364.34" y1="113.61" x2="434.44" y2="117.22"/><line class="cls-14" x1="364.09" y1="118.43" x2="434.19" y2="122.05"/><line class="cls-14" x1="363.89" y1="122.29" x2="433.99" y2="125.91"/><line class="cls-11" x1="363.14" y1="136.76" x2="433.25" y2="140.38"/><line class="cls-14" x1="362.84" y1="142.55" x2="432.95" y2="146.16"/><line class="cls-14" x1="362.6" y1="147.37" x2="432.7" y2="150.99"/><line class="cls-14" x1="362.4" y1="151.23" x2="432.5" y2="154.85"/><line class="cls-11" x1="361.7" y1="164.74" x2="431.8" y2="168.35"/><line class="cls-14" x1="361.4" y1="170.52" x2="431.5" y2="174.14"/><line class="cls-14" x1="361.15" y1="175.35" x2="431.26" y2="178.96"/><line class="cls-14" x1="360.95" y1="179.2" x2="431.06" y2="182.82"/><line class="cls-11" x1="360.26" y1="192.71" x2="430.36" y2="196.32"/><line class="cls-14" x1="359.96" y1="198.5" x2="430.06" y2="202.11"/><line class="cls-14" x1="359.71" y1="203.32" x2="429.81" y2="206.94"/><line class="cls-14" x1="359.51" y1="207.18" x2="429.61" y2="210.79"/><path class="cls-15" d="M462.92,261.4c5.15-2.23,7.74-4.06,12.9-6.29,16.88-7.3,30.77-12.8,44.4-24.45-6.53,2.18-19.46,12.47-38.63-.59-10,24-16.55,24.39-23.52,29.18a35,35,0,0,1-11,5.13,43.25,43.25,0,0,0,15.8-3"/><path class="cls-1" d="M22.11,320.85c3.28-.91,10.53-2.09,11.14-6.38.42-2.92-3.87-10.31-6.26-11.86-1.36-.89-.31-.46-2-.57s-4.52,1.4-6.2,1.94c-.75.24-3.62,1.67-3.92,1.57-.86-.29-2.31-3.63-2.76-4.32a24,24,0,0,0-2.5-3.84c-.78-.79-1.6-1.51-2.84-1.2-2.2.54-1,2.33-.35,3.9s1.46,3.24,2.23,4.84,2.55,3.82,2.84,5.52c.36,2.09.19,1.2-1.86.68a7.48,7.48,0,0,0-2.18-.35c-2.24.31-2.13,1.73-.52,3.43,3.28,3.45,10.35,5.15,14.76,6.74.54.19.77-.66.24-.86-4.11-1.48-8.63-3-12.4-5.23-2-1.2-3.59-2.46-1.11-3,1.29-.3,3.49,1,4.63,1.4a.45.45,0,0,0,.55-.31c.16-.83-.2-.37-.45-1.39-.58-2.42-3-5.55-4.12-7.85a15.22,15.22,0,0,1-1.49-3.23l-.69-1.52,2.63-.14c1.17.61,4.3,5.91,4.57,7.17a.45.45,0,0,0,.55.31c2.61-.86,5.26-1.93,7.95-2.56,3.3-.78,3.95-.6,5.74,2a29.8,29.8,0,0,1,2.07,3.49c1.34,2.66,3.06,5.1.38,7.46-2.19,1.93-6.08,2.56-8.84,3.32a.44.44,0,0,0,.24.86Z"/><path class="cls-2" d="M3.35,296.7a2.49,2.49,0,0,0-.85,2,4.84,4.84,0,0,0,1,3.21,5.87,5.87,0,0,0,1.85,1.41"/><path class="cls-2" d="M1.64,295a4.16,4.16,0,0,0-1.25,2.41,7.62,7.62,0,0,0-.14,2.74A6.44,6.44,0,0,0,2.41,304a7.9,7.9,0,0,0,4,1.8"/><path class="cls-2" d="M8.29,293.87a2.49,2.49,0,0,1,2.14.34,4.84,4.84,0,0,1,2.16,2.59,5.87,5.87,0,0,1,.22,2.31"/><path class="cls-2" d="M7.8,291.54a4.16,4.16,0,0,1,2.71.22,7.62,7.62,0,0,1,2.4,1.35A6.44,6.44,0,0,1,15,297a7.9,7.9,0,0,1-.62,4.38"/><text class="cls-3" transform="translate(43.59 315.65)"><tspan class="cls-4">T</tspan><tspan x="10.33" y="0">ap me to </tspan><tspan x="0" y="26.15">understand the </tspan><tspan x="0" y="52.29">di</tspan><tspan class="cls-16" x="19.33" y="52.29">f</tspan><tspan x="25.36" y="52.29">fe</tspan><tspan class="cls-17" x="44.25" y="52.29">r</tspan><tspan x="51.7" y="52.29">ence</tspan></text><path class="cls-18" d="M29.7,12.44l151.43,1.32c8,.07,17.33.8,21.84,7.42,2.24,3.28,2.78,7.39,3.17,11.34,2.29,22.71,1.9,45.59,1.51,68.41l-2.3,134.45c-.09,5-.27,10.41-3.15,14.54-4.59,6.6-13.87,7.41-21.91,7.57q-69.49,1.37-139,1c-4.06,0-8.24-.07-12-1.69-10.89-4.75-12.24-19.42-11.74-31.29,2.74-65.35,11.19-131,2.85-195.9-.54-4.23-1.13-8.7.53-12.63s4-4.63,8.69-4.5"/><path class="cls-19" d="M190.06,75.41l-157-.5-.22-1.17c.43-10.5-.22-21.09-.73-31.44l0-.4,158,.5,2.38-.1a177.55,177.55,0,0,1,1.5,31.44"/><path class="cls-20" d="M191.66,35l-49.78-.21.48-.49a96.82,96.82,0,0,0-.47-13v-.17l49.78.21.75,0a96.82,96.82,0,0,1,.47,13"/><path class="cls-19" d="M31.61,220.71l22.44.12c1.19,0,2.57.07,3.24.66a1.58,1.58,0,0,1,.47,1,31.51,31.51,0,0,1,.22,6.11l-.34,12a1.6,1.6,0,0,1-.47,1.3c-.68.59-2.06.66-3.25.68q-10.3.12-20.6.09a7.22,7.22,0,0,1-1.77-.15,2.37,2.37,0,0,1-1.74-2.8c.41-5.84,1.66-11.71.42-17.5a1.36,1.36,0,0,1,.08-1.13,1.52,1.52,0,0,1,1.52-.44"/><text class="cls-21" transform="translate(38.99 239.02)">0</text><path class="cls-19" d="M32.53,191.71l22.44.12c1.19,0,2.57.07,3.24.66a1.58,1.58,0,0,1,.47,1,31.51,31.51,0,0,1,.22,6.11l-.34,12a1.6,1.6,0,0,1-.47,1.3c-.68.59-2.06.66-3.25.68q-10.3.12-20.6.09a7.22,7.22,0,0,1-1.77-.15,2.37,2.37,0,0,1-1.74-2.8c.41-5.84,1.66-11.71.42-17.5a1.36,1.36,0,0,1,.08-1.13,1.52,1.52,0,0,1,1.52-.44"/><text class="cls-21" transform="translate(39.91 210.02)">1</text><path class="cls-19" d="M65.67,191.71l22.44.12c1.19,0,2.57.07,3.24.66a1.58,1.58,0,0,1,.47,1,31.51,31.51,0,0,1,.22,6.11l-.34,12a1.6,1.6,0,0,1-.47,1.3c-.68.59-2.06.66-3.25.68q-10.3.12-20.6.09a7.22,7.22,0,0,1-1.77-.15,2.37,2.37,0,0,1-1.74-2.8c.41-5.84,1.66-11.71.42-17.5a1.36,1.36,0,0,1,.08-1.13,1.52,1.52,0,0,1,1.52-.44"/><text class="cls-21" transform="translate(73.06 210.02)">2</text><path class="cls-19" d="M97.9,191.71l22.44.12c1.19,0,2.57.07,3.24.66a1.58,1.58,0,0,1,.47,1,31.51,31.51,0,0,1,.22,6.11l-.34,12a1.6,1.6,0,0,1-.47,1.3c-.68.59-2.06.66-3.25.68q-10.3.12-20.6.09a7.22,7.22,0,0,1-1.77-.15,2.37,2.37,0,0,1-1.74-2.8c.41-5.84,1.66-11.71.42-17.5a1.36,1.36,0,0,1,.08-1.13,1.52,1.52,0,0,1,1.52-.44"/><text class="cls-21" transform="translate(105.28 210.02)">3</text><path class="cls-19" d="M32.53,162.71l22.44.12c1.19,0,2.57.07,3.24.66a1.58,1.58,0,0,1,.47,1,31.51,31.51,0,0,1,.22,6.11l-.34,12a1.6,1.6,0,0,1-.47,1.3c-.68.59-2.06.66-3.25.68q-10.3.12-20.6.09a7.22,7.22,0,0,1-1.77-.15,2.37,2.37,0,0,1-1.74-2.8c.41-5.84,1.66-11.71.42-17.5a1.36,1.36,0,0,1,.08-1.13,1.52,1.52,0,0,1,1.52-.44"/><text class="cls-21" transform="translate(39.91 181.02)">4</text><path class="cls-19" d="M65.67,162.71l22.44.12c1.19,0,2.57.07,3.24.66a1.58,1.58,0,0,1,.47,1,31.51,31.51,0,0,1,.22,6.11l-.34,12a1.6,1.6,0,0,1-.47,1.3c-.68.59-2.06.66-3.25.68q-10.3.12-20.6.09a7.22,7.22,0,0,1-1.77-.15,2.37,2.37,0,0,1-1.74-2.8c.41-5.84,1.66-11.71.42-17.5a1.36,1.36,0,0,1,.08-1.13,1.52,1.52,0,0,1,1.52-.44"/><text class="cls-21" transform="translate(73.06 181.02)">5</text><path class="cls-19" d="M97.9,162.71l22.44.12c1.19,0,2.57.07,3.24.66a1.58,1.58,0,0,1,.47,1,31.51,31.51,0,0,1,.22,6.11l-.34,12a1.6,1.6,0,0,1-.47,1.3c-.68.59-2.06.66-3.25.68q-10.3.12-20.6.09a7.22,7.22,0,0,1-1.77-.15,2.37,2.37,0,0,1-1.74-2.8c.41-5.84,1.66-11.71.42-17.5a1.36,1.36,0,0,1,.08-1.13,1.52,1.52,0,0,1,1.52-.44"/><text class="cls-21" transform="translate(105.28 181.02)">6</text><path class="cls-19" d="M32.53,132.78,55,132.9c1.19,0,2.57.07,3.24.66a1.58,1.58,0,0,1,.47,1,31.51,31.51,0,0,1,.22,6.11l-.34,12a1.6,1.6,0,0,1-.47,1.3c-.68.59-2.06.66-3.25.68q-10.3.12-20.6.09a7.22,7.22,0,0,1-1.77-.15,2.37,2.37,0,0,1-1.74-2.8c.41-5.84,1.66-11.71.42-17.5a1.36,1.36,0,0,1,.08-1.13,1.52,1.52,0,0,1,1.52-.44"/><text class="cls-22" transform="translate(39.91 151.09)">7</text><path class="cls-19" d="M65.67,132.78l22.44.12c1.19,0,2.57.07,3.24.66a1.58,1.58,0,0,1,.47,1,31.51,31.51,0,0,1,.22,6.11l-.34,12a1.6,1.6,0,0,1-.47,1.3c-.68.59-2.06.66-3.25.68q-10.3.12-20.6.09a7.22,7.22,0,0,1-1.77-.15,2.37,2.37,0,0,1-1.74-2.8c.41-5.84,1.66-11.71.42-17.5a1.36,1.36,0,0,1,.08-1.13,1.52,1.52,0,0,1,1.52-.44"/><text class="cls-21" transform="translate(73.06 151.09)">8</text><path class="cls-19" d="M97.9,132.78l22.44.12c1.19,0,2.57.07,3.24.66a1.58,1.58,0,0,1,.47,1,31.51,31.51,0,0,1,.22,6.11l-.34,12a1.6,1.6,0,0,1-.47,1.3c-.68.59-2.06.66-3.25.68q-10.3.12-20.6.09a7.22,7.22,0,0,1-1.77-.15,2.37,2.37,0,0,1-1.74-2.8c.41-5.84,1.66-11.71.42-17.5a1.36,1.36,0,0,1,.08-1.13,1.52,1.52,0,0,1,1.52-.44"/><text class="cls-21" transform="translate(105.28 151.09)">9</text><path class="cls-19" d="M132.43,132.78l22.44.12c1.19,0,2.57.07,3.24.66a1.58,1.58,0,0,1,.47,1,31.51,31.51,0,0,1,.22,6.11l-.34,12A1.6,1.6,0,0,1,158,154c-.68.59-2.06.66-3.25.68q-10.3.12-20.6.09a7.22,7.22,0,0,1-1.77-.15,2.37,2.37,0,0,1-1.74-2.8c.41-5.84,1.66-11.71.42-17.5a1.36,1.36,0,0,1,.08-1.13,1.52,1.52,0,0,1,1.52-.44"/><text class="cls-21" transform="translate(137.05 151.09)">X</text><path class="cls-19" d="M132.43,163.17l22.44.12c1.19,0,2.57.07,3.24.66a1.58,1.58,0,0,1,.47,1,31.51,31.51,0,0,1,.22,6.11l-.34,12a1.6,1.6,0,0,1-.47,1.3c-.68.59-2.06.66-3.25.68q-10.3.12-20.6.09a7.22,7.22,0,0,1-1.77-.15,2.37,2.37,0,0,1-1.74-2.8c.41-5.84,1.66-11.71.42-17.5a1.36,1.36,0,0,1,.08-1.13,1.52,1.52,0,0,1,1.52-.44"/><text class="cls-21" transform="translate(140.73 175.95)">_</text><path class="cls-19" d="M132.43,191.37l22.44.28c1.19,0,2.57.17,3.24,1.59a7,7,0,0,1,.47,2.43c.34,4.86.28,9.76.22,14.65l-.34,28.8a7.64,7.64,0,0,1-.47,3.11c-.68,1.41-2.06,1.59-3.25,1.62q-10.3.29-20.6.21a3.22,3.22,0,0,1-1.77-.36c-1.61-1-1.81-4.16-1.74-6.7.41-14,1.66-28.06.42-42a7.49,7.49,0,0,1,.08-2.71c.25-.84,1-1.47,1.52-1"/><path class="cls-19" d="M66.13,220.71l22.44.12c1.19,0,2.57.07,3.24.66a1.58,1.58,0,0,1,.47,1,31.51,31.51,0,0,1,.22,6.11l-.34,12a1.6,1.6,0,0,1-.47,1.3c-.68.59-2.06.66-3.25.68q-10.3.12-20.6.09a7.22,7.22,0,0,1-1.77-.15,2.37,2.37,0,0,1-1.74-2.8c.41-5.84,1.66-11.71.42-17.5a1.36,1.36,0,0,1,.08-1.13,1.52,1.52,0,0,1,1.52-.44"/><text class="cls-22" transform="translate(73.52 239.02)">.</text><path class="cls-19" d="M98.36,220.71l22.44.12c1.19,0,2.57.07,3.24.66a1.58,1.58,0,0,1,.47,1,31.51,31.51,0,0,1,.22,6.11l-.34,12a1.6,1.6,0,0,1-.47,1.3c-.68.59-2.06.66-3.25.68q-10.3.12-20.6.09a7.22,7.22,0,0,1-1.77-.15,2.37,2.37,0,0,1-1.74-2.8c.41-5.84,1.66-11.71.42-17.5a1.36,1.36,0,0,1,.08-1.13,1.52,1.52,0,0,1,1.52-.44"/><path class="cls-19" d="M170.18,220.71l22.44.12c1.19,0,2.57.07,3.24.66a1.58,1.58,0,0,1,.47,1,31.51,31.51,0,0,1,.22,6.11l-.34,12a1.6,1.6,0,0,1-.47,1.3c-.68.59-2.06.66-3.25.68q-10.3.12-20.6.09a7.22,7.22,0,0,1-1.77-.15,2.37,2.37,0,0,1-1.74-2.8c.41-5.84,1.66-11.71.42-17.5a1.36,1.36,0,0,1,.08-1.13,1.52,1.52,0,0,1,1.52-.44"/><path class="cls-19" d="M170.18,192.17l22.44.12c1.19,0,2.57.07,3.24.66a1.58,1.58,0,0,1,.47,1,31.51,31.51,0,0,1,.22,6.11l-.34,12a1.6,1.6,0,0,1-.47,1.3c-.68.59-2.06.66-3.25.68q-10.3.12-20.6.09a7.22,7.22,0,0,1-1.77-.15,2.37,2.37,0,0,1-1.74-2.8c.41-5.84,1.66-11.71.42-17.5a1.36,1.36,0,0,1,.08-1.13,1.52,1.52,0,0,1,1.52-.44"/><path class="cls-19" d="M170.18,163.63l22.44.12c1.19,0,2.57.07,3.24.66a1.58,1.58,0,0,1,.47,1,31.51,31.51,0,0,1,.22,6.11l-.34,12a1.6,1.6,0,0,1-.47,1.3c-.68.59-2.06.66-3.25.68q-10.3.12-20.6.09a7.22,7.22,0,0,1-1.77-.15,2.37,2.37,0,0,1-1.74-2.8c.41-5.84,1.66-11.71.42-17.5a1.36,1.36,0,0,1,.08-1.13,1.52,1.52,0,0,1,1.52-.44"/><path class="cls-19" d="M170.18,132.78l22.44.12c1.19,0,2.57.07,3.24.66a1.58,1.58,0,0,1,.47,1,31.51,31.51,0,0,1,.22,6.11l-.34,12a1.6,1.6,0,0,1-.47,1.3c-.68.59-2.06.66-3.25.68q-10.3.12-20.6.09a7.22,7.22,0,0,1-1.77-.15,2.37,2.37,0,0,1-1.74-2.8c.41-5.84,1.66-11.71.42-17.5a1.36,1.36,0,0,1,.08-1.13,1.52,1.52,0,0,1,1.52-.44"/><path class="cls-19" d="M168.8,112.94l22.44.06a10.62,10.62,0,0,1,3.24.32.72.72,0,0,1,.47.49,7.33,7.33,0,0,1,.22,2.93l-.34,5.75a.62.62,0,0,1-.47.62,10.84,10.84,0,0,1-3.25.32q-10.3.06-20.6,0a14.9,14.9,0,0,1-1.77-.07c-1.61-.2-1.81-.83-1.74-1.34.41-2.8,1.66-5.61.42-8.38-.08-.18-.17-.37.08-.54a2.7,2.7,0,0,1,1.52-.21"/><path class="cls-19" d="M132.43,112.94l22.44.06a10.62,10.62,0,0,1,3.24.32.72.72,0,0,1,.47.49,7.33,7.33,0,0,1,.22,2.93l-.34,5.75a.62.62,0,0,1-.47.62,10.84,10.84,0,0,1-3.25.32q-10.3.06-20.6,0a14.9,14.9,0,0,1-1.77-.07c-1.61-.2-1.81-.83-1.74-1.34.41-2.8,1.66-5.61.42-8.38-.08-.18-.17-.37.08-.54a2.7,2.7,0,0,1,1.52-.21"/><path class="cls-19" d="M98.82,112.94l22.44.06a10.62,10.62,0,0,1,3.24.32.72.72,0,0,1,.47.49,7.33,7.33,0,0,1,.22,2.93l-.34,5.75a.62.62,0,0,1-.47.62,10.84,10.84,0,0,1-3.25.32q-10.3.06-20.6,0a14.9,14.9,0,0,1-1.77-.07c-1.61-.2-1.81-.83-1.74-1.34.41-2.8,1.66-5.61.42-8.38-.08-.18-.17-.37.08-.54a2.7,2.7,0,0,1,1.52-.21"/><path class="cls-19" d="M66.13,112.94l22.44.06a10.62,10.62,0,0,1,3.24.32.72.72,0,0,1,.47.49,7.33,7.33,0,0,1,.22,2.93l-.34,5.75a.62.62,0,0,1-.47.62,10.84,10.84,0,0,1-3.25.32q-10.3.06-20.6,0a14.9,14.9,0,0,1-1.77-.07c-1.61-.2-1.81-.83-1.74-1.34.41-2.8,1.66-5.61.42-8.38-.08-.18-.17-.37.08-.54a2.7,2.7,0,0,1,1.52-.21"/><path class="cls-19" d="M33.45,112.94l22.44.06a10.62,10.62,0,0,1,3.24.32.72.72,0,0,1,.47.49,7.33,7.33,0,0,1,.22,2.93l-.34,5.75a.62.62,0,0,1-.47.62,10.84,10.84,0,0,1-3.25.32q-10.3.06-20.6,0a14.9,14.9,0,0,1-1.77-.07c-1.61-.2-1.81-.83-1.74-1.34.41-2.8,1.66-5.61.42-8.38-.08-.18-.17-.37.08-.54a2.7,2.7,0,0,1,1.52-.21"/><path class="cls-23" d="M138.31,220.19a89.19,89.19,0,0,0,12-.54c1.16-.13,2.83-.82,2.93-2.19s-1.37-1.94-2.48-1.81a89.19,89.19,0,0,1-12,.54c-3.09-.07-4.05,3.92-.45,4Z"/><path class="cls-23" d="M102.22,229.51a94.15,94.15,0,0,0,12.63-.6c.73-.08,3-.66,3.08-1.65s-1.5-.94-2.23-.86a84.22,84.22,0,0,1-11.29.48c-1,0-3,.4-3.54,1.37s.48,1.24,1.36,1.26Z"/><path class="cls-23" d="M102.25,236.17a94.24,94.24,0,0,0,12.63-.58c.79-.09,3-.67,3.05-1.73s-1.47-1.09-2.26-1a84.14,84.14,0,0,1-11.29.49c-1,0-3,.39-3.53,1.41s.46,1.39,1.4,1.41Z"/><path class="cls-23" d="M142.26,211v12.89c0,2.92,5.42,2.23,5.42-.34V210.65c0-2.92-5.42-2.23-5.42.34Z"/></svg>